M48
; DRILL file {KiCad 7.0.6} date Wed Nov  1 15:52:37 2023
; FORMAT={-:-/ absolute / inch / decimal}
; #@! TF.CreationDate,2023-11-01T15:52:37-07:00
; #@! TF.GenerationSoftware,Kicad,Pcbnew,7.0.6
; #@! TF.FileFunction,Plated,1,4,PTH
FMAT,2
INCH
; #@! TA.AperFunction,Plated,PTH,ViaDrill
T1C0.0157
; #@! TA.AperFunction,Plated,PTH,ComponentDrill
T2C0.0197
; #@! TA.AperFunction,Plated,PTH,ComponentDrill
T3C0.0276
; #@! TA.AperFunction,Plated,PTH,ComponentDrill
T4C0.0354
; #@! TA.AperFunction,Plated,PTH,ComponentDrill
T5C0.0394
; #@! TA.AperFunction,Plated,PTH,ComponentDrill
T6C0.0394
%
G90
G05
T1
X6.8647Y-4.8922
X6.8701Y-4.2087
X6.9118Y-4.213
X6.9157Y-3.6539
X7.0197Y-5.0354
X7.0236Y-3.6614
X7.0276Y-4.8898
X7.0315Y-4.6299
X7.0354Y-4.5315
X7.0472Y-4.8228
X7.0748Y-3.6614
X7.0879Y-4.7758
X7.1024Y-4.2717
X7.1258Y-3.2087
X7.1496Y-4.9685
X7.1575Y-3.2874
X7.2008Y-3.3342
X7.2047Y-3.1457
X7.2067Y-2.9823
X7.2598Y-4.4173
X7.2598Y-4.5709
X7.311Y-3.5709
X7.4409Y-3.7126
X7.4528Y-4.5315
X7.5433Y-3.7362
X7.5591Y-3.2165
X7.5591Y-3.2717
X7.5591Y-3.3268
X7.6024Y-3.1772
X7.6024Y-3.3701
X7.6575Y-3.1772
X7.6575Y-3.3701
X7.6772Y-4.6929
X7.7126Y-3.1772
X7.7126Y-3.3701
X7.7244Y-3.8189
X7.752Y-4.9134
X7.7559Y-3.2165
X7.7559Y-3.2717
X7.7559Y-3.3268
X7.7559Y-4.8268
X7.8386Y-5.2835
X7.9409Y-5.2795
X8.1181Y-3.122
X8.1181Y-3.1693
X8.122Y-3.5197
X8.122Y-3.5709
X8.126Y-2.9724
X8.126Y-3.3189
X8.126Y-3.4646
X8.126Y-4.2244
X8.1338Y-3.3701
X8.1654Y-3.8086
X8.189Y-3.2874
X8.2087Y-3.374
X8.2559Y-3.6067
X8.2559Y-3.8086
X8.3071Y-3.5591
X8.3122Y-3.7598
X8.3346Y-3.2008
X8.3538Y-4.4252
X8.3701Y-3.8425
X8.3701Y-3.9488
X8.3701Y-3.7441
X8.4291Y-4.1929
X8.4297Y-4.3819
X8.4405Y-4.098
X8.4606Y-3.4882
X8.4921Y-4.0698
X8.5Y-3.1575
X8.5197Y-4.1535
X8.5197Y-4.752
X8.5301Y-4.0135
X8.5354Y-3.5929
X8.563Y-4.3858
X8.5669Y-3.1717
X8.5709Y-3.8228
X8.5906Y-3.3488
X8.5906Y-3.5102
X8.5984Y-3.0315
X8.6693Y-3.6988
X8.6732Y-3.782
X8.6772Y-4.3701
X8.6772Y-4.7717
X8.7047Y-4.315
X8.7126Y-4.689
X8.7323Y-4.5
X8.7441Y-4.6457
X8.7598Y-3.2543
X8.7874Y-3.8268
X8.7992Y-3.6614
X8.8031Y-3.7416
X8.8307Y-3.1457
X8.888Y-3.3486
X8.8898Y-3.1441
X8.9055Y-3.8386
X8.9134Y-5.0354
X8.9291Y-3.7126
X8.9336Y-3.8976
X8.9646Y-4.5591
X8.9764Y-5.0354
X8.9843Y-3.3898
X8.9843Y-3.5551
X8.9843Y-4.8465
X8.9921Y-3.5157
X8.9957Y-3.4299
X8.9959Y-3.4726
X9.0315Y-4.7677
X9.0433Y-5.4134
X9.0472Y-4.0079
X9.0866Y-3.1614
X9.0984Y-5.4646
X9.1329Y-4.8425
X9.1339Y-3.1654
X9.1559Y-4.8031
X9.185Y-4.185
X9.2165Y-4.0945
X9.2165Y-4.7683
X9.2244Y-3.1614
X9.2638Y-4.8465
X9.2795Y-5.1457
X9.2874Y-5.4173
X9.2938Y-4.0472
X9.4016Y-3.0984
X9.4055Y-3.815
X9.4213Y-3.3031
X9.4803Y-4.0906
X9.5354Y-4.7087
X9.5394Y-4.2559
X9.6063Y-3.1339
X9.6063Y-3.4803
X9.626Y-3.5276
X9.685Y-4.5433
X9.7795Y-3.0079
X9.8268Y-3.9567
X9.8268Y-4.5315
X9.8346Y-4.1693
X9.8386Y-3.1102
X9.878Y-3.4528
X9.9291Y-3.3937
X9.9724Y-4.2835
X9.9961Y-4.626
X10.122Y-4.3465
X10.1437Y-4.0512
X10.1909Y-4.0039
X10.374Y-5.0354
X10.3801Y-4.8482
X10.4685Y-5.2008
X10.5039Y-4.5933
X10.5118Y-5.2283
X10.5197Y-4.6496
X10.5669Y-4.6535
X10.5746Y-5.2124
X10.6496Y-4.9685
T2
X10.6112Y-3.4946
X10.6112Y-3.5438
T3
X9.4071Y-4.8457
X9.4071Y-5.4457
X9.5071Y-4.8457
X9.5071Y-5.4457
X9.6071Y-4.8457
X9.6071Y-5.4457
X9.7071Y-4.8457
X9.7071Y-5.4457
X9.8071Y-4.8457
X9.8071Y-5.4457
X9.9071Y-4.8457
X9.9071Y-5.4457
X10.0071Y-4.8457
X10.0071Y-5.4457
X10.1071Y-4.8457
X10.1071Y-5.4457
X10.2071Y-4.8457
X10.2071Y-5.4457
T4
X10.148Y-4.6614
X10.248Y-4.6614
T5
X6.8758Y-3.2815
X6.8758Y-3.5374
X7.053Y-3.2815
X7.053Y-3.5374
X7.7933Y-3.8289
X7.7933Y-4.0061
X8.0492Y-3.8289
X8.0492Y-4.0061
X9.0766Y-3.687
X9.0766Y-3.9429
X9.2537Y-3.687
X9.2537Y-3.9429
X9.5451Y-3.8248
X9.5451Y-4.0807
X9.7222Y-3.8248
X9.7222Y-4.0807
T6
X7.2681Y-6.5669
X7.4961Y-4.3386
X7.5Y-4.1772
X7.7362Y-5.3661
X7.797Y-4.5827
X7.8362Y-5.3661
X7.897Y-4.5827
X7.9362Y-5.3661
X7.9833Y-4.3543
X7.997Y-4.5827
X8.0362Y-5.3661
X8.0833Y-4.3543
X8.1362Y-5.3661
X8.1833Y-4.3543
X8.185Y-4.5906
X8.2173Y-3.0
X8.2362Y-5.3661
X8.285Y-4.5906
X8.3173Y-3.0
X8.4173Y-3.0
X8.4976Y-5.4724
X8.5173Y-3.0
X8.5976Y-5.4724
X8.6976Y-5.4724
X8.7976Y-5.4724
X8.8976Y-5.4724
X9.5984Y-4.4181
X9.5984Y-4.5181
X9.5984Y-4.6181
X9.9567Y-3.6929
X9.9567Y-3.7929
X10.2556Y-5.937
X10.2661Y-3.7402
X10.2661Y-3.8402
X10.2661Y-3.9402
X10.2661Y-4.0402
X10.2661Y-4.1402
X10.2661Y-4.2402
X10.3661Y-3.7402
X10.3661Y-3.8402
X10.3661Y-3.9402
X10.3661Y-4.0402
X10.3661Y-4.1402
X10.3661Y-4.2402
X10.5276Y-3.739
X10.5276Y-3.839
X10.5276Y-3.939
X10.5276Y-4.039
X10.5276Y-4.139
X10.5276Y-4.239
X10.6276Y-3.739
X10.6276Y-3.839
X10.6276Y-3.939
X10.6276Y-4.039
X10.6276Y-4.139
X10.6276Y-4.239
T2
G00X6.8903Y-4.4449
M15
G01X6.8627Y-4.4449
M16
G05
G00X6.8903Y-4.7047
M15
G01X6.8627Y-4.7047
M16
G05
G00X8.6535Y-3.002
M15
G01X8.6535Y-2.9744
M16
G05
G00X8.9134Y-3.002
M15
G01X8.9134Y-2.9744
M16
G05
T6
G00X10.0325Y-3.4021
M15
G01X10.0325Y-3.3233
M16
G05
G00X10.1782Y-3.2446
M15
G01X10.2569Y-3.2446
M16
G05
G00X10.1684Y-3.4808
M15
G01X10.2668Y-3.4808
M16
G05
T0
M30
