%TF.GenerationSoftware,KiCad,Pcbnew,7.0.6*%
%TF.CreationDate,2023-11-01T15:52:39-07:00*%
%TF.ProjectId,Deliverable4_schematics,44656c69-7665-4726-9162-6c65345f7363,rev?*%
%TF.SameCoordinates,Original*%
%TF.FileFunction,Profile,NP*%
%FSLAX46Y46*%
G04 Gerber Fmt 4.6, Leading zero omitted, Abs format (unit mm)*
G04 Created by KiCad (PCBNEW 7.0.6) date 2023-11-01 15:52:39*
%MOMM*%
%LPD*%
G01*
G04 APERTURE LIST*
%TA.AperFunction,Profile*%
%ADD10C,0.100000*%
%TD*%
G04 APERTURE END LIST*
D10*
X268500000Y-74300000D02*
X176800000Y-74300000D01*
X272000000Y-166700000D02*
X272000000Y-137400000D01*
X181400000Y-159900000D02*
X263500000Y-159900000D01*
X263300000Y-141000000D02*
X182700000Y-141000000D01*
X272000000Y-77800000D02*
G75*
G03*
X268500000Y-74300000I-3500000J0D01*
G01*
X173000000Y-150900000D02*
X173000000Y-160000000D01*
X173000000Y-172100000D02*
X173000000Y-160000000D01*
X181400000Y-157700000D02*
G75*
G03*
X181400000Y-159900000I0J-1100000D01*
G01*
X263200254Y-143796442D02*
G75*
G03*
X263300000Y-141000000I99746J1396442D01*
G01*
X272000000Y-166700000D02*
X263700000Y-173600000D01*
X176800000Y-74300001D02*
G75*
G03*
X173011194Y-77808553I0J-3799999D01*
G01*
X272000000Y-137400000D02*
X272000000Y-77800000D01*
X263500000Y-157700000D02*
X181400000Y-157700000D01*
X173011193Y-77808553D02*
X173000000Y-137200000D01*
X173000000Y-150900000D02*
X173000000Y-137200000D01*
X182700000Y-141000000D02*
G75*
G03*
X182700000Y-143800000I0J-1400000D01*
G01*
X173000000Y-172100000D02*
G75*
G03*
X174500000Y-173600000I1500000J0D01*
G01*
X263500000Y-159900000D02*
G75*
G03*
X263500000Y-157700000I0J1100000D01*
G01*
X263200000Y-143800000D02*
X182700000Y-143800000D01*
X263700000Y-173600000D02*
X174500000Y-173600000D01*
M02*
