%TF.GenerationSoftware,KiCad,Pcbnew,7.0.6*%
%TF.CreationDate,2023-11-01T15:52:39-07:00*%
%TF.ProjectId,Deliverable4_schematics,44656c69-7665-4726-9162-6c65345f7363,rev?*%
%TF.SameCoordinates,Original*%
%TF.FileFunction,Copper,L4,Bot*%
%TF.FilePolarity,Positive*%
%FSLAX46Y46*%
G04 Gerber Fmt 4.6, Leading zero omitted, Abs format (unit mm)*
G04 Created by KiCad (PCBNEW 7.0.6) date 2023-11-01 15:52:39*
%MOMM*%
%LPD*%
G01*
G04 APERTURE LIST*
G04 Aperture macros list*
%AMFreePoly0*
4,1,44,6.000000,-37.400000,6.017209,-37.405591,6.035282,-37.406431,6.045874,-37.414905,6.058779,-37.419098,6.069415,-37.433737,6.083542,-37.445039,6.087130,-37.458121,6.095106,-37.469098,6.095106,-37.487191,6.099893,-37.504641,6.095106,-37.517336,6.095106,-37.530902,6.084470,-37.545539,6.078087,-37.562470,0.078087,-45.062470,0.055956,-45.077029,0.035282,-45.093569,0.030476,-45.093792,0.026455,-45.096438,
-0.000010,-45.095208,-0.026455,-45.096437,-0.030473,-45.093793,-0.035282,-45.093570,-0.055970,-45.077019,-0.078087,-45.062469,-6.078087,-37.562470,-6.084470,-37.545540,-6.095106,-37.530902,-6.095106,-37.517335,-6.099893,-37.504640,-6.095106,-37.487189,-6.095106,-37.469098,-6.087132,-37.458123,-6.083543,-37.445039,-6.069413,-37.433735,-6.058779,-37.419098,-6.045876,-37.414905,-6.035282,-37.406430,-6.017205,-37.405590,
-6.000000,-37.400000,-6.000000,37.500000,6.000000,37.500000,6.000000,-37.400000,6.000000,-37.400000,$1*%
G04 Aperture macros list end*
%TA.AperFunction,ComponentPad*%
%ADD10O,1.700000X1.700000*%
%TD*%
%TA.AperFunction,SMDPad,CuDef*%
%ADD11FreePoly0,90.000000*%
%TD*%
%TA.AperFunction,SMDPad,CuDef*%
%ADD12FreePoly0,270.000000*%
%TD*%
%TA.AperFunction,ComponentPad*%
%ADD13O,0.900000X1.800000*%
%TD*%
%TA.AperFunction,ComponentPad*%
%ADD14R,1.700000X1.700000*%
%TD*%
%TA.AperFunction,ComponentPad*%
%ADD15R,1.208000X1.208000*%
%TD*%
%TA.AperFunction,ComponentPad*%
%ADD16C,1.208000*%
%TD*%
%TA.AperFunction,ComponentPad*%
%ADD17O,5.000000X2.500000*%
%TD*%
%TA.AperFunction,ComponentPad*%
%ADD18O,4.500000X2.250000*%
%TD*%
%TA.AperFunction,ComponentPad*%
%ADD19O,2.250000X4.500000*%
%TD*%
%TA.AperFunction,ComponentPad*%
%ADD20R,0.850000X0.850000*%
%TD*%
%TA.AperFunction,ComponentPad*%
%ADD21C,0.850000*%
%TD*%
%TA.AperFunction,ComponentPad*%
%ADD22C,1.507998*%
%TD*%
%TA.AperFunction,ComponentPad*%
%ADD23R,1.800000X1.800000*%
%TD*%
%TA.AperFunction,ComponentPad*%
%ADD24C,1.800000*%
%TD*%
%TA.AperFunction,ComponentPad*%
%ADD25O,1.800000X0.900000*%
%TD*%
%TA.AperFunction,ViaPad*%
%ADD26C,0.800000*%
%TD*%
%TA.AperFunction,Conductor*%
%ADD27C,0.250000*%
%TD*%
%TA.AperFunction,Conductor*%
%ADD28C,0.500000*%
%TD*%
%TA.AperFunction,Conductor*%
%ADD29C,0.750000*%
%TD*%
G04 APERTURE END LIST*
D10*
%TO.P,U10,2*%
%TO.N,Net-(U10-Pad2)*%
X184609000Y-166800000D03*
D11*
%TO.P,U10,4*%
X225841000Y-166810000D03*
%TD*%
D10*
%TO.P,U11,2*%
%TO.N,Net-(U11-Pad2)*%
X260491000Y-150800000D03*
D12*
%TO.P,U11,4*%
X219259000Y-150790000D03*
%TD*%
D13*
%TO.P,J7,S5*%
%TO.N,N/C*%
X226400000Y-75900000D03*
%TO.P,J7,S6*%
X219800000Y-75900000D03*
%TD*%
D14*
%TO.P,J2,1,Pin_1*%
%TO.N,unconnected-(J2-Pin_1-Pad1)*%
X209200000Y-136300000D03*
D10*
%TO.P,J2,2,Pin_2*%
%TO.N,Net-(IC1-PGC1{slash}OA1IN+_{slash}_AN4_{slash}_C1IN1+_{slash}_C1IN3-_{slash}_RPB2_{slash}_RB2)*%
X206660000Y-136300000D03*
%TO.P,J2,3,Pin_3*%
%TO.N,Net-(IC1-PGD1{slash}OA1IN-_{slash}_AN5_{slash}_CTCMP_{slash}_C1IN1-_{slash}_RTCC_{slash}_RPB3_{slash}_RB3)*%
X204120000Y-136300000D03*
%TO.P,J2,4,Pin_4*%
%TO.N,GND*%
X201580000Y-136300000D03*
%TO.P,J2,5,Pin_5*%
%TO.N,+3.3V*%
X199040000Y-136300000D03*
%TO.P,J2,6,Pin_6*%
%TO.N,Net-(IC1-~{MCLR})*%
X196500000Y-136300000D03*
%TD*%
D15*
%TO.P,D7,1*%
%TO.N,Net-(D7-Pad1)*%
X238940000Y-138320000D03*
D16*
%TO.P,D7,2*%
%TO.N,Net-(D7-Pad2)*%
X241480000Y-138320000D03*
%TO.P,D7,3*%
%TO.N,Net-(D7-Pad3)*%
X244020000Y-138320000D03*
%TO.P,D7,4*%
%TO.N,Net-(D7-Pad4)*%
X246560000Y-138320000D03*
%TO.P,D7,5*%
%TO.N,Net-(D7-Pad5)*%
X249100000Y-138320000D03*
%TO.P,D7,6*%
%TO.N,Net-(D7-Pad6)*%
X251640000Y-138320000D03*
%TO.P,D7,7*%
%TO.N,Net-(D7-Pad7)*%
X254180000Y-138320000D03*
%TO.P,D7,8*%
%TO.N,Net-(D7-Pad8)*%
X256720000Y-138320000D03*
%TO.P,D7,9*%
%TO.N,Net-(D7-Pad9)*%
X259260000Y-138320000D03*
%TO.P,D7,10*%
%TO.N,Net-(D7-Pad10)*%
X259260000Y-123080000D03*
%TO.P,D7,11*%
%TO.N,Net-(D7-Pad11)*%
X256720000Y-123080000D03*
%TO.P,D7,12*%
%TO.N,Net-(D7-Pad12)*%
X254180000Y-123080000D03*
%TO.P,D7,13*%
%TO.N,GND*%
X251640000Y-123080000D03*
%TO.P,D7,14*%
X249100000Y-123080000D03*
%TO.P,D7,15*%
%TO.N,Net-(D7-Pad15)*%
X246560000Y-123080000D03*
%TO.P,D7,16*%
%TO.N,Net-(D7-Pad16)*%
X244020000Y-123080000D03*
%TO.P,D7,17*%
%TO.N,Net-(D7-Pad17)*%
X241480000Y-123080000D03*
%TO.P,D7,18*%
%TO.N,Net-(D7-Pad18)*%
X238940000Y-123080000D03*
%TD*%
D17*
%TO.P,J5,1*%
%TO.N,+5V*%
X259526193Y-88412500D03*
D18*
%TO.P,J5,2*%
%TO.N,GND*%
X259526193Y-82412500D03*
D19*
%TO.P,J5,3*%
%TO.N,N/C*%
X254826193Y-85412500D03*
%TD*%
D14*
%TO.P,SW2,1,1*%
%TO.N,+3.3V*%
X207900000Y-116600000D03*
D10*
%TO.P,SW2,2,2*%
%TO.N,/Sensors/WaterLevel*%
X210440000Y-116600000D03*
%TD*%
D14*
%TO.P,J3,1,Pin_1*%
%TO.N,+5V*%
X267400000Y-94970000D03*
D10*
%TO.P,J3,2,Pin_2*%
%TO.N,GND*%
X269940000Y-94970000D03*
%TO.P,J3,3,Pin_3*%
%TO.N,+5V*%
X267400000Y-97510000D03*
%TO.P,J3,4,Pin_4*%
%TO.N,GND*%
X269940000Y-97510000D03*
%TO.P,J3,5,Pin_5*%
%TO.N,+5V*%
X267400000Y-100050000D03*
%TO.P,J3,6,Pin_6*%
%TO.N,GND*%
X269940000Y-100050000D03*
%TO.P,J3,7,Pin_7*%
%TO.N,+5V*%
X267400000Y-102590000D03*
%TO.P,J3,8,Pin_8*%
%TO.N,GND*%
X269940000Y-102590000D03*
%TO.P,J3,9,Pin_9*%
%TO.N,+5V*%
X267400000Y-105130000D03*
%TO.P,J3,10,Pin_10*%
%TO.N,GND*%
X269940000Y-105130000D03*
%TO.P,J3,11,Pin_11*%
%TO.N,+5V*%
X267400000Y-107670000D03*
%TO.P,J3,12,Pin_12*%
%TO.N,GND*%
X269940000Y-107670000D03*
%TD*%
D14*
%TO.P,J11,1,Pin_1*%
%TO.N,Net-(J11-Pin_1)*%
X202775000Y-110600000D03*
D10*
%TO.P,J11,2,Pin_2*%
%TO.N,Net-(J11-Pin_2)*%
X205315000Y-110600000D03*
%TO.P,J11,3,Pin_3*%
%TO.N,Net-(J11-Pin_3)*%
X207855000Y-110600000D03*
%TD*%
D14*
%TO.P,J4,1,Pin_1*%
%TO.N,+3.3V*%
X260760000Y-95000000D03*
D10*
%TO.P,J4,2,Pin_2*%
%TO.N,GND*%
X263300000Y-95000000D03*
%TO.P,J4,3,Pin_3*%
%TO.N,+3.3V*%
X260760000Y-97540000D03*
%TO.P,J4,4,Pin_4*%
%TO.N,GND*%
X263300000Y-97540000D03*
%TO.P,J4,5,Pin_5*%
%TO.N,+3.3V*%
X260760000Y-100080000D03*
%TO.P,J4,6,Pin_6*%
%TO.N,GND*%
X263300000Y-100080000D03*
%TO.P,J4,7,Pin_7*%
%TO.N,+3.3V*%
X260760000Y-102620000D03*
%TO.P,J4,8,Pin_8*%
%TO.N,GND*%
X263300000Y-102620000D03*
%TO.P,J4,9,Pin_9*%
%TO.N,+3.3V*%
X260760000Y-105160000D03*
%TO.P,J4,10,Pin_10*%
%TO.N,GND*%
X263300000Y-105160000D03*
%TO.P,J4,11,Pin_11*%
%TO.N,+3.3V*%
X260760000Y-107700000D03*
%TO.P,J4,12,Pin_12*%
%TO.N,GND*%
X263300000Y-107700000D03*
%TD*%
D14*
%TO.P,U3,1*%
%TO.N,/Sensors/SoilMoisture*%
X190400000Y-110200000D03*
%TD*%
%TO.P,J10,1,Pin_1*%
%TO.N,Net-(IC1-TDO_{slash}_RPB10_{slash}_PWMH3_{slash}_RB10)*%
X215840000Y-139000000D03*
D10*
%TO.P,J10,2,Pin_2*%
%TO.N,Net-(IC1-TCK_{slash}_RPB11_{slash}_PWML3_{slash}_RB11)*%
X218380000Y-139000000D03*
%TO.P,J10,3,Pin_3*%
%TO.N,Net-(IC1-RPB12_{slash}_PWMH2_{slash}_RB12)*%
X220920000Y-139000000D03*
%TO.P,J10,4,Pin_4*%
%TO.N,Net-(IC1-RPB13_{slash}_PWML2_{slash}_CTPLS_{slash}_RB13)*%
X223460000Y-139000000D03*
%TO.P,J10,5,Pin_5*%
%TO.N,Net-(IC1-PWMH4_{slash}_RA10)*%
X226000000Y-139000000D03*
%TD*%
D14*
%TO.P,J6,1,Pin_1*%
%TO.N,/Sensors/Temp*%
X203125000Y-116400000D03*
D10*
%TO.P,J6,2,Pin_2*%
%TO.N,/Sensors/SoilMoisture*%
X200585000Y-116400000D03*
%TO.P,J6,3,Pin_3*%
%TO.N,/Sensors/WaterLevel*%
X198045000Y-116400000D03*
%TD*%
D14*
%TO.P,U2,1*%
%TO.N,Net-(Q1-S)*%
X190500000Y-106100000D03*
%TD*%
D20*
%TO.P,M1,1,+*%
%TO.N,+5V*%
X269525000Y-88762500D03*
D21*
%TO.P,M1,2,-*%
%TO.N,Net-(D6-A)*%
X269525000Y-90012500D03*
%TD*%
D22*
%TO.P,SW4,1,1*%
%TO.N,GND*%
X197949999Y-97254900D03*
%TO.P,SW4,2*%
%TO.N,N/C*%
X204450001Y-97254900D03*
%TO.P,SW4,3*%
X197949999Y-101754901D03*
%TO.P,SW4,4,4*%
%TO.N,Net-(U5-IO0)*%
X204450001Y-101754901D03*
%TD*%
%TO.P,SW5,1,1*%
%TO.N,+3.3V*%
X235045100Y-93649999D03*
%TO.P,SW5,2*%
%TO.N,N/C*%
X235045100Y-100150001D03*
%TO.P,SW5,3*%
X230545099Y-93649999D03*
%TO.P,SW5,4,4*%
%TO.N,/UserIO/UserButton*%
X230545099Y-100150001D03*
%TD*%
D23*
%TO.P,D15,1,K*%
%TO.N,Net-(D15-K)*%
X260300000Y-118400000D03*
D24*
%TO.P,D15,2,A*%
%TO.N,Net-(D15-A)*%
X257760000Y-118400000D03*
%TD*%
D14*
%TO.P,J13,1,Pin_1*%
%TO.N,/UserIO/SCK*%
X243800000Y-117300000D03*
D10*
%TO.P,J13,2,Pin_2*%
%TO.N,/UserIO/SS*%
X243800000Y-114760000D03*
%TO.P,J13,3,Pin_3*%
%TO.N,/UserIO/SDO*%
X243800000Y-112220000D03*
%TD*%
D14*
%TO.P,J12,1,Pin_1*%
%TO.N,/USB_Output/TX_Output*%
X252900000Y-93800000D03*
D10*
%TO.P,J12,2,Pin_2*%
%TO.N,/USB_Output/RX_Output*%
X252900000Y-96340000D03*
%TD*%
D14*
%TO.P,J1,1,Pin_1*%
%TO.N,/WiFi/SCK1*%
X216340000Y-76200000D03*
D10*
%TO.P,J1,2,Pin_2*%
%TO.N,/WiFi/CS1*%
X213800000Y-76200000D03*
%TO.P,J1,3,Pin_3*%
%TO.N,/WiFi/MOSI*%
X211260000Y-76200000D03*
%TO.P,J1,4,Pin_4*%
%TO.N,/WiFi/MISO*%
X208720000Y-76200000D03*
%TD*%
D25*
%TO.P,J9,S5*%
%TO.N,N/C*%
X174662500Y-112900000D03*
%TO.P,J9,S6*%
X174662500Y-119500000D03*
%TD*%
D22*
%TO.P,SW3,1,1*%
%TO.N,Net-(U5-EN)*%
X179145100Y-83349999D03*
%TO.P,SW3,2*%
%TO.N,N/C*%
X179145100Y-89850001D03*
%TO.P,SW3,3*%
X174645099Y-83349999D03*
%TO.P,SW3,4,4*%
%TO.N,GND*%
X174645099Y-89850001D03*
%TD*%
%TO.P,SW1,1,1*%
%TO.N,GND*%
X246945100Y-97149999D03*
%TO.P,SW1,2*%
%TO.N,N/C*%
X246945100Y-103650001D03*
%TO.P,SW1,3*%
X242445099Y-97149999D03*
%TO.P,SW1,4,4*%
%TO.N,Net-(C1-Pad1)*%
X242445099Y-103650001D03*
%TD*%
D26*
%TO.N,+5V*%
X229400000Y-121100000D03*
X228200000Y-123100000D03*
%TO.N,GND*%
X194500000Y-85600000D03*
X253300000Y-108800000D03*
X217600000Y-80560000D03*
X180033177Y-121306364D03*
X212600000Y-95100000D03*
X197000000Y-84500000D03*
X216664373Y-101944000D03*
X193100000Y-80700000D03*
X195000000Y-119200000D03*
X242300000Y-108100000D03*
X248400000Y-76400000D03*
X201700000Y-134100000D03*
X244500000Y-89600000D03*
X192000000Y-81700000D03*
X218400000Y-77000000D03*
X182900000Y-84689500D03*
X225800000Y-79860000D03*
X174500000Y-106900000D03*
X214114500Y-111300000D03*
X193100000Y-85600000D03*
X175660000Y-92809998D03*
X220400000Y-111000000D03*
X231975007Y-123000000D03*
X270500000Y-126200000D03*
X225753954Y-85053954D03*
X235700000Y-130700000D03*
X257650000Y-102900000D03*
X206400000Y-75500000D03*
X227700000Y-115800000D03*
X228000000Y-127900000D03*
X220300000Y-96062500D03*
X252200000Y-86200000D03*
X238900000Y-96900000D03*
X192000000Y-83100000D03*
X189300000Y-115100000D03*
X212185500Y-112400000D03*
X197000000Y-81700000D03*
X238800000Y-78700000D03*
X192000000Y-84500000D03*
X195900000Y-85600000D03*
X196200000Y-97000000D03*
X250900000Y-87700000D03*
X266800000Y-116670500D03*
X174362500Y-124262500D03*
X234100000Y-104000000D03*
X180400000Y-108500000D03*
X197000000Y-83100000D03*
X223600000Y-95037500D03*
X195900000Y-80700000D03*
X189000000Y-94300000D03*
X226800000Y-94300000D03*
X178600000Y-117600000D03*
X217500000Y-111400000D03*
X258850000Y-101700000D03*
X184400000Y-116100000D03*
X194500000Y-80700000D03*
X218200000Y-89160000D03*
X183050000Y-75750000D03*
X242200000Y-119600000D03*
X207400000Y-96737500D03*
%TO.N,+3.3V*%
X183000000Y-79900000D03*
X196900000Y-124800000D03*
X223500000Y-93000000D03*
X236062500Y-102800000D03*
X197000000Y-122600000D03*
X178500000Y-124200000D03*
X209700000Y-96737500D03*
X175560000Y-107009998D03*
X221800000Y-114300000D03*
X240800000Y-103900000D03*
X244000000Y-79600000D03*
X234300000Y-80300000D03*
X239300000Y-83900000D03*
X249800000Y-105900000D03*
X199100000Y-134200000D03*
X206400000Y-107300000D03*
X220200000Y-93950000D03*
X253900000Y-117500000D03*
X212599500Y-97600000D03*
X249900000Y-79000000D03*
X244000000Y-88400000D03*
X212599500Y-100300000D03*
X218200000Y-85060000D03*
X178300000Y-127900000D03*
X216800000Y-91260000D03*
X249600000Y-100500000D03*
X232000000Y-80400000D03*
X181800000Y-83500000D03*
%TO.N,/Pump/Pump*%
X220400000Y-121200000D03*
X257100000Y-110400000D03*
%TO.N,/USB_Output/TX_Output*%
X229800000Y-101800000D03*
X216400000Y-120700000D03*
%TO.N,/USB_Output/RX_Output*%
X223200000Y-97200000D03*
%TO.N,/Sensors/Temp*%
X214100000Y-106500000D03*
X217700000Y-97100000D03*
%TO.N,Net-(J11-Pin_1)*%
X206400000Y-88000000D03*
%TO.N,Net-(U6-VBUS)*%
X181600000Y-126200000D03*
X184400000Y-112200000D03*
%TO.N,Net-(U5-EN)*%
X208000000Y-83500000D03*
X180995099Y-81500000D03*
%TO.N,Net-(U5-IO0)*%
X209700000Y-91610456D03*
X211000000Y-90400000D03*
%TO.N,Net-(J7-VBUS)*%
X222500000Y-82660000D03*
X224300000Y-79900000D03*
%TO.N,Net-(J9-D-)*%
X179000000Y-122500000D03*
X178700000Y-115100000D03*
%TO.N,Net-(D8-K)*%
X246000000Y-115400000D03*
X221300000Y-119100000D03*
%TO.N,Net-(IC1-~{MCLR})*%
X233300078Y-106299922D03*
%TO.N,Net-(IC1-PGC1{slash}OA1IN+_{slash}_AN4_{slash}_C1IN1+_{slash}_C1IN3-_{slash}_RPB2_{slash}_RB2)*%
X226914500Y-99000000D03*
%TO.N,Net-(IC1-PGD1{slash}OA1IN-_{slash}_AN5_{slash}_CTCMP_{slash}_C1IN1-_{slash}_RTCC_{slash}_RPB3_{slash}_RB3)*%
X226200000Y-97500000D03*
%TO.N,/WiFi/MOSI*%
X215700000Y-103373500D03*
X208500000Y-85700000D03*
%TO.N,Net-(D10-K)*%
X249600000Y-115100000D03*
X222100000Y-118000000D03*
%TO.N,/WiFi/CS1*%
X211129500Y-95500000D03*
X214388000Y-104088000D03*
%TO.N,/WiFi/SCK1*%
X211700000Y-81300000D03*
X206599500Y-85600000D03*
X216400000Y-105500000D03*
%TO.N,Net-(U4-DTR)*%
X228200000Y-86100000D03*
X214900000Y-88600000D03*
%TO.N,Net-(U4-RTS)*%
X215900000Y-80200000D03*
X228400000Y-89300000D03*
%TO.N,Net-(U4-CTS)*%
X230800000Y-80300000D03*
X228200000Y-90300000D03*
%TO.N,Net-(J11-Pin_2)*%
X206300000Y-89400000D03*
%TO.N,Net-(U4-RXD)*%
X228494772Y-88205228D03*
X206200000Y-79300000D03*
%TO.N,Net-(U4-TXD)*%
X206200000Y-80500000D03*
X228491578Y-87118879D03*
%TO.N,/WiFi/MISO*%
X206400000Y-84300000D03*
X221100000Y-109600000D03*
%TO.N,Net-(J11-Pin_3)*%
X206300000Y-90700000D03*
%TO.N,Net-(U5-IO14)*%
X185700000Y-90700000D03*
X179700000Y-93000000D03*
%TO.N,Net-(U5-IO13)*%
X191600000Y-94900000D03*
X178400000Y-93000000D03*
%TO.N,Net-(U8-\u002ASRCLR)*%
X235300000Y-123100000D03*
X226400000Y-127900000D03*
%TO.N,Net-(D7-Pad5)*%
X267000000Y-132800000D03*
%TO.N,Net-(D7-Pad6)*%
X265900000Y-132100000D03*
%TO.N,Net-(D7-Pad12)*%
X268594772Y-132394772D03*
%TO.N,Net-(D7-Pad15)*%
X229700000Y-137500000D03*
%TO.N,Net-(D7-Pad16)*%
X231100000Y-138800000D03*
%TO.N,Net-(D7-Pad17)*%
X235900000Y-137600000D03*
%TO.N,Net-(U9-QA)*%
X263500000Y-127900000D03*
X263655228Y-123144772D03*
%TO.N,Net-(U7-1Y2)*%
X267200000Y-118100000D03*
X232560479Y-122000000D03*
%TO.N,Net-(U7-1Y1)*%
X234100000Y-121114500D03*
X268400000Y-118200000D03*
%TD*%
D27*
%TO.N,+5V*%
X231761000Y-120400000D02*
X253300000Y-120400000D01*
X229400000Y-121100000D02*
X230100000Y-120400000D01*
X229139000Y-122161000D02*
X230000000Y-122161000D01*
X228200000Y-123100000D02*
X229139000Y-122161000D01*
X253300000Y-120400000D02*
X266030000Y-107670000D01*
D28*
X267400000Y-100050000D02*
X267400000Y-102590000D01*
X267400000Y-105130000D02*
X267400000Y-107670000D01*
X267400000Y-102590000D02*
X267400000Y-105130000D01*
D27*
X230000000Y-122161000D02*
X231761000Y-120400000D01*
D28*
X267400000Y-97510000D02*
X267400000Y-100050000D01*
D27*
X266030000Y-107670000D02*
X267400000Y-107670000D01*
D28*
X267400000Y-94970000D02*
X267400000Y-97510000D01*
X260842500Y-88412500D02*
X267400000Y-94970000D01*
D27*
X230100000Y-120400000D02*
X231761000Y-120400000D01*
%TO.N,/Pump/Pump*%
X224500000Y-121200000D02*
X226815000Y-118885000D01*
X224500000Y-121200000D02*
X220400000Y-121200000D01*
X257100000Y-110400000D02*
X248615000Y-118885000D01*
X248615000Y-118885000D02*
X226815000Y-118885000D01*
%TO.N,/Sensors/WaterLevel*%
X198045000Y-116400000D02*
X200245000Y-114200000D01*
X200245000Y-114200000D02*
X208040000Y-114200000D01*
X208040000Y-114200000D02*
X210440000Y-116600000D01*
%TO.N,/USB_Output/TX_Output*%
X217725000Y-119375000D02*
X219569508Y-119375000D01*
X226740000Y-105860000D02*
X229800000Y-102800000D01*
X226740000Y-112204508D02*
X226740000Y-105860000D01*
X252900000Y-93800000D02*
X244900000Y-101800000D01*
X229800000Y-102800000D02*
X229800000Y-101800000D01*
X219569508Y-119375000D02*
X226740000Y-112204508D01*
X216400000Y-120700000D02*
X217725000Y-119375000D01*
X244900000Y-101800000D02*
X229800000Y-101800000D01*
%TO.N,/USB_Output/RX_Output*%
X254065000Y-92765000D02*
X253935000Y-92635000D01*
X252900000Y-96340000D02*
X254065000Y-95175000D01*
X237765000Y-92635000D02*
X233615000Y-96785000D01*
X233615000Y-96785000D02*
X223615000Y-96785000D01*
X254065000Y-95175000D02*
X254065000Y-92765000D01*
X223615000Y-96785000D02*
X223200000Y-97200000D01*
X253935000Y-92635000D02*
X237765000Y-92635000D01*
%TO.N,/Sensors/Temp*%
X216711163Y-106500000D02*
X217800000Y-105411163D01*
X217800000Y-97200000D02*
X217700000Y-97100000D01*
X217800000Y-105411163D02*
X217800000Y-97200000D01*
X214100000Y-106500000D02*
X216711163Y-106500000D01*
%TO.N,Net-(J11-Pin_1)*%
X206400000Y-88000000D02*
X202775000Y-91625000D01*
X202775000Y-91625000D02*
X202775000Y-110170000D01*
%TO.N,Net-(U6-VBUS)*%
X181000000Y-115600000D02*
X181000000Y-125600000D01*
X181000000Y-125600000D02*
X181600000Y-126200000D01*
X184400000Y-112200000D02*
X181000000Y-115600000D01*
%TO.N,Net-(U5-EN)*%
X208000000Y-83500000D02*
X205300000Y-83500000D01*
X205300000Y-83500000D02*
X201500000Y-79700000D01*
X181510099Y-80985000D02*
X180995099Y-81500000D01*
X191000000Y-79700000D02*
X189715000Y-80985000D01*
X201500000Y-79700000D02*
X191000000Y-79700000D01*
X189715000Y-80985000D02*
X181510099Y-80985000D01*
%TO.N,Net-(U5-IO0)*%
X209789544Y-91610456D02*
X211000000Y-90400000D01*
X209700000Y-91610456D02*
X209789544Y-91610456D01*
%TO.N,Net-(J7-VBUS)*%
X224300000Y-79900000D02*
X223800000Y-80400000D01*
X223800000Y-80400000D02*
X223800000Y-81360000D01*
X223800000Y-81360000D02*
X222500000Y-82660000D01*
%TO.N,Net-(J9-D-)*%
X179315000Y-117896163D02*
X179315000Y-115715000D01*
X179315000Y-115715000D02*
X178700000Y-115100000D01*
X179300000Y-122200000D02*
X179300000Y-117911163D01*
X179000000Y-122500000D02*
X179300000Y-122200000D01*
X179300000Y-117911163D02*
X179315000Y-117896163D01*
%TO.N,Net-(D8-K)*%
X233611319Y-105600000D02*
X242500000Y-105600000D01*
X242500000Y-105600000D02*
X246000000Y-109100000D01*
X230315078Y-105584922D02*
X233596241Y-105584922D01*
X228000000Y-113500000D02*
X228000000Y-107900000D01*
X221300000Y-119100000D02*
X222400000Y-119100000D01*
X246000000Y-109100000D02*
X246000000Y-115400000D01*
X228000000Y-107900000D02*
X230315078Y-105584922D01*
X222400000Y-119100000D02*
X228000000Y-113500000D01*
X233596241Y-105584922D02*
X233611319Y-105600000D01*
%TO.N,Net-(IC1-~{MCLR})*%
X233300078Y-106299922D02*
X232850078Y-106749922D01*
X232850078Y-106749922D02*
X232850078Y-109272176D01*
X208035000Y-131365000D02*
X208035000Y-137265000D01*
X222307254Y-119815000D02*
X219585000Y-119815000D01*
X206900000Y-138400000D02*
X198600000Y-138400000D01*
X208035000Y-137265000D02*
X206900000Y-138400000D01*
X219585000Y-119815000D02*
X208035000Y-131365000D01*
X198600000Y-138400000D02*
X196500000Y-136300000D01*
X232850078Y-109272176D02*
X222307254Y-119815000D01*
%TO.N,Net-(IC1-PGC1{slash}OA1IN+_{slash}_AN4_{slash}_C1IN1+_{slash}_C1IN3-_{slash}_RPB2_{slash}_RB2)*%
X226914500Y-99000000D02*
X226639500Y-99275000D01*
X226639500Y-99275000D02*
X226639500Y-99478417D01*
X219197254Y-116625000D02*
X206800000Y-129022254D01*
X206800000Y-129022254D02*
X206800000Y-136160000D01*
X221697254Y-116625000D02*
X219197254Y-116625000D01*
X226639500Y-99478417D02*
X226300000Y-99817917D01*
X226300000Y-112022254D02*
X221697254Y-116625000D01*
X226300000Y-99817917D02*
X226300000Y-112022254D01*
%TO.N,Net-(IC1-PGD1{slash}OA1IN-_{slash}_AN5_{slash}_CTCMP_{slash}_C1IN1-_{slash}_RTCC_{slash}_RPB3_{slash}_RB3)*%
X221515000Y-116185000D02*
X219015000Y-116185000D01*
X209535000Y-125635000D02*
X209500000Y-125600000D01*
X204120000Y-131080000D02*
X204120000Y-136300000D01*
X209500000Y-125600000D02*
X209500000Y-125700000D01*
X225200000Y-98500000D02*
X225200000Y-112500000D01*
X209500000Y-125700000D02*
X204120000Y-131080000D01*
X219015000Y-116185000D02*
X209565000Y-125635000D01*
X209565000Y-125635000D02*
X209535000Y-125635000D01*
X226200000Y-97500000D02*
X225200000Y-98500000D01*
X225200000Y-112500000D02*
X221515000Y-116185000D01*
%TO.N,/WiFi/MOSI*%
X211885000Y-101985000D02*
X211885000Y-94803837D01*
X211900000Y-94788837D02*
X211900000Y-89100000D01*
X211900000Y-89100000D02*
X208500000Y-85700000D01*
X213273500Y-103373500D02*
X211885000Y-101985000D01*
X215700000Y-103373500D02*
X213273500Y-103373500D01*
X211885000Y-94803837D02*
X211900000Y-94788837D01*
%TO.N,Net-(D10-K)*%
X242667176Y-105144922D02*
X230035078Y-105144922D01*
X249600000Y-115100000D02*
X249600000Y-112077746D01*
X230035078Y-105144922D02*
X227180000Y-108000000D01*
X227180000Y-112920000D02*
X222100000Y-118000000D01*
X249600000Y-112077746D02*
X242667176Y-105144922D01*
X227180000Y-108000000D02*
X227180000Y-112920000D01*
%TO.N,/WiFi/CS1*%
X211129500Y-101851754D02*
X211129500Y-95500000D01*
X213365746Y-104088000D02*
X211129500Y-101851754D01*
X214388000Y-104088000D02*
X213365746Y-104088000D01*
%TO.N,/WiFi/SCK1*%
X206599500Y-85600000D02*
X207300000Y-85600000D01*
X211600000Y-81300000D02*
X211700000Y-81300000D01*
X208240000Y-100640000D02*
X208240000Y-87240500D01*
X216400000Y-105500000D02*
X213100000Y-105500000D01*
X213100000Y-105500000D02*
X208240000Y-100640000D01*
X207300000Y-85600000D02*
X211600000Y-81300000D01*
X208240000Y-87240500D02*
X206599500Y-85600000D01*
%TO.N,Net-(U4-DTR)*%
X214900000Y-88600000D02*
X217400000Y-86100000D01*
X217400000Y-86100000D02*
X228200000Y-86100000D01*
%TO.N,Net-(U4-RTS)*%
X217000000Y-79100000D02*
X215900000Y-80200000D01*
X230180000Y-83228837D02*
X226051163Y-79100000D01*
X228400000Y-89300000D02*
X228411163Y-89300000D01*
X228411163Y-89300000D02*
X230180000Y-87531163D01*
X230180000Y-87531163D02*
X230180000Y-83228837D01*
X226051163Y-79100000D02*
X217000000Y-79100000D01*
%TO.N,Net-(U4-CTS)*%
X230800000Y-87911163D02*
X230800000Y-80300000D01*
X228411163Y-90300000D02*
X230800000Y-87911163D01*
X228200000Y-90300000D02*
X228411163Y-90300000D01*
%TO.N,Net-(J11-Pin_2)*%
X206300000Y-89400000D02*
X205315000Y-90385000D01*
X205315000Y-90385000D02*
X205315000Y-96608106D01*
X205315000Y-96608106D02*
X205519000Y-96812106D01*
X205519000Y-96812106D02*
X205519000Y-110226000D01*
%TO.N,Net-(U4-RXD)*%
X229740000Y-84740000D02*
X228700000Y-83700000D01*
X213300000Y-79300000D02*
X206200000Y-79300000D01*
X217700000Y-83700000D02*
X213300000Y-79300000D01*
X228494772Y-88205228D02*
X229740000Y-86960000D01*
X229740000Y-86960000D02*
X229740000Y-84740000D01*
X228700000Y-83700000D02*
X217700000Y-83700000D01*
%TO.N,Net-(U4-TXD)*%
X229300000Y-85000000D02*
X228440000Y-84140000D01*
X229300000Y-86310457D02*
X229300000Y-85000000D01*
X213877746Y-80500000D02*
X206200000Y-80500000D01*
X228440000Y-84140000D02*
X217517746Y-84140000D01*
X228491578Y-87118879D02*
X229300000Y-86310457D01*
X217517746Y-84140000D02*
X213877746Y-80500000D01*
%TO.N,/WiFi/MISO*%
X207800000Y-87811663D02*
X207800000Y-95326337D01*
X206685000Y-96441337D02*
X206685000Y-100185000D01*
X205884500Y-84815500D02*
X205884500Y-85896163D01*
X216100000Y-109600000D02*
X221100000Y-109600000D01*
X206685000Y-100185000D02*
X216100000Y-109600000D01*
X206400000Y-84300000D02*
X205884500Y-84815500D01*
X205884500Y-85896163D02*
X207800000Y-87811663D01*
X207800000Y-95326337D02*
X206685000Y-96441337D01*
%TO.N,Net-(J11-Pin_3)*%
X206100000Y-105988837D02*
X207855000Y-107743837D01*
X206300000Y-90700000D02*
X206100000Y-90900000D01*
X207855000Y-107743837D02*
X207855000Y-110600000D01*
X206100000Y-90900000D02*
X206100000Y-105988837D01*
%TO.N,Net-(U5-IO14)*%
X185700000Y-90700000D02*
X183400000Y-93000000D01*
X183400000Y-93000000D02*
X179700000Y-93000000D01*
%TO.N,Net-(U5-IO13)*%
X180500000Y-95100000D02*
X178400000Y-93000000D01*
X191400000Y-95100000D02*
X180500000Y-95100000D01*
X191600000Y-94900000D02*
X191400000Y-95100000D01*
%TO.N,Net-(U8-\u002ASRCLR)*%
X227115000Y-127185000D02*
X234715000Y-127185000D01*
X235300000Y-126600000D02*
X235300000Y-123100000D01*
X234715000Y-127185000D02*
X235300000Y-126600000D01*
X226400000Y-127900000D02*
X227115000Y-127185000D01*
%TO.N,Net-(D7-Pad5)*%
X267000000Y-132800000D02*
X262899000Y-136901000D01*
X252020663Y-139239000D02*
X250019000Y-139239000D01*
X250019000Y-139239000D02*
X249100000Y-138320000D01*
X252559000Y-138641337D02*
X252559000Y-138700663D01*
X262899000Y-136901000D02*
X254299337Y-136901000D01*
X252559000Y-138700663D02*
X252020663Y-139239000D01*
X254299337Y-136901000D02*
X252559000Y-138641337D01*
%TO.N,Net-(D7-Pad6)*%
X265900000Y-132100000D02*
X257860000Y-132100000D01*
X257860000Y-132100000D02*
X251640000Y-138320000D01*
%TO.N,Net-(D7-Pad12)*%
X267585000Y-131385000D02*
X262485000Y-131385000D01*
X262485000Y-131385000D02*
X254180000Y-123080000D01*
X268594772Y-132394772D02*
X267585000Y-131385000D01*
%TO.N,Net-(D7-Pad15)*%
X235800000Y-139600000D02*
X246560000Y-128840000D01*
X229700000Y-138900000D02*
X230400000Y-139600000D01*
X246560000Y-128840000D02*
X246560000Y-123080000D01*
X229700000Y-137500000D02*
X229700000Y-138900000D01*
X230400000Y-139600000D02*
X235800000Y-139600000D01*
%TO.N,Net-(D7-Pad16)*%
X244020000Y-130491163D02*
X244020000Y-123080000D01*
X231100000Y-138800000D02*
X235711163Y-138800000D01*
X235711163Y-138800000D02*
X244020000Y-130491163D01*
%TO.N,Net-(D7-Pad17)*%
X235900000Y-137600000D02*
X241480000Y-132020000D01*
X241480000Y-132020000D02*
X241480000Y-123080000D01*
%TO.N,Net-(U9-QA)*%
X263655228Y-123144772D02*
X263500000Y-123300000D01*
X263500000Y-123300000D02*
X263500000Y-127900000D01*
%TO.N,Net-(U7-1Y2)*%
X232660479Y-121900000D02*
X232560479Y-122000000D01*
X263400000Y-121900000D02*
X232660479Y-121900000D01*
X267200000Y-118100000D02*
X263400000Y-121900000D01*
%TO.N,Net-(U7-1Y1)*%
X268400000Y-118200000D02*
X267585000Y-117385000D01*
X262485500Y-121114500D02*
X234100000Y-121114500D01*
X267585000Y-117385000D02*
X266215000Y-117385000D01*
X266215000Y-117385000D02*
X262485500Y-121114500D01*
D29*
%TO.N,Net-(U10-Pad2)*%
X184609000Y-166800000D02*
X225831000Y-166800000D01*
%TO.N,Net-(U11-Pad2)*%
X260491000Y-150800000D02*
X219269000Y-150800000D01*
%TD*%
M02*
