%TF.GenerationSoftware,KiCad,Pcbnew,7.0.6*%
%TF.CreationDate,2023-11-01T15:52:36-07:00*%
%TF.ProjectId,Deliverable4_schematics,44656c69-7665-4726-9162-6c65345f7363,rev?*%
%TF.SameCoordinates,Original*%
%TF.FileFunction,Drillmap*%
%TF.FilePolarity,Positive*%
%FSLAX45Y45*%
G04 Gerber Fmt 4.5, Leading zero omitted, Abs format (unit mm)*
G04 Created by KiCad (PCBNEW 7.0.6) date 2023-11-01 15:52:36*
%MOMM*%
%LPD*%
G01*
G04 APERTURE LIST*
%ADD10C,0.100000*%
%ADD11C,0.200000*%
%ADD12C,0.320000*%
G04 APERTURE END LIST*
D10*
X26850000Y-7430000D02*
X17680000Y-7430000D01*
X27200000Y-16670000D02*
X27200000Y-13740000D01*
X18140000Y-15990000D02*
X26350000Y-15990000D01*
X26330000Y-14100000D02*
X18270000Y-14100000D01*
X27200000Y-7780000D02*
G75*
G03*
X26850000Y-7430000I-350000J0D01*
G01*
X17300000Y-15090000D02*
X17300000Y-16000000D01*
X17300000Y-17210000D02*
X17300000Y-16000000D01*
X18140000Y-15770000D02*
G75*
G03*
X18140000Y-15990000I0J-110000D01*
G01*
X26320025Y-14379644D02*
G75*
G03*
X26330000Y-14100000I9975J139644D01*
G01*
X27200000Y-16670000D02*
X26370000Y-17360000D01*
X17680000Y-7430000D02*
G75*
G03*
X17301119Y-7780855I0J-380000D01*
G01*
X27200000Y-13740000D02*
X27200000Y-7780000D01*
X26350000Y-15770000D02*
X18140000Y-15770000D01*
X17301119Y-7780855D02*
X17300000Y-13720000D01*
X17300000Y-15090000D02*
X17300000Y-13720000D01*
X18270000Y-14100000D02*
G75*
G03*
X18270000Y-14380000I0J-140000D01*
G01*
X17300000Y-17210000D02*
G75*
G03*
X17450000Y-17360000I150000J0D01*
G01*
X26350000Y-15990000D02*
G75*
G03*
X26350000Y-15770000I0J110000D01*
G01*
X26320000Y-14380000D02*
X18270000Y-14380000D01*
X26370000Y-17360000D02*
X17450000Y-17360000D01*
D11*
D12*
X17510000Y-7640000D02*
X17830000Y-7960000D01*
X17830000Y-7640000D02*
X17510000Y-7960000D01*
X17510000Y-13570000D02*
X17830000Y-13890000D01*
X17830000Y-13570000D02*
X17510000Y-13890000D01*
X26680000Y-7640000D02*
X27000000Y-7960000D01*
X27000000Y-7640000D02*
X26680000Y-7960000D01*
X26680000Y-13570000D02*
X27000000Y-13890000D01*
X27000000Y-13570000D02*
X26680000Y-13890000D01*
D11*
X17555777Y-17676484D02*
X17555777Y-17476484D01*
X17555777Y-17476484D02*
X17603396Y-17476484D01*
X17603396Y-17476484D02*
X17631967Y-17486008D01*
X17631967Y-17486008D02*
X17651015Y-17505055D01*
X17651015Y-17505055D02*
X17660539Y-17524103D01*
X17660539Y-17524103D02*
X17670063Y-17562198D01*
X17670063Y-17562198D02*
X17670063Y-17590770D01*
X17670063Y-17590770D02*
X17660539Y-17628865D01*
X17660539Y-17628865D02*
X17651015Y-17647912D01*
X17651015Y-17647912D02*
X17631967Y-17666960D01*
X17631967Y-17666960D02*
X17603396Y-17676484D01*
X17603396Y-17676484D02*
X17555777Y-17676484D01*
X17755777Y-17676484D02*
X17755777Y-17543150D01*
X17755777Y-17581246D02*
X17765301Y-17562198D01*
X17765301Y-17562198D02*
X17774824Y-17552674D01*
X17774824Y-17552674D02*
X17793872Y-17543150D01*
X17793872Y-17543150D02*
X17812920Y-17543150D01*
X17879586Y-17676484D02*
X17879586Y-17543150D01*
X17879586Y-17476484D02*
X17870063Y-17486008D01*
X17870063Y-17486008D02*
X17879586Y-17495531D01*
X17879586Y-17495531D02*
X17889110Y-17486008D01*
X17889110Y-17486008D02*
X17879586Y-17476484D01*
X17879586Y-17476484D02*
X17879586Y-17495531D01*
X18003396Y-17676484D02*
X17984348Y-17666960D01*
X17984348Y-17666960D02*
X17974824Y-17647912D01*
X17974824Y-17647912D02*
X17974824Y-17476484D01*
X18108158Y-17676484D02*
X18089110Y-17666960D01*
X18089110Y-17666960D02*
X18079586Y-17647912D01*
X18079586Y-17647912D02*
X18079586Y-17476484D01*
X18336729Y-17676484D02*
X18336729Y-17476484D01*
X18336729Y-17476484D02*
X18403396Y-17619341D01*
X18403396Y-17619341D02*
X18470063Y-17476484D01*
X18470063Y-17476484D02*
X18470063Y-17676484D01*
X18651015Y-17676484D02*
X18651015Y-17571722D01*
X18651015Y-17571722D02*
X18641491Y-17552674D01*
X18641491Y-17552674D02*
X18622444Y-17543150D01*
X18622444Y-17543150D02*
X18584348Y-17543150D01*
X18584348Y-17543150D02*
X18565301Y-17552674D01*
X18651015Y-17666960D02*
X18631967Y-17676484D01*
X18631967Y-17676484D02*
X18584348Y-17676484D01*
X18584348Y-17676484D02*
X18565301Y-17666960D01*
X18565301Y-17666960D02*
X18555777Y-17647912D01*
X18555777Y-17647912D02*
X18555777Y-17628865D01*
X18555777Y-17628865D02*
X18565301Y-17609817D01*
X18565301Y-17609817D02*
X18584348Y-17600293D01*
X18584348Y-17600293D02*
X18631967Y-17600293D01*
X18631967Y-17600293D02*
X18651015Y-17590770D01*
X18746253Y-17543150D02*
X18746253Y-17743150D01*
X18746253Y-17552674D02*
X18765301Y-17543150D01*
X18765301Y-17543150D02*
X18803396Y-17543150D01*
X18803396Y-17543150D02*
X18822444Y-17552674D01*
X18822444Y-17552674D02*
X18831967Y-17562198D01*
X18831967Y-17562198D02*
X18841491Y-17581246D01*
X18841491Y-17581246D02*
X18841491Y-17638389D01*
X18841491Y-17638389D02*
X18831967Y-17657436D01*
X18831967Y-17657436D02*
X18822444Y-17666960D01*
X18822444Y-17666960D02*
X18803396Y-17676484D01*
X18803396Y-17676484D02*
X18765301Y-17676484D01*
X18765301Y-17676484D02*
X18746253Y-17666960D01*
X18927205Y-17657436D02*
X18936729Y-17666960D01*
X18936729Y-17666960D02*
X18927205Y-17676484D01*
X18927205Y-17676484D02*
X18917682Y-17666960D01*
X18917682Y-17666960D02*
X18927205Y-17657436D01*
X18927205Y-17657436D02*
X18927205Y-17676484D01*
X18927205Y-17552674D02*
X18936729Y-17562198D01*
X18936729Y-17562198D02*
X18927205Y-17571722D01*
X18927205Y-17571722D02*
X18917682Y-17562198D01*
X18917682Y-17562198D02*
X18927205Y-17552674D01*
X18927205Y-17552674D02*
X18927205Y-17571722D01*
X17095000Y-17905000D02*
X17295000Y-18105000D01*
X17295000Y-17905000D02*
X17095000Y-18105000D01*
X17536729Y-17896484D02*
X17660539Y-17896484D01*
X17660539Y-17896484D02*
X17593872Y-17972674D01*
X17593872Y-17972674D02*
X17622444Y-17972674D01*
X17622444Y-17972674D02*
X17641491Y-17982198D01*
X17641491Y-17982198D02*
X17651015Y-17991722D01*
X17651015Y-17991722D02*
X17660539Y-18010770D01*
X17660539Y-18010770D02*
X17660539Y-18058389D01*
X17660539Y-18058389D02*
X17651015Y-18077436D01*
X17651015Y-18077436D02*
X17641491Y-18086960D01*
X17641491Y-18086960D02*
X17622444Y-18096484D01*
X17622444Y-18096484D02*
X17565301Y-18096484D01*
X17565301Y-18096484D02*
X17546253Y-18086960D01*
X17546253Y-18086960D02*
X17536729Y-18077436D01*
X17746253Y-18077436D02*
X17755777Y-18086960D01*
X17755777Y-18086960D02*
X17746253Y-18096484D01*
X17746253Y-18096484D02*
X17736729Y-18086960D01*
X17736729Y-18086960D02*
X17746253Y-18077436D01*
X17746253Y-18077436D02*
X17746253Y-18096484D01*
X17831967Y-17915531D02*
X17841491Y-17906008D01*
X17841491Y-17906008D02*
X17860539Y-17896484D01*
X17860539Y-17896484D02*
X17908158Y-17896484D01*
X17908158Y-17896484D02*
X17927205Y-17906008D01*
X17927205Y-17906008D02*
X17936729Y-17915531D01*
X17936729Y-17915531D02*
X17946253Y-17934579D01*
X17946253Y-17934579D02*
X17946253Y-17953627D01*
X17946253Y-17953627D02*
X17936729Y-17982198D01*
X17936729Y-17982198D02*
X17822444Y-18096484D01*
X17822444Y-18096484D02*
X17946253Y-18096484D01*
X18070063Y-17896484D02*
X18089110Y-17896484D01*
X18089110Y-17896484D02*
X18108158Y-17906008D01*
X18108158Y-17906008D02*
X18117682Y-17915531D01*
X18117682Y-17915531D02*
X18127205Y-17934579D01*
X18127205Y-17934579D02*
X18136729Y-17972674D01*
X18136729Y-17972674D02*
X18136729Y-18020293D01*
X18136729Y-18020293D02*
X18127205Y-18058389D01*
X18127205Y-18058389D02*
X18117682Y-18077436D01*
X18117682Y-18077436D02*
X18108158Y-18086960D01*
X18108158Y-18086960D02*
X18089110Y-18096484D01*
X18089110Y-18096484D02*
X18070063Y-18096484D01*
X18070063Y-18096484D02*
X18051015Y-18086960D01*
X18051015Y-18086960D02*
X18041491Y-18077436D01*
X18041491Y-18077436D02*
X18031967Y-18058389D01*
X18031967Y-18058389D02*
X18022444Y-18020293D01*
X18022444Y-18020293D02*
X18022444Y-17972674D01*
X18022444Y-17972674D02*
X18031967Y-17934579D01*
X18031967Y-17934579D02*
X18041491Y-17915531D01*
X18041491Y-17915531D02*
X18051015Y-17906008D01*
X18051015Y-17906008D02*
X18070063Y-17896484D01*
X18260539Y-17896484D02*
X18279586Y-17896484D01*
X18279586Y-17896484D02*
X18298634Y-17906008D01*
X18298634Y-17906008D02*
X18308158Y-17915531D01*
X18308158Y-17915531D02*
X18317682Y-17934579D01*
X18317682Y-17934579D02*
X18327205Y-17972674D01*
X18327205Y-17972674D02*
X18327205Y-18020293D01*
X18327205Y-18020293D02*
X18317682Y-18058389D01*
X18317682Y-18058389D02*
X18308158Y-18077436D01*
X18308158Y-18077436D02*
X18298634Y-18086960D01*
X18298634Y-18086960D02*
X18279586Y-18096484D01*
X18279586Y-18096484D02*
X18260539Y-18096484D01*
X18260539Y-18096484D02*
X18241491Y-18086960D01*
X18241491Y-18086960D02*
X18231967Y-18077436D01*
X18231967Y-18077436D02*
X18222444Y-18058389D01*
X18222444Y-18058389D02*
X18212920Y-18020293D01*
X18212920Y-18020293D02*
X18212920Y-17972674D01*
X18212920Y-17972674D02*
X18222444Y-17934579D01*
X18222444Y-17934579D02*
X18231967Y-17915531D01*
X18231967Y-17915531D02*
X18241491Y-17906008D01*
X18241491Y-17906008D02*
X18260539Y-17896484D01*
X18412920Y-18096484D02*
X18412920Y-17963150D01*
X18412920Y-17982198D02*
X18422444Y-17972674D01*
X18422444Y-17972674D02*
X18441491Y-17963150D01*
X18441491Y-17963150D02*
X18470063Y-17963150D01*
X18470063Y-17963150D02*
X18489110Y-17972674D01*
X18489110Y-17972674D02*
X18498634Y-17991722D01*
X18498634Y-17991722D02*
X18498634Y-18096484D01*
X18498634Y-17991722D02*
X18508158Y-17972674D01*
X18508158Y-17972674D02*
X18527205Y-17963150D01*
X18527205Y-17963150D02*
X18555777Y-17963150D01*
X18555777Y-17963150D02*
X18574825Y-17972674D01*
X18574825Y-17972674D02*
X18584348Y-17991722D01*
X18584348Y-17991722D02*
X18584348Y-18096484D01*
X18679586Y-18096484D02*
X18679586Y-17963150D01*
X18679586Y-17982198D02*
X18689110Y-17972674D01*
X18689110Y-17972674D02*
X18708158Y-17963150D01*
X18708158Y-17963150D02*
X18736729Y-17963150D01*
X18736729Y-17963150D02*
X18755777Y-17972674D01*
X18755777Y-17972674D02*
X18765301Y-17991722D01*
X18765301Y-17991722D02*
X18765301Y-18096484D01*
X18765301Y-17991722D02*
X18774825Y-17972674D01*
X18774825Y-17972674D02*
X18793872Y-17963150D01*
X18793872Y-17963150D02*
X18822444Y-17963150D01*
X18822444Y-17963150D02*
X18841491Y-17972674D01*
X18841491Y-17972674D02*
X18851015Y-17991722D01*
X18851015Y-17991722D02*
X18851015Y-18096484D01*
X19241491Y-17886960D02*
X19070063Y-18144103D01*
X19498634Y-17896484D02*
X19517682Y-17896484D01*
X19517682Y-17896484D02*
X19536729Y-17906008D01*
X19536729Y-17906008D02*
X19546253Y-17915531D01*
X19546253Y-17915531D02*
X19555777Y-17934579D01*
X19555777Y-17934579D02*
X19565301Y-17972674D01*
X19565301Y-17972674D02*
X19565301Y-18020293D01*
X19565301Y-18020293D02*
X19555777Y-18058389D01*
X19555777Y-18058389D02*
X19546253Y-18077436D01*
X19546253Y-18077436D02*
X19536729Y-18086960D01*
X19536729Y-18086960D02*
X19517682Y-18096484D01*
X19517682Y-18096484D02*
X19498634Y-18096484D01*
X19498634Y-18096484D02*
X19479587Y-18086960D01*
X19479587Y-18086960D02*
X19470063Y-18077436D01*
X19470063Y-18077436D02*
X19460539Y-18058389D01*
X19460539Y-18058389D02*
X19451015Y-18020293D01*
X19451015Y-18020293D02*
X19451015Y-17972674D01*
X19451015Y-17972674D02*
X19460539Y-17934579D01*
X19460539Y-17934579D02*
X19470063Y-17915531D01*
X19470063Y-17915531D02*
X19479587Y-17906008D01*
X19479587Y-17906008D02*
X19498634Y-17896484D01*
X19651015Y-18077436D02*
X19660539Y-18086960D01*
X19660539Y-18086960D02*
X19651015Y-18096484D01*
X19651015Y-18096484D02*
X19641491Y-18086960D01*
X19641491Y-18086960D02*
X19651015Y-18077436D01*
X19651015Y-18077436D02*
X19651015Y-18096484D01*
X19851015Y-18096484D02*
X19736729Y-18096484D01*
X19793872Y-18096484D02*
X19793872Y-17896484D01*
X19793872Y-17896484D02*
X19774825Y-17925055D01*
X19774825Y-17925055D02*
X19755777Y-17944103D01*
X19755777Y-17944103D02*
X19736729Y-17953627D01*
X19927206Y-17915531D02*
X19936729Y-17906008D01*
X19936729Y-17906008D02*
X19955777Y-17896484D01*
X19955777Y-17896484D02*
X20003396Y-17896484D01*
X20003396Y-17896484D02*
X20022444Y-17906008D01*
X20022444Y-17906008D02*
X20031968Y-17915531D01*
X20031968Y-17915531D02*
X20041491Y-17934579D01*
X20041491Y-17934579D02*
X20041491Y-17953627D01*
X20041491Y-17953627D02*
X20031968Y-17982198D01*
X20031968Y-17982198D02*
X19917682Y-18096484D01*
X19917682Y-18096484D02*
X20041491Y-18096484D01*
X20212920Y-17896484D02*
X20174825Y-17896484D01*
X20174825Y-17896484D02*
X20155777Y-17906008D01*
X20155777Y-17906008D02*
X20146253Y-17915531D01*
X20146253Y-17915531D02*
X20127206Y-17944103D01*
X20127206Y-17944103D02*
X20117682Y-17982198D01*
X20117682Y-17982198D02*
X20117682Y-18058389D01*
X20117682Y-18058389D02*
X20127206Y-18077436D01*
X20127206Y-18077436D02*
X20136729Y-18086960D01*
X20136729Y-18086960D02*
X20155777Y-18096484D01*
X20155777Y-18096484D02*
X20193872Y-18096484D01*
X20193872Y-18096484D02*
X20212920Y-18086960D01*
X20212920Y-18086960D02*
X20222444Y-18077436D01*
X20222444Y-18077436D02*
X20231968Y-18058389D01*
X20231968Y-18058389D02*
X20231968Y-18010770D01*
X20231968Y-18010770D02*
X20222444Y-17991722D01*
X20222444Y-17991722D02*
X20212920Y-17982198D01*
X20212920Y-17982198D02*
X20193872Y-17972674D01*
X20193872Y-17972674D02*
X20155777Y-17972674D01*
X20155777Y-17972674D02*
X20136729Y-17982198D01*
X20136729Y-17982198D02*
X20127206Y-17991722D01*
X20127206Y-17991722D02*
X20117682Y-18010770D01*
X20355777Y-17896484D02*
X20374825Y-17896484D01*
X20374825Y-17896484D02*
X20393872Y-17906008D01*
X20393872Y-17906008D02*
X20403396Y-17915531D01*
X20403396Y-17915531D02*
X20412920Y-17934579D01*
X20412920Y-17934579D02*
X20422444Y-17972674D01*
X20422444Y-17972674D02*
X20422444Y-18020293D01*
X20422444Y-18020293D02*
X20412920Y-18058389D01*
X20412920Y-18058389D02*
X20403396Y-18077436D01*
X20403396Y-18077436D02*
X20393872Y-18086960D01*
X20393872Y-18086960D02*
X20374825Y-18096484D01*
X20374825Y-18096484D02*
X20355777Y-18096484D01*
X20355777Y-18096484D02*
X20336729Y-18086960D01*
X20336729Y-18086960D02*
X20327206Y-18077436D01*
X20327206Y-18077436D02*
X20317682Y-18058389D01*
X20317682Y-18058389D02*
X20308158Y-18020293D01*
X20308158Y-18020293D02*
X20308158Y-17972674D01*
X20308158Y-17972674D02*
X20317682Y-17934579D01*
X20317682Y-17934579D02*
X20327206Y-17915531D01*
X20327206Y-17915531D02*
X20336729Y-17906008D01*
X20336729Y-17906008D02*
X20355777Y-17896484D01*
X20498634Y-17896484D02*
X20498634Y-17934579D01*
X20574825Y-17896484D02*
X20574825Y-17934579D01*
X20870063Y-18172674D02*
X20860539Y-18163150D01*
X20860539Y-18163150D02*
X20841491Y-18134579D01*
X20841491Y-18134579D02*
X20831968Y-18115531D01*
X20831968Y-18115531D02*
X20822444Y-18086960D01*
X20822444Y-18086960D02*
X20812920Y-18039341D01*
X20812920Y-18039341D02*
X20812920Y-18001246D01*
X20812920Y-18001246D02*
X20822444Y-17953627D01*
X20822444Y-17953627D02*
X20831968Y-17925055D01*
X20831968Y-17925055D02*
X20841491Y-17906008D01*
X20841491Y-17906008D02*
X20860539Y-17877436D01*
X20860539Y-17877436D02*
X20870063Y-17867912D01*
X21031968Y-17963150D02*
X21031968Y-18096484D01*
X20984349Y-17886960D02*
X20936730Y-18029817D01*
X20936730Y-18029817D02*
X21060539Y-18029817D01*
X21289111Y-18096484D02*
X21289111Y-17896484D01*
X21374825Y-18096484D02*
X21374825Y-17991722D01*
X21374825Y-17991722D02*
X21365301Y-17972674D01*
X21365301Y-17972674D02*
X21346253Y-17963150D01*
X21346253Y-17963150D02*
X21317682Y-17963150D01*
X21317682Y-17963150D02*
X21298634Y-17972674D01*
X21298634Y-17972674D02*
X21289111Y-17982198D01*
X21498634Y-18096484D02*
X21479587Y-18086960D01*
X21479587Y-18086960D02*
X21470063Y-18077436D01*
X21470063Y-18077436D02*
X21460539Y-18058389D01*
X21460539Y-18058389D02*
X21460539Y-18001246D01*
X21460539Y-18001246D02*
X21470063Y-17982198D01*
X21470063Y-17982198D02*
X21479587Y-17972674D01*
X21479587Y-17972674D02*
X21498634Y-17963150D01*
X21498634Y-17963150D02*
X21527206Y-17963150D01*
X21527206Y-17963150D02*
X21546253Y-17972674D01*
X21546253Y-17972674D02*
X21555777Y-17982198D01*
X21555777Y-17982198D02*
X21565301Y-18001246D01*
X21565301Y-18001246D02*
X21565301Y-18058389D01*
X21565301Y-18058389D02*
X21555777Y-18077436D01*
X21555777Y-18077436D02*
X21546253Y-18086960D01*
X21546253Y-18086960D02*
X21527206Y-18096484D01*
X21527206Y-18096484D02*
X21498634Y-18096484D01*
X21679587Y-18096484D02*
X21660539Y-18086960D01*
X21660539Y-18086960D02*
X21651015Y-18067912D01*
X21651015Y-18067912D02*
X21651015Y-17896484D01*
X21831968Y-18086960D02*
X21812920Y-18096484D01*
X21812920Y-18096484D02*
X21774825Y-18096484D01*
X21774825Y-18096484D02*
X21755777Y-18086960D01*
X21755777Y-18086960D02*
X21746253Y-18067912D01*
X21746253Y-18067912D02*
X21746253Y-17991722D01*
X21746253Y-17991722D02*
X21755777Y-17972674D01*
X21755777Y-17972674D02*
X21774825Y-17963150D01*
X21774825Y-17963150D02*
X21812920Y-17963150D01*
X21812920Y-17963150D02*
X21831968Y-17972674D01*
X21831968Y-17972674D02*
X21841492Y-17991722D01*
X21841492Y-17991722D02*
X21841492Y-18010770D01*
X21841492Y-18010770D02*
X21746253Y-18029817D01*
X21917682Y-18086960D02*
X21936730Y-18096484D01*
X21936730Y-18096484D02*
X21974825Y-18096484D01*
X21974825Y-18096484D02*
X21993873Y-18086960D01*
X21993873Y-18086960D02*
X22003396Y-18067912D01*
X22003396Y-18067912D02*
X22003396Y-18058389D01*
X22003396Y-18058389D02*
X21993873Y-18039341D01*
X21993873Y-18039341D02*
X21974825Y-18029817D01*
X21974825Y-18029817D02*
X21946253Y-18029817D01*
X21946253Y-18029817D02*
X21927206Y-18020293D01*
X21927206Y-18020293D02*
X21917682Y-18001246D01*
X21917682Y-18001246D02*
X21917682Y-17991722D01*
X21917682Y-17991722D02*
X21927206Y-17972674D01*
X21927206Y-17972674D02*
X21946253Y-17963150D01*
X21946253Y-17963150D02*
X21974825Y-17963150D01*
X21974825Y-17963150D02*
X21993873Y-17972674D01*
X22070063Y-18172674D02*
X22079587Y-18163150D01*
X22079587Y-18163150D02*
X22098634Y-18134579D01*
X22098634Y-18134579D02*
X22108158Y-18115531D01*
X22108158Y-18115531D02*
X22117682Y-18086960D01*
X22117682Y-18086960D02*
X22127206Y-18039341D01*
X22127206Y-18039341D02*
X22127206Y-18001246D01*
X22127206Y-18001246D02*
X22117682Y-17953627D01*
X22117682Y-17953627D02*
X22108158Y-17925055D01*
X22108158Y-17925055D02*
X22098634Y-17906008D01*
X22098634Y-17906008D02*
X22079587Y-17877436D01*
X22079587Y-17877436D02*
X22070063Y-17867912D01*
X22431968Y-18172674D02*
X22422444Y-18163150D01*
X22422444Y-18163150D02*
X22403396Y-18134579D01*
X22403396Y-18134579D02*
X22393872Y-18115531D01*
X22393872Y-18115531D02*
X22384349Y-18086960D01*
X22384349Y-18086960D02*
X22374825Y-18039341D01*
X22374825Y-18039341D02*
X22374825Y-18001246D01*
X22374825Y-18001246D02*
X22384349Y-17953627D01*
X22384349Y-17953627D02*
X22393872Y-17925055D01*
X22393872Y-17925055D02*
X22403396Y-17906008D01*
X22403396Y-17906008D02*
X22422444Y-17877436D01*
X22422444Y-17877436D02*
X22431968Y-17867912D01*
X22508158Y-17963150D02*
X22508158Y-18096484D01*
X22508158Y-17982198D02*
X22517682Y-17972674D01*
X22517682Y-17972674D02*
X22536730Y-17963150D01*
X22536730Y-17963150D02*
X22565301Y-17963150D01*
X22565301Y-17963150D02*
X22584349Y-17972674D01*
X22584349Y-17972674D02*
X22593872Y-17991722D01*
X22593872Y-17991722D02*
X22593872Y-18096484D01*
X22717682Y-18096484D02*
X22698634Y-18086960D01*
X22698634Y-18086960D02*
X22689111Y-18077436D01*
X22689111Y-18077436D02*
X22679587Y-18058389D01*
X22679587Y-18058389D02*
X22679587Y-18001246D01*
X22679587Y-18001246D02*
X22689111Y-17982198D01*
X22689111Y-17982198D02*
X22698634Y-17972674D01*
X22698634Y-17972674D02*
X22717682Y-17963150D01*
X22717682Y-17963150D02*
X22746253Y-17963150D01*
X22746253Y-17963150D02*
X22765301Y-17972674D01*
X22765301Y-17972674D02*
X22774825Y-17982198D01*
X22774825Y-17982198D02*
X22784349Y-18001246D01*
X22784349Y-18001246D02*
X22784349Y-18058389D01*
X22784349Y-18058389D02*
X22774825Y-18077436D01*
X22774825Y-18077436D02*
X22765301Y-18086960D01*
X22765301Y-18086960D02*
X22746253Y-18096484D01*
X22746253Y-18096484D02*
X22717682Y-18096484D01*
X22841492Y-17963150D02*
X22917682Y-17963150D01*
X22870063Y-17896484D02*
X22870063Y-18067912D01*
X22870063Y-18067912D02*
X22879587Y-18086960D01*
X22879587Y-18086960D02*
X22898634Y-18096484D01*
X22898634Y-18096484D02*
X22917682Y-18096484D01*
X23136730Y-17963150D02*
X23136730Y-18163150D01*
X23136730Y-17972674D02*
X23155777Y-17963150D01*
X23155777Y-17963150D02*
X23193873Y-17963150D01*
X23193873Y-17963150D02*
X23212920Y-17972674D01*
X23212920Y-17972674D02*
X23222444Y-17982198D01*
X23222444Y-17982198D02*
X23231968Y-18001246D01*
X23231968Y-18001246D02*
X23231968Y-18058389D01*
X23231968Y-18058389D02*
X23222444Y-18077436D01*
X23222444Y-18077436D02*
X23212920Y-18086960D01*
X23212920Y-18086960D02*
X23193873Y-18096484D01*
X23193873Y-18096484D02*
X23155777Y-18096484D01*
X23155777Y-18096484D02*
X23136730Y-18086960D01*
X23346253Y-18096484D02*
X23327206Y-18086960D01*
X23327206Y-18086960D02*
X23317682Y-18067912D01*
X23317682Y-18067912D02*
X23317682Y-17896484D01*
X23508158Y-18096484D02*
X23508158Y-17991722D01*
X23508158Y-17991722D02*
X23498634Y-17972674D01*
X23498634Y-17972674D02*
X23479587Y-17963150D01*
X23479587Y-17963150D02*
X23441492Y-17963150D01*
X23441492Y-17963150D02*
X23422444Y-17972674D01*
X23508158Y-18086960D02*
X23489111Y-18096484D01*
X23489111Y-18096484D02*
X23441492Y-18096484D01*
X23441492Y-18096484D02*
X23422444Y-18086960D01*
X23422444Y-18086960D02*
X23412920Y-18067912D01*
X23412920Y-18067912D02*
X23412920Y-18048865D01*
X23412920Y-18048865D02*
X23422444Y-18029817D01*
X23422444Y-18029817D02*
X23441492Y-18020293D01*
X23441492Y-18020293D02*
X23489111Y-18020293D01*
X23489111Y-18020293D02*
X23508158Y-18010770D01*
X23574825Y-17963150D02*
X23651015Y-17963150D01*
X23603396Y-17896484D02*
X23603396Y-18067912D01*
X23603396Y-18067912D02*
X23612920Y-18086960D01*
X23612920Y-18086960D02*
X23631968Y-18096484D01*
X23631968Y-18096484D02*
X23651015Y-18096484D01*
X23793873Y-18086960D02*
X23774825Y-18096484D01*
X23774825Y-18096484D02*
X23736730Y-18096484D01*
X23736730Y-18096484D02*
X23717682Y-18086960D01*
X23717682Y-18086960D02*
X23708158Y-18067912D01*
X23708158Y-18067912D02*
X23708158Y-17991722D01*
X23708158Y-17991722D02*
X23717682Y-17972674D01*
X23717682Y-17972674D02*
X23736730Y-17963150D01*
X23736730Y-17963150D02*
X23774825Y-17963150D01*
X23774825Y-17963150D02*
X23793873Y-17972674D01*
X23793873Y-17972674D02*
X23803396Y-17991722D01*
X23803396Y-17991722D02*
X23803396Y-18010770D01*
X23803396Y-18010770D02*
X23708158Y-18029817D01*
X23974825Y-18096484D02*
X23974825Y-17896484D01*
X23974825Y-18086960D02*
X23955777Y-18096484D01*
X23955777Y-18096484D02*
X23917682Y-18096484D01*
X23917682Y-18096484D02*
X23898634Y-18086960D01*
X23898634Y-18086960D02*
X23889111Y-18077436D01*
X23889111Y-18077436D02*
X23879587Y-18058389D01*
X23879587Y-18058389D02*
X23879587Y-18001246D01*
X23879587Y-18001246D02*
X23889111Y-17982198D01*
X23889111Y-17982198D02*
X23898634Y-17972674D01*
X23898634Y-17972674D02*
X23917682Y-17963150D01*
X23917682Y-17963150D02*
X23955777Y-17963150D01*
X23955777Y-17963150D02*
X23974825Y-17972674D01*
X24051015Y-18172674D02*
X24060539Y-18163150D01*
X24060539Y-18163150D02*
X24079587Y-18134579D01*
X24079587Y-18134579D02*
X24089111Y-18115531D01*
X24089111Y-18115531D02*
X24098634Y-18086960D01*
X24098634Y-18086960D02*
X24108158Y-18039341D01*
X24108158Y-18039341D02*
X24108158Y-18001246D01*
X24108158Y-18001246D02*
X24098634Y-17953627D01*
X24098634Y-17953627D02*
X24089111Y-17925055D01*
X24089111Y-17925055D02*
X24079587Y-17906008D01*
X24079587Y-17906008D02*
X24060539Y-17877436D01*
X24060539Y-17877436D02*
X24051015Y-17867912D01*
M02*
