%TF.GenerationSoftware,KiCad,Pcbnew,7.0.6*%
%TF.CreationDate,2023-11-01T15:52:39-07:00*%
%TF.ProjectId,Deliverable4_schematics,44656c69-7665-4726-9162-6c65345f7363,rev?*%
%TF.SameCoordinates,Original*%
%TF.FileFunction,Soldermask,Bot*%
%TF.FilePolarity,Negative*%
%FSLAX46Y46*%
G04 Gerber Fmt 4.6, Leading zero omitted, Abs format (unit mm)*
G04 Created by KiCad (PCBNEW 7.0.6) date 2023-11-01 15:52:39*
%MOMM*%
%LPD*%
G01*
G04 APERTURE LIST*
G04 Aperture macros list*
%AMRoundRect*
0 Rectangle with rounded corners*
0 $1 Rounding radius*
0 $2 $3 $4 $5 $6 $7 $8 $9 X,Y pos of 4 corners*
0 Add a 4 corners polygon primitive as box body*
4,1,4,$2,$3,$4,$5,$6,$7,$8,$9,$2,$3,0*
0 Add four circle primitives for the rounded corners*
1,1,$1+$1,$2,$3*
1,1,$1+$1,$4,$5*
1,1,$1+$1,$6,$7*
1,1,$1+$1,$8,$9*
0 Add four rect primitives between the rounded corners*
20,1,$1+$1,$2,$3,$4,$5,0*
20,1,$1+$1,$4,$5,$6,$7,0*
20,1,$1+$1,$6,$7,$8,$9,0*
20,1,$1+$1,$8,$9,$2,$3,0*%
%AMFreePoly0*
4,1,44,6.000000,-37.400000,6.017209,-37.405591,6.035282,-37.406431,6.045874,-37.414905,6.058779,-37.419098,6.069415,-37.433737,6.083542,-37.445039,6.087130,-37.458121,6.095106,-37.469098,6.095106,-37.487191,6.099893,-37.504641,6.095106,-37.517336,6.095106,-37.530902,6.084470,-37.545539,6.078087,-37.562470,0.078087,-45.062470,0.055956,-45.077029,0.035282,-45.093569,0.030476,-45.093792,0.026455,-45.096438,
-0.000010,-45.095208,-0.026455,-45.096437,-0.030473,-45.093793,-0.035282,-45.093570,-0.055970,-45.077019,-0.078087,-45.062469,-6.078087,-37.562470,-6.084470,-37.545540,-6.095106,-37.530902,-6.095106,-37.517335,-6.099893,-37.504640,-6.095106,-37.487189,-6.095106,-37.469098,-6.087132,-37.458123,-6.083543,-37.445039,-6.069413,-37.433735,-6.058779,-37.419098,-6.045876,-37.414905,-6.035282,-37.406430,-6.017205,-37.405590,
-6.000000,-37.400000,-6.000000,37.500000,6.000000,37.500000,6.000000,-37.400000,6.000000,-37.400000,$1*%
G04 Aperture macros list end*
%ADD10O,1.700000X1.700000*%
%ADD11FreePoly0,90.000000*%
%ADD12FreePoly0,270.000000*%
%ADD13O,1.104000X2.004000*%
%ADD14R,1.700000X1.700000*%
%ADD15RoundRect,0.102000X0.604000X-0.604000X0.604000X0.604000X-0.604000X0.604000X-0.604000X-0.604000X0*%
%ADD16C,1.412000*%
%ADD17O,5.204000X2.704000*%
%ADD18O,4.704000X2.454000*%
%ADD19O,2.454000X4.704000*%
%ADD20C,3.200000*%
%ADD21RoundRect,0.076200X-0.425000X0.425000X-0.425000X-0.425000X0.425000X-0.425000X0.425000X0.425000X0*%
%ADD22C,1.002400*%
%ADD23C,1.507998*%
%ADD24R,1.800000X1.800000*%
%ADD25C,1.800000*%
%ADD26O,2.004000X1.104000*%
G04 APERTURE END LIST*
D10*
%TO.C,U10*%
X184609000Y-166800000D03*
D11*
X225841000Y-166810000D03*
%TD*%
D10*
%TO.C,U11*%
X260491000Y-150800000D03*
D12*
X219259000Y-150790000D03*
%TD*%
D13*
%TO.C,J7*%
X226400000Y-75900000D03*
X219800000Y-75900000D03*
%TD*%
D14*
%TO.C,J2*%
X209200000Y-136300000D03*
D10*
X206660000Y-136300000D03*
X204120000Y-136300000D03*
X201580000Y-136300000D03*
X199040000Y-136300000D03*
X196500000Y-136300000D03*
%TD*%
D15*
%TO.C,D7*%
X238940000Y-138320000D03*
D16*
X241480000Y-138320000D03*
X244020000Y-138320000D03*
X246560000Y-138320000D03*
X249100000Y-138320000D03*
X251640000Y-138320000D03*
X254180000Y-138320000D03*
X256720000Y-138320000D03*
X259260000Y-138320000D03*
X259260000Y-123080000D03*
X256720000Y-123080000D03*
X254180000Y-123080000D03*
X251640000Y-123080000D03*
X249100000Y-123080000D03*
X246560000Y-123080000D03*
X244020000Y-123080000D03*
X241480000Y-123080000D03*
X238940000Y-123080000D03*
%TD*%
D17*
%TO.C,J5*%
X259526193Y-88412500D03*
D18*
X259526193Y-82412500D03*
D19*
X254826193Y-85412500D03*
%TD*%
D14*
%TO.C,SW2*%
X207900000Y-116600000D03*
D10*
X210440000Y-116600000D03*
%TD*%
D20*
%TO.C,H1*%
X268400000Y-78000000D03*
%TD*%
D14*
%TO.C,J3*%
X267400000Y-94970000D03*
D10*
X269940000Y-94970000D03*
X267400000Y-97510000D03*
X269940000Y-97510000D03*
X267400000Y-100050000D03*
X269940000Y-100050000D03*
X267400000Y-102590000D03*
X269940000Y-102590000D03*
X267400000Y-105130000D03*
X269940000Y-105130000D03*
X267400000Y-107670000D03*
X269940000Y-107670000D03*
%TD*%
D14*
%TO.C,J11*%
X202775000Y-110600000D03*
D10*
X205315000Y-110600000D03*
X207855000Y-110600000D03*
%TD*%
D14*
%TO.C,J4*%
X260760000Y-95000000D03*
D10*
X263300000Y-95000000D03*
X260760000Y-97540000D03*
X263300000Y-97540000D03*
X260760000Y-100080000D03*
X263300000Y-100080000D03*
X260760000Y-102620000D03*
X263300000Y-102620000D03*
X260760000Y-105160000D03*
X263300000Y-105160000D03*
X260760000Y-107700000D03*
X263300000Y-107700000D03*
%TD*%
D20*
%TO.C,H2*%
X176700000Y-78000000D03*
%TD*%
D14*
%TO.C,U3*%
X190400000Y-110200000D03*
%TD*%
%TO.C,J10*%
X215840000Y-139000000D03*
D10*
X218380000Y-139000000D03*
X220920000Y-139000000D03*
X223460000Y-139000000D03*
X226000000Y-139000000D03*
%TD*%
D20*
%TO.C,H3*%
X268400000Y-137300000D03*
%TD*%
D14*
%TO.C,J6*%
X203125000Y-116400000D03*
D10*
X200585000Y-116400000D03*
X198045000Y-116400000D03*
%TD*%
D14*
%TO.C,U2*%
X190500000Y-106100000D03*
%TD*%
D21*
%TO.C,M1*%
X269525000Y-88762500D03*
D22*
X269525000Y-90012500D03*
%TD*%
D23*
%TO.C,SW4*%
X197949999Y-97254900D03*
X204450001Y-97254900D03*
X197949999Y-101754901D03*
X204450001Y-101754901D03*
%TD*%
%TO.C,SW5*%
X235045100Y-93649999D03*
X235045100Y-100150001D03*
X230545099Y-93649999D03*
X230545099Y-100150001D03*
%TD*%
D24*
%TO.C,D15*%
X260300000Y-118400000D03*
D25*
X257760000Y-118400000D03*
%TD*%
D14*
%TO.C,J13*%
X243800000Y-117300000D03*
D10*
X243800000Y-114760000D03*
X243800000Y-112220000D03*
%TD*%
D14*
%TO.C,J12*%
X252900000Y-93800000D03*
D10*
X252900000Y-96340000D03*
%TD*%
D14*
%TO.C,J1*%
X216340000Y-76200000D03*
D10*
X213800000Y-76200000D03*
X211260000Y-76200000D03*
X208720000Y-76200000D03*
%TD*%
D26*
%TO.C,J9*%
X174662500Y-112900000D03*
X174662500Y-119500000D03*
%TD*%
D23*
%TO.C,SW3*%
X179145100Y-83349999D03*
X179145100Y-89850001D03*
X174645099Y-83349999D03*
X174645099Y-89850001D03*
%TD*%
D20*
%TO.C,H4*%
X176700000Y-137300000D03*
%TD*%
D23*
%TO.C,SW1*%
X246945100Y-97149999D03*
X246945100Y-103650001D03*
X242445099Y-97149999D03*
X242445099Y-103650001D03*
%TD*%
M02*
