%TF.GenerationSoftware,KiCad,Pcbnew,7.0.6*%
%TF.CreationDate,2023-11-01T15:52:36-07:00*%
%TF.ProjectId,Deliverable4_schematics,44656c69-7665-4726-9162-6c65345f7363,rev?*%
%TF.SameCoordinates,Original*%
%TF.FileFunction,Drillmap*%
%TF.FilePolarity,Positive*%
%FSLAX45Y45*%
G04 Gerber Fmt 4.5, Leading zero omitted, Abs format (unit mm)*
G04 Created by KiCad (PCBNEW 7.0.6) date 2023-11-01 15:52:36*
%MOMM*%
%LPD*%
G01*
G04 APERTURE LIST*
%ADD10C,0.100000*%
%ADD11C,0.200000*%
%ADD12C,0.040000*%
%ADD13C,0.050000*%
%ADD14C,0.070000*%
%ADD15C,0.090000*%
%ADD16C,0.099999*%
G04 APERTURE END LIST*
D10*
X26850000Y-7430000D02*
X17680000Y-7430000D01*
X27200000Y-16670000D02*
X27200000Y-13740000D01*
X18140000Y-15990000D02*
X26350000Y-15990000D01*
X26330000Y-14100000D02*
X18270000Y-14100000D01*
X27200000Y-7780000D02*
G75*
G03*
X26850000Y-7430000I-350000J0D01*
G01*
X17300000Y-15090000D02*
X17300000Y-16000000D01*
X17300000Y-17210000D02*
X17300000Y-16000000D01*
X18140000Y-15770000D02*
G75*
G03*
X18140000Y-15990000I0J-110000D01*
G01*
X26320025Y-14379644D02*
G75*
G03*
X26330000Y-14100000I9975J139644D01*
G01*
X27200000Y-16670000D02*
X26370000Y-17360000D01*
X17680000Y-7430000D02*
G75*
G03*
X17301119Y-7780855I0J-380000D01*
G01*
X27200000Y-13740000D02*
X27200000Y-7780000D01*
X26350000Y-15770000D02*
X18140000Y-15770000D01*
X17301119Y-7780855D02*
X17300000Y-13720000D01*
X17300000Y-15090000D02*
X17300000Y-13720000D01*
X18270000Y-14100000D02*
G75*
G03*
X18270000Y-14380000I0J-140000D01*
G01*
X17300000Y-17210000D02*
G75*
G03*
X17450000Y-17360000I150000J0D01*
G01*
X26350000Y-15990000D02*
G75*
G03*
X26350000Y-15770000I0J110000D01*
G01*
X26320000Y-14380000D02*
X18270000Y-14380000D01*
X26370000Y-17360000D02*
X17450000Y-17360000D01*
D11*
D12*
X17416250Y-12406250D02*
X17456250Y-12446250D01*
X17456250Y-12406250D02*
X17416250Y-12446250D01*
X17430000Y-10670000D02*
X17470000Y-10710000D01*
X17470000Y-10670000D02*
X17430000Y-10710000D01*
X17536000Y-10681000D02*
X17576000Y-10721000D01*
X17576000Y-10681000D02*
X17536000Y-10721000D01*
X17546000Y-9261000D02*
X17586000Y-9301000D01*
X17586000Y-9261000D02*
X17546000Y-9301000D01*
X17810000Y-12770000D02*
X17850000Y-12810000D01*
X17850000Y-12770000D02*
X17810000Y-12810000D01*
X17820000Y-9280000D02*
X17860000Y-9320000D01*
X17860000Y-9280000D02*
X17820000Y-9320000D01*
X17830000Y-12400000D02*
X17870000Y-12440000D01*
X17870000Y-12400000D02*
X17830000Y-12440000D01*
X17840000Y-11740000D02*
X17880000Y-11780000D01*
X17880000Y-11740000D02*
X17840000Y-11780000D01*
X17850000Y-11490000D02*
X17890000Y-11530000D01*
X17890000Y-11490000D02*
X17850000Y-11530000D01*
X17880000Y-12230000D02*
X17920000Y-12270000D01*
X17920000Y-12230000D02*
X17880000Y-12270000D01*
X17950000Y-9280000D02*
X17990000Y-9320000D01*
X17990000Y-9280000D02*
X17950000Y-9320000D01*
X17983318Y-12110636D02*
X18023318Y-12150636D01*
X18023318Y-12110636D02*
X17983318Y-12150636D01*
X18020000Y-10830000D02*
X18060000Y-10870000D01*
X18060000Y-10830000D02*
X18020000Y-10870000D01*
X18079510Y-8130000D02*
X18119510Y-8170000D01*
X18119510Y-8130000D02*
X18079510Y-8170000D01*
X18140000Y-12600000D02*
X18180000Y-12640000D01*
X18180000Y-12600000D02*
X18140000Y-12640000D01*
X18160000Y-8330000D02*
X18200000Y-8370000D01*
X18200000Y-8330000D02*
X18160000Y-8370000D01*
X18270000Y-8448950D02*
X18310000Y-8488950D01*
X18310000Y-8448950D02*
X18270000Y-8488950D01*
X18280000Y-7970000D02*
X18320000Y-8010000D01*
X18320000Y-7970000D02*
X18280000Y-8010000D01*
X18285000Y-7555000D02*
X18325000Y-7595000D01*
X18325000Y-7555000D02*
X18285000Y-7595000D01*
X18420000Y-11200000D02*
X18460000Y-11240000D01*
X18460000Y-11200000D02*
X18420000Y-11240000D01*
X18420000Y-11590000D02*
X18460000Y-11630000D01*
X18460000Y-11590000D02*
X18420000Y-11630000D01*
X18550000Y-9050000D02*
X18590000Y-9090000D01*
X18590000Y-9050000D02*
X18550000Y-9090000D01*
X18880000Y-9410000D02*
X18920000Y-9450000D01*
X18920000Y-9410000D02*
X18880000Y-9450000D01*
X18910000Y-11490000D02*
X18950000Y-11530000D01*
X18950000Y-11490000D02*
X18910000Y-11530000D01*
X19140000Y-9470000D02*
X19180000Y-9510000D01*
X19180000Y-9470000D02*
X19140000Y-9510000D01*
X19180000Y-8150000D02*
X19220000Y-8190000D01*
X19220000Y-8150000D02*
X19180000Y-8190000D01*
X19180000Y-8290000D02*
X19220000Y-8330000D01*
X19220000Y-8290000D02*
X19180000Y-8330000D01*
X19180000Y-8430000D02*
X19220000Y-8470000D01*
X19220000Y-8430000D02*
X19180000Y-8470000D01*
X19290000Y-8050000D02*
X19330000Y-8090000D01*
X19330000Y-8050000D02*
X19290000Y-8090000D01*
X19290000Y-8540000D02*
X19330000Y-8580000D01*
X19330000Y-8540000D02*
X19290000Y-8580000D01*
X19430000Y-8050000D02*
X19470000Y-8090000D01*
X19470000Y-8050000D02*
X19430000Y-8090000D01*
X19430000Y-8540000D02*
X19470000Y-8580000D01*
X19470000Y-8540000D02*
X19430000Y-8580000D01*
X19480000Y-11900000D02*
X19520000Y-11940000D01*
X19520000Y-11900000D02*
X19480000Y-11940000D01*
X19570000Y-8050000D02*
X19610000Y-8090000D01*
X19610000Y-8050000D02*
X19570000Y-8090000D01*
X19570000Y-8540000D02*
X19610000Y-8580000D01*
X19610000Y-8540000D02*
X19570000Y-8580000D01*
X19600000Y-9680000D02*
X19640000Y-9720000D01*
X19640000Y-9680000D02*
X19600000Y-9720000D01*
X19670000Y-12460000D02*
X19710000Y-12500000D01*
X19710000Y-12460000D02*
X19670000Y-12500000D01*
X19680000Y-8150000D02*
X19720000Y-8190000D01*
X19720000Y-8150000D02*
X19680000Y-8190000D01*
X19680000Y-8290000D02*
X19720000Y-8330000D01*
X19720000Y-8290000D02*
X19680000Y-8330000D01*
X19680000Y-8430000D02*
X19720000Y-8470000D01*
X19720000Y-8430000D02*
X19680000Y-8470000D01*
X19680000Y-12240000D02*
X19720000Y-12280000D01*
X19720000Y-12240000D02*
X19680000Y-12280000D01*
X19890000Y-13400000D02*
X19930000Y-13440000D01*
X19930000Y-13400000D02*
X19890000Y-13440000D01*
X20150000Y-13390000D02*
X20190000Y-13430000D01*
X20190000Y-13390000D02*
X20150000Y-13430000D01*
X20600000Y-7910000D02*
X20640000Y-7950000D01*
X20640000Y-7910000D02*
X20600000Y-7950000D01*
X20600000Y-8030000D02*
X20640000Y-8070000D01*
X20640000Y-8030000D02*
X20600000Y-8070000D01*
X20610000Y-8920000D02*
X20650000Y-8960000D01*
X20650000Y-8920000D02*
X20610000Y-8960000D01*
X20610000Y-9050000D02*
X20650000Y-9090000D01*
X20650000Y-9050000D02*
X20610000Y-9090000D01*
X20620000Y-7530000D02*
X20660000Y-7570000D01*
X20660000Y-7530000D02*
X20620000Y-7570000D01*
X20620000Y-8410000D02*
X20660000Y-8450000D01*
X20660000Y-8410000D02*
X20620000Y-8450000D01*
X20620000Y-8780000D02*
X20660000Y-8820000D01*
X20660000Y-8780000D02*
X20620000Y-8820000D01*
X20620000Y-10710000D02*
X20660000Y-10750000D01*
X20660000Y-10710000D02*
X20620000Y-10750000D01*
X20639950Y-8540000D02*
X20679950Y-8580000D01*
X20679950Y-8540000D02*
X20639950Y-8580000D01*
X20720000Y-9653750D02*
X20760000Y-9693750D01*
X20760000Y-9653750D02*
X20720000Y-9693750D01*
X20780000Y-8330000D02*
X20820000Y-8370000D01*
X20820000Y-8330000D02*
X20780000Y-8370000D01*
X20830000Y-8550000D02*
X20870000Y-8590000D01*
X20870000Y-8550000D02*
X20830000Y-8590000D01*
X20950000Y-9141046D02*
X20990000Y-9181046D01*
X20990000Y-9141046D02*
X20950000Y-9181046D01*
X20950000Y-9653750D02*
X20990000Y-9693750D01*
X20990000Y-9653750D02*
X20950000Y-9693750D01*
X21080000Y-9020000D02*
X21120000Y-9060000D01*
X21120000Y-9020000D02*
X21080000Y-9060000D01*
X21092950Y-9530000D02*
X21132950Y-9570000D01*
X21132950Y-9530000D02*
X21092950Y-9570000D01*
X21150000Y-8110000D02*
X21190000Y-8150000D01*
X21190000Y-8110000D02*
X21150000Y-8150000D01*
X21198550Y-11220000D02*
X21238550Y-11260000D01*
X21238550Y-11220000D02*
X21198550Y-11260000D01*
X21239950Y-9740000D02*
X21279950Y-9780000D01*
X21279950Y-9740000D02*
X21239950Y-9780000D01*
X21239950Y-10010000D02*
X21279950Y-10050000D01*
X21279950Y-10010000D02*
X21239950Y-10050000D01*
X21240000Y-9490000D02*
X21280000Y-9530000D01*
X21280000Y-9490000D02*
X21240000Y-9530000D01*
X21390000Y-10630000D02*
X21430000Y-10670000D01*
X21430000Y-10630000D02*
X21390000Y-10670000D01*
X21391450Y-11110000D02*
X21431450Y-11150000D01*
X21431450Y-11110000D02*
X21391450Y-11150000D01*
X21418800Y-10388800D02*
X21458800Y-10428800D01*
X21458800Y-10388800D02*
X21418800Y-10428800D01*
X21470000Y-8840000D02*
X21510000Y-8880000D01*
X21510000Y-8840000D02*
X21470000Y-8880000D01*
X21550000Y-10317350D02*
X21590000Y-10357350D01*
X21590000Y-10317350D02*
X21550000Y-10357350D01*
X21570000Y-8000000D02*
X21610000Y-8040000D01*
X21610000Y-8000000D02*
X21570000Y-8040000D01*
X21620000Y-10530000D02*
X21660000Y-10570000D01*
X21660000Y-10530000D02*
X21620000Y-10570000D01*
X21620000Y-12050000D02*
X21660000Y-12090000D01*
X21660000Y-12050000D02*
X21620000Y-12090000D01*
X21646437Y-10174400D02*
X21686437Y-10214400D01*
X21686437Y-10174400D02*
X21646437Y-10214400D01*
X21660000Y-9106000D02*
X21700000Y-9146000D01*
X21700000Y-9106000D02*
X21660000Y-9146000D01*
X21730000Y-11120000D02*
X21770000Y-11160000D01*
X21770000Y-11120000D02*
X21730000Y-11160000D01*
X21740000Y-8036000D02*
X21780000Y-8076000D01*
X21780000Y-8036000D02*
X21740000Y-8076000D01*
X21750000Y-9690000D02*
X21790000Y-9730000D01*
X21790000Y-9690000D02*
X21750000Y-9730000D01*
X21800000Y-8486000D02*
X21840000Y-8526000D01*
X21840000Y-8486000D02*
X21800000Y-8526000D01*
X21800000Y-8896000D02*
X21840000Y-8936000D01*
X21840000Y-8896000D02*
X21800000Y-8936000D01*
X21820000Y-7680000D02*
X21860000Y-7720000D01*
X21860000Y-7680000D02*
X21820000Y-7720000D01*
X22000000Y-9375000D02*
X22040000Y-9415000D01*
X22040000Y-9375000D02*
X22000000Y-9415000D01*
X22010000Y-9586250D02*
X22050000Y-9626250D01*
X22050000Y-9586250D02*
X22010000Y-9626250D01*
X22020000Y-11080000D02*
X22060000Y-11120000D01*
X22060000Y-11080000D02*
X22020000Y-11120000D01*
X22020000Y-12100000D02*
X22060000Y-12140000D01*
X22060000Y-12100000D02*
X22020000Y-12140000D01*
X22090000Y-10940000D02*
X22130000Y-10980000D01*
X22130000Y-10940000D02*
X22090000Y-10980000D01*
X22110000Y-11890000D02*
X22150000Y-11930000D01*
X22150000Y-11890000D02*
X22110000Y-11930000D01*
X22160000Y-11410000D02*
X22200000Y-11450000D01*
X22200000Y-11410000D02*
X22160000Y-11450000D01*
X22190000Y-11780000D02*
X22230000Y-11820000D01*
X22230000Y-11780000D02*
X22190000Y-11820000D01*
X22230000Y-8246000D02*
X22270000Y-8286000D01*
X22270000Y-8246000D02*
X22230000Y-8286000D01*
X22300000Y-9700000D02*
X22340000Y-9740000D01*
X22340000Y-9700000D02*
X22300000Y-9740000D01*
X22330000Y-9280000D02*
X22370000Y-9320000D01*
X22370000Y-9280000D02*
X22330000Y-9320000D01*
X22340000Y-9483750D02*
X22380000Y-9523750D01*
X22380000Y-9483750D02*
X22340000Y-9523750D01*
X22410000Y-7970000D02*
X22450000Y-8010000D01*
X22450000Y-7970000D02*
X22410000Y-8010000D01*
X22555395Y-8485395D02*
X22595395Y-8525395D01*
X22595395Y-8485395D02*
X22555395Y-8525395D01*
X22560000Y-7966000D02*
X22600000Y-8006000D01*
X22600000Y-7966000D02*
X22560000Y-8006000D01*
X22600000Y-9730000D02*
X22640000Y-9770000D01*
X22640000Y-9730000D02*
X22600000Y-9770000D01*
X22620000Y-12770000D02*
X22660000Y-12810000D01*
X22660000Y-12770000D02*
X22620000Y-12810000D01*
X22660000Y-9410000D02*
X22700000Y-9450000D01*
X22700000Y-9410000D02*
X22660000Y-9450000D01*
X22671450Y-9880000D02*
X22711450Y-9920000D01*
X22711450Y-9880000D02*
X22671450Y-9920000D01*
X22750000Y-11560000D02*
X22790000Y-11600000D01*
X22790000Y-11560000D02*
X22750000Y-11600000D01*
X22780000Y-12770000D02*
X22820000Y-12810000D01*
X22820000Y-12770000D02*
X22780000Y-12810000D01*
X22800000Y-8590000D02*
X22840000Y-8630000D01*
X22840000Y-8590000D02*
X22800000Y-8630000D01*
X22800000Y-9010000D02*
X22840000Y-9050000D01*
X22840000Y-9010000D02*
X22800000Y-9050000D01*
X22800000Y-12290000D02*
X22840000Y-12330000D01*
X22840000Y-12290000D02*
X22800000Y-12330000D01*
X22820000Y-8910000D02*
X22860000Y-8950000D01*
X22860000Y-8910000D02*
X22820000Y-8950000D01*
X22829158Y-8691888D02*
X22869158Y-8731888D01*
X22869158Y-8691888D02*
X22829158Y-8731888D01*
X22829477Y-8800523D02*
X22869477Y-8840523D01*
X22869477Y-8800523D02*
X22829477Y-8840523D01*
X22920000Y-12090000D02*
X22960000Y-12130000D01*
X22960000Y-12090000D02*
X22920000Y-12130000D01*
X22950000Y-13730000D02*
X22990000Y-13770000D01*
X22990000Y-13730000D02*
X22950000Y-13770000D01*
X22960000Y-10160000D02*
X23000000Y-10200000D01*
X23000000Y-10160000D02*
X22960000Y-10200000D01*
X23060000Y-8010000D02*
X23100000Y-8050000D01*
X23100000Y-8010000D02*
X23060000Y-8050000D01*
X23090000Y-13860000D02*
X23130000Y-13900000D01*
X23130000Y-13860000D02*
X23090000Y-13900000D01*
X23177501Y-12280000D02*
X23217501Y-12320000D01*
X23217501Y-12280000D02*
X23177501Y-12320000D01*
X23180000Y-8020000D02*
X23220000Y-8060000D01*
X23220000Y-8020000D02*
X23180000Y-8060000D01*
X23236048Y-12180000D02*
X23276048Y-12220000D01*
X23276048Y-12180000D02*
X23236048Y-12220000D01*
X23310008Y-10609992D02*
X23350008Y-10649992D01*
X23350008Y-10609992D02*
X23310008Y-10649992D01*
X23390000Y-10380000D02*
X23430000Y-10420000D01*
X23430000Y-10380000D02*
X23390000Y-10420000D01*
X23390000Y-12091450D02*
X23430000Y-12131450D01*
X23430000Y-12091450D02*
X23390000Y-12131450D01*
X23410000Y-8010000D02*
X23450000Y-8050000D01*
X23450000Y-8010000D02*
X23410000Y-8050000D01*
X23510000Y-12290000D02*
X23550000Y-12330000D01*
X23550000Y-12290000D02*
X23510000Y-12330000D01*
X23550000Y-13050000D02*
X23590000Y-13090000D01*
X23590000Y-13050000D02*
X23550000Y-13090000D01*
X23570000Y-13740000D02*
X23610000Y-13780000D01*
X23610000Y-13740000D02*
X23570000Y-13780000D01*
X23586250Y-10260000D02*
X23626250Y-10300000D01*
X23626250Y-10260000D02*
X23586250Y-10300000D01*
X23860000Y-7850000D02*
X23900000Y-7890000D01*
X23900000Y-7850000D02*
X23860000Y-7890000D01*
X23870000Y-9670000D02*
X23910000Y-9710000D01*
X23910000Y-9670000D02*
X23870000Y-9710000D01*
X23910000Y-8370000D02*
X23950000Y-8410000D01*
X23950000Y-8370000D02*
X23910000Y-8410000D01*
X24060000Y-10370000D02*
X24100000Y-10410000D01*
X24100000Y-10370000D02*
X24060000Y-10410000D01*
X24200000Y-11940000D02*
X24240000Y-11980000D01*
X24240000Y-11940000D02*
X24200000Y-11980000D01*
X24210000Y-10790000D02*
X24250000Y-10830000D01*
X24250000Y-10790000D02*
X24210000Y-10830000D01*
X24380000Y-7940000D02*
X24420000Y-7980000D01*
X24420000Y-7940000D02*
X24380000Y-7980000D01*
X24380000Y-8820000D02*
X24420000Y-8860000D01*
X24420000Y-8820000D02*
X24380000Y-8860000D01*
X24430000Y-8940000D02*
X24470000Y-8980000D01*
X24470000Y-8940000D02*
X24430000Y-8980000D01*
X24580000Y-11520000D02*
X24620000Y-11560000D01*
X24620000Y-11520000D02*
X24580000Y-11560000D01*
X24820000Y-7620000D02*
X24860000Y-7660000D01*
X24860000Y-7620000D02*
X24820000Y-7660000D01*
X24940000Y-10030000D02*
X24980000Y-10070000D01*
X24980000Y-10030000D02*
X24940000Y-10070000D01*
X24940000Y-11490000D02*
X24980000Y-11530000D01*
X24980000Y-11490000D02*
X24940000Y-11530000D01*
X24960000Y-10570000D02*
X25000000Y-10610000D01*
X25000000Y-10570000D02*
X24960000Y-10610000D01*
X24970000Y-7880000D02*
X25010000Y-7920000D01*
X25010000Y-7880000D02*
X24970000Y-7920000D01*
X25070000Y-8750000D02*
X25110000Y-8790000D01*
X25110000Y-8750000D02*
X25070000Y-8790000D01*
X25200000Y-8600000D02*
X25240000Y-8640000D01*
X25240000Y-8600000D02*
X25200000Y-8640000D01*
X25310000Y-10860000D02*
X25350000Y-10900000D01*
X25350000Y-10860000D02*
X25310000Y-10900000D01*
X25370000Y-11730000D02*
X25410000Y-11770000D01*
X25410000Y-11730000D02*
X25370000Y-11770000D01*
X25690000Y-11020000D02*
X25730000Y-11060000D01*
X25730000Y-11020000D02*
X25690000Y-11060000D01*
X25745000Y-10270000D02*
X25785000Y-10310000D01*
X25785000Y-10270000D02*
X25745000Y-10310000D01*
X25865000Y-10150000D02*
X25905000Y-10190000D01*
X25905000Y-10150000D02*
X25865000Y-10190000D01*
X26330000Y-12770000D02*
X26370000Y-12810000D01*
X26370000Y-12770000D02*
X26330000Y-12810000D01*
X26345523Y-12294477D02*
X26385523Y-12334477D01*
X26385523Y-12294477D02*
X26345523Y-12334477D01*
X26570000Y-13190000D02*
X26610000Y-13230000D01*
X26610000Y-13190000D02*
X26570000Y-13230000D01*
X26660000Y-11647050D02*
X26700000Y-11687050D01*
X26700000Y-11647050D02*
X26660000Y-11687050D01*
X26680000Y-13260000D02*
X26720000Y-13300000D01*
X26720000Y-13260000D02*
X26680000Y-13300000D01*
X26700000Y-11790000D02*
X26740000Y-11830000D01*
X26740000Y-11790000D02*
X26700000Y-11830000D01*
X26820000Y-11800000D02*
X26860000Y-11840000D01*
X26860000Y-11800000D02*
X26820000Y-11840000D01*
X26839477Y-13219477D02*
X26879477Y-13259477D01*
X26879477Y-13219477D02*
X26839477Y-13259477D01*
X27030000Y-12600000D02*
X27070000Y-12640000D01*
X27070000Y-12600000D02*
X27030000Y-12640000D01*
D13*
X17491250Y-11290000D02*
G75*
G03*
X17491250Y-11290000I-25000J0D01*
G01*
D11*
X17501250Y-11265000D02*
X17431250Y-11265000D01*
X17431250Y-11265000D02*
G75*
G03*
X17431250Y-11315000I0J-25000D01*
G01*
X17431250Y-11315000D02*
X17501250Y-11315000D01*
X17501250Y-11315000D02*
G75*
G03*
X17501250Y-11265000I0J25000D01*
G01*
D13*
X17491250Y-11950000D02*
G75*
G03*
X17491250Y-11950000I-25000J0D01*
G01*
D11*
X17501250Y-11925000D02*
X17431250Y-11925000D01*
X17431250Y-11925000D02*
G75*
G03*
X17431250Y-11975000I0J-25000D01*
G01*
X17431250Y-11975000D02*
X17501250Y-11975000D01*
X17501250Y-11975000D02*
G75*
G03*
X17501250Y-11925000I0J25000D01*
G01*
D13*
X22005000Y-7590000D02*
G75*
G03*
X22005000Y-7590000I-25000J0D01*
G01*
D11*
X22005000Y-7625000D02*
X22005000Y-7555000D01*
X22005000Y-7555000D02*
G75*
G03*
X21955000Y-7555000I-25000J0D01*
G01*
X21955000Y-7555000D02*
X21955000Y-7625000D01*
X21955000Y-7625000D02*
G75*
G03*
X22005000Y-7625000I25000J0D01*
G01*
D13*
X22665000Y-7590000D02*
G75*
G03*
X22665000Y-7590000I-25000J0D01*
G01*
D11*
X22665000Y-7625000D02*
X22665000Y-7555000D01*
X22665000Y-7555000D02*
G75*
G03*
X22615000Y-7555000I-25000J0D01*
G01*
X22615000Y-7555000D02*
X22615000Y-7625000D01*
X22615000Y-7625000D02*
G75*
G03*
X22665000Y-7625000I25000J0D01*
G01*
D13*
X26977500Y-8876250D02*
G75*
G03*
X26977500Y-8876250I-25000J0D01*
G01*
X26977500Y-9001250D02*
G75*
G03*
X26977500Y-9001250I-25000J0D01*
G01*
D14*
X23894000Y-12273000D02*
X23894000Y-12343000D01*
X23859000Y-12308000D02*
X23929000Y-12308000D01*
X23894000Y-13797000D02*
X23894000Y-13867000D01*
X23859000Y-13832000D02*
X23929000Y-13832000D01*
X24148000Y-12273000D02*
X24148000Y-12343000D01*
X24113000Y-12308000D02*
X24183000Y-12308000D01*
X24148000Y-13797000D02*
X24148000Y-13867000D01*
X24113000Y-13832000D02*
X24183000Y-13832000D01*
X24402000Y-12273000D02*
X24402000Y-12343000D01*
X24367000Y-12308000D02*
X24437000Y-12308000D01*
X24402000Y-13797000D02*
X24402000Y-13867000D01*
X24367000Y-13832000D02*
X24437000Y-13832000D01*
X24656000Y-12273000D02*
X24656000Y-12343000D01*
X24621000Y-12308000D02*
X24691000Y-12308000D01*
X24656000Y-13797000D02*
X24656000Y-13867000D01*
X24621000Y-13832000D02*
X24691000Y-13832000D01*
X24910000Y-12273000D02*
X24910000Y-12343000D01*
X24875000Y-12308000D02*
X24945000Y-12308000D01*
X24910000Y-13797000D02*
X24910000Y-13867000D01*
X24875000Y-13832000D02*
X24945000Y-13832000D01*
X25164000Y-12273000D02*
X25164000Y-12343000D01*
X25129000Y-12308000D02*
X25199000Y-12308000D01*
X25164000Y-13797000D02*
X25164000Y-13867000D01*
X25129000Y-13832000D02*
X25199000Y-13832000D01*
X25418000Y-12273000D02*
X25418000Y-12343000D01*
X25383000Y-12308000D02*
X25453000Y-12308000D01*
X25418000Y-13797000D02*
X25418000Y-13867000D01*
X25383000Y-13832000D02*
X25453000Y-13832000D01*
X25672000Y-12273000D02*
X25672000Y-12343000D01*
X25637000Y-12308000D02*
X25707000Y-12308000D01*
X25672000Y-13797000D02*
X25672000Y-13867000D01*
X25637000Y-13832000D02*
X25707000Y-13832000D01*
X25926000Y-12273000D02*
X25926000Y-12343000D01*
X25891000Y-12308000D02*
X25961000Y-12308000D01*
X25926000Y-13797000D02*
X25926000Y-13867000D01*
X25891000Y-13832000D02*
X25961000Y-13832000D01*
D15*
X25807820Y-11871820D02*
X25807820Y-11808180D01*
X25744180Y-11808180D01*
X25744180Y-11871820D01*
X25807820Y-11871820D01*
X26061820Y-11871820D02*
X26061820Y-11808180D01*
X25998180Y-11808180D01*
X25998180Y-11871820D01*
X26061820Y-11871820D01*
D16*
X17464510Y-8385000D02*
X17514510Y-8335000D01*
X17464510Y-8285000D01*
X17414510Y-8335000D01*
X17464510Y-8385000D01*
X17464510Y-9035000D02*
X17514510Y-8985000D01*
X17464510Y-8935000D01*
X17414510Y-8985000D01*
X17464510Y-9035000D01*
X17914510Y-8385000D02*
X17964510Y-8335000D01*
X17914510Y-8285000D01*
X17864510Y-8335000D01*
X17914510Y-8385000D01*
X17914510Y-9035000D02*
X17964510Y-8985000D01*
X17914510Y-8935000D01*
X17864510Y-8985000D01*
X17914510Y-9035000D01*
X19795000Y-9775490D02*
X19845000Y-9725490D01*
X19795000Y-9675490D01*
X19745000Y-9725490D01*
X19795000Y-9775490D01*
X19795000Y-10225490D02*
X19845000Y-10175490D01*
X19795000Y-10125490D01*
X19745000Y-10175490D01*
X19795000Y-10225490D01*
X20445000Y-9775490D02*
X20495000Y-9725490D01*
X20445000Y-9675490D01*
X20395000Y-9725490D01*
X20445000Y-9775490D01*
X20445000Y-10225490D02*
X20495000Y-10175490D01*
X20445000Y-10125490D01*
X20395000Y-10175490D01*
X20445000Y-10225490D01*
X23054510Y-9415000D02*
X23104510Y-9365000D01*
X23054510Y-9315000D01*
X23004510Y-9365000D01*
X23054510Y-9415000D01*
X23054510Y-10065000D02*
X23104510Y-10015000D01*
X23054510Y-9965000D01*
X23004510Y-10015000D01*
X23054510Y-10065000D01*
X23504510Y-9415000D02*
X23554510Y-9365000D01*
X23504510Y-9315000D01*
X23454510Y-9365000D01*
X23504510Y-9415000D01*
X23504510Y-10065000D02*
X23554510Y-10015000D01*
X23504510Y-9965000D01*
X23454510Y-10015000D01*
X23504510Y-10065000D01*
X24244510Y-9765000D02*
X24294510Y-9715000D01*
X24244510Y-9665000D01*
X24194510Y-9715000D01*
X24244510Y-9765000D01*
X24244510Y-10415000D02*
X24294510Y-10365000D01*
X24244510Y-10315000D01*
X24194510Y-10365000D01*
X24244510Y-10415000D01*
X24694510Y-9765000D02*
X24744510Y-9715000D01*
X24694510Y-9665000D01*
X24644510Y-9715000D01*
X24694510Y-9765000D01*
X24694510Y-10415000D02*
X24744510Y-10365000D01*
X24694510Y-10315000D01*
X24644510Y-10365000D01*
X24694510Y-10415000D01*
D10*
X18410900Y-16630000D02*
X18510900Y-16730000D01*
X18510900Y-16630000D02*
X18410900Y-16730000D01*
X18510900Y-16680000D02*
G75*
G03*
X18510900Y-16680000I-50000J0D01*
G01*
X18990000Y-10970000D02*
X19090000Y-11070000D01*
X19090000Y-10970000D02*
X18990000Y-11070000D01*
X19090000Y-11020000D02*
G75*
G03*
X19090000Y-11020000I-50000J0D01*
G01*
X19000000Y-10560000D02*
X19100000Y-10660000D01*
X19100000Y-10560000D02*
X19000000Y-10660000D01*
X19100000Y-10610000D02*
G75*
G03*
X19100000Y-10610000I-50000J0D01*
G01*
X19600000Y-13580000D02*
X19700000Y-13680000D01*
X19700000Y-13580000D02*
X19600000Y-13680000D01*
X19700000Y-13630000D02*
G75*
G03*
X19700000Y-13630000I-50000J0D01*
G01*
X19754500Y-11590000D02*
X19854500Y-11690000D01*
X19854500Y-11590000D02*
X19754500Y-11690000D01*
X19854500Y-11640000D02*
G75*
G03*
X19854500Y-11640000I-50000J0D01*
G01*
X19854000Y-13580000D02*
X19954000Y-13680000D01*
X19954000Y-13580000D02*
X19854000Y-13680000D01*
X19954000Y-13630000D02*
G75*
G03*
X19954000Y-13630000I-50000J0D01*
G01*
X20008500Y-11590000D02*
X20108500Y-11690000D01*
X20108500Y-11590000D02*
X20008500Y-11690000D01*
X20108500Y-11640000D02*
G75*
G03*
X20108500Y-11640000I-50000J0D01*
G01*
X20108000Y-13580000D02*
X20208000Y-13680000D01*
X20208000Y-13580000D02*
X20108000Y-13680000D01*
X20208000Y-13630000D02*
G75*
G03*
X20208000Y-13630000I-50000J0D01*
G01*
X20227500Y-11010000D02*
X20327500Y-11110000D01*
X20327500Y-11010000D02*
X20227500Y-11110000D01*
X20327500Y-11060000D02*
G75*
G03*
X20327500Y-11060000I-50000J0D01*
G01*
X20262500Y-11590000D02*
X20362500Y-11690000D01*
X20362500Y-11590000D02*
X20262500Y-11690000D01*
X20362500Y-11640000D02*
G75*
G03*
X20362500Y-11640000I-50000J0D01*
G01*
X20362000Y-13580000D02*
X20462000Y-13680000D01*
X20462000Y-13580000D02*
X20362000Y-13680000D01*
X20462000Y-13630000D02*
G75*
G03*
X20462000Y-13630000I-50000J0D01*
G01*
X20481500Y-11010000D02*
X20581500Y-11110000D01*
X20581500Y-11010000D02*
X20481500Y-11110000D01*
X20581500Y-11060000D02*
G75*
G03*
X20581500Y-11060000I-50000J0D01*
G01*
X20616000Y-13580000D02*
X20716000Y-13680000D01*
X20716000Y-13580000D02*
X20616000Y-13680000D01*
X20716000Y-13630000D02*
G75*
G03*
X20716000Y-13630000I-50000J0D01*
G01*
X20735500Y-11010000D02*
X20835500Y-11110000D01*
X20835500Y-11010000D02*
X20735500Y-11110000D01*
X20835500Y-11060000D02*
G75*
G03*
X20835500Y-11060000I-50000J0D01*
G01*
X20740000Y-11610000D02*
X20840000Y-11710000D01*
X20840000Y-11610000D02*
X20740000Y-11710000D01*
X20840000Y-11660000D02*
G75*
G03*
X20840000Y-11660000I-50000J0D01*
G01*
X20822000Y-7570000D02*
X20922000Y-7670000D01*
X20922000Y-7570000D02*
X20822000Y-7670000D01*
X20922000Y-7620000D02*
G75*
G03*
X20922000Y-7620000I-50000J0D01*
G01*
X20870000Y-13580000D02*
X20970000Y-13680000D01*
X20970000Y-13580000D02*
X20870000Y-13680000D01*
X20970000Y-13630000D02*
G75*
G03*
X20970000Y-13630000I-50000J0D01*
G01*
X20994000Y-11610000D02*
X21094000Y-11710000D01*
X21094000Y-11610000D02*
X20994000Y-11710000D01*
X21094000Y-11660000D02*
G75*
G03*
X21094000Y-11660000I-50000J0D01*
G01*
X21076000Y-7570000D02*
X21176000Y-7670000D01*
X21176000Y-7570000D02*
X21076000Y-7670000D01*
X21176000Y-7620000D02*
G75*
G03*
X21176000Y-7620000I-50000J0D01*
G01*
X21330000Y-7570000D02*
X21430000Y-7670000D01*
X21430000Y-7570000D02*
X21330000Y-7670000D01*
X21430000Y-7620000D02*
G75*
G03*
X21430000Y-7620000I-50000J0D01*
G01*
X21534000Y-13850000D02*
X21634000Y-13950000D01*
X21634000Y-13850000D02*
X21534000Y-13950000D01*
X21634000Y-13900000D02*
G75*
G03*
X21634000Y-13900000I-50000J0D01*
G01*
X21584000Y-7570000D02*
X21684000Y-7670000D01*
X21684000Y-7570000D02*
X21584000Y-7670000D01*
X21684000Y-7620000D02*
G75*
G03*
X21684000Y-7620000I-50000J0D01*
G01*
X21788000Y-13850000D02*
X21888000Y-13950000D01*
X21888000Y-13850000D02*
X21788000Y-13950000D01*
X21888000Y-13900000D02*
G75*
G03*
X21888000Y-13900000I-50000J0D01*
G01*
X22042000Y-13850000D02*
X22142000Y-13950000D01*
X22142000Y-13850000D02*
X22042000Y-13950000D01*
X22142000Y-13900000D02*
G75*
G03*
X22142000Y-13900000I-50000J0D01*
G01*
X22296000Y-13850000D02*
X22396000Y-13950000D01*
X22396000Y-13850000D02*
X22296000Y-13950000D01*
X22396000Y-13900000D02*
G75*
G03*
X22396000Y-13900000I-50000J0D01*
G01*
X22550000Y-13850000D02*
X22650000Y-13950000D01*
X22650000Y-13850000D02*
X22550000Y-13950000D01*
X22650000Y-13900000D02*
G75*
G03*
X22650000Y-13900000I-50000J0D01*
G01*
X24330000Y-11172000D02*
X24430000Y-11272000D01*
X24430000Y-11172000D02*
X24330000Y-11272000D01*
X24430000Y-11222000D02*
G75*
G03*
X24430000Y-11222000I-50000J0D01*
G01*
X24330000Y-11426000D02*
X24430000Y-11526000D01*
X24430000Y-11426000D02*
X24330000Y-11526000D01*
X24430000Y-11476000D02*
G75*
G03*
X24430000Y-11476000I-50000J0D01*
G01*
X24330000Y-11680000D02*
X24430000Y-11780000D01*
X24430000Y-11680000D02*
X24330000Y-11780000D01*
X24430000Y-11730000D02*
G75*
G03*
X24430000Y-11730000I-50000J0D01*
G01*
X25240000Y-9330000D02*
X25340000Y-9430000D01*
X25340000Y-9330000D02*
X25240000Y-9430000D01*
X25340000Y-9380000D02*
G75*
G03*
X25340000Y-9380000I-50000J0D01*
G01*
X25240000Y-9584000D02*
X25340000Y-9684000D01*
X25340000Y-9584000D02*
X25240000Y-9684000D01*
X25340000Y-9634000D02*
G75*
G03*
X25340000Y-9634000I-50000J0D01*
G01*
X25432619Y-8491250D02*
X25532619Y-8591250D01*
X25532619Y-8491250D02*
X25432619Y-8591250D01*
X25532619Y-8541250D02*
G75*
G03*
X25532619Y-8541250I-50000J0D01*
G01*
D11*
X25532619Y-8641250D02*
X25532619Y-8441250D01*
X25532619Y-8441250D02*
G75*
G03*
X25432619Y-8441250I-50000J0D01*
G01*
X25432619Y-8441250D02*
X25432619Y-8641250D01*
X25432619Y-8641250D02*
G75*
G03*
X25532619Y-8641250I50000J0D01*
G01*
D10*
X25902619Y-8191250D02*
X26002619Y-8291250D01*
X26002619Y-8191250D02*
X25902619Y-8291250D01*
X26002619Y-8241250D02*
G75*
G03*
X26002619Y-8241250I-50000J0D01*
G01*
D11*
X25852619Y-8291250D02*
X26052619Y-8291250D01*
X26052619Y-8291250D02*
G75*
G03*
X26052619Y-8191250I0J50000D01*
G01*
X26052619Y-8191250D02*
X25852619Y-8191250D01*
X25852619Y-8191250D02*
G75*
G03*
X25852619Y-8291250I0J-50000D01*
G01*
D10*
X25902619Y-8791250D02*
X26002619Y-8891250D01*
X26002619Y-8791250D02*
X25902619Y-8891250D01*
X26002619Y-8841250D02*
G75*
G03*
X26002619Y-8841250I-50000J0D01*
G01*
D11*
X25827619Y-8891250D02*
X26077619Y-8891250D01*
X26077619Y-8891250D02*
G75*
G03*
X26077619Y-8791250I0J50000D01*
G01*
X26077619Y-8791250D02*
X25827619Y-8791250D01*
X25827619Y-8791250D02*
G75*
G03*
X25827619Y-8891250I0J-50000D01*
G01*
D10*
X25999100Y-15030000D02*
X26099100Y-15130000D01*
X26099100Y-15030000D02*
X25999100Y-15130000D01*
X26099100Y-15080000D02*
G75*
G03*
X26099100Y-15080000I-50000J0D01*
G01*
X26026000Y-9450000D02*
X26126000Y-9550000D01*
X26126000Y-9450000D02*
X26026000Y-9550000D01*
X26126000Y-9500000D02*
G75*
G03*
X26126000Y-9500000I-50000J0D01*
G01*
X26026000Y-9704000D02*
X26126000Y-9804000D01*
X26126000Y-9704000D02*
X26026000Y-9804000D01*
X26126000Y-9754000D02*
G75*
G03*
X26126000Y-9754000I-50000J0D01*
G01*
X26026000Y-9958000D02*
X26126000Y-10058000D01*
X26126000Y-9958000D02*
X26026000Y-10058000D01*
X26126000Y-10008000D02*
G75*
G03*
X26126000Y-10008000I-50000J0D01*
G01*
X26026000Y-10212000D02*
X26126000Y-10312000D01*
X26126000Y-10212000D02*
X26026000Y-10312000D01*
X26126000Y-10262000D02*
G75*
G03*
X26126000Y-10262000I-50000J0D01*
G01*
X26026000Y-10466000D02*
X26126000Y-10566000D01*
X26126000Y-10466000D02*
X26026000Y-10566000D01*
X26126000Y-10516000D02*
G75*
G03*
X26126000Y-10516000I-50000J0D01*
G01*
X26026000Y-10720000D02*
X26126000Y-10820000D01*
X26126000Y-10720000D02*
X26026000Y-10820000D01*
X26126000Y-10770000D02*
G75*
G03*
X26126000Y-10770000I-50000J0D01*
G01*
X26280000Y-9450000D02*
X26380000Y-9550000D01*
X26380000Y-9450000D02*
X26280000Y-9550000D01*
X26380000Y-9500000D02*
G75*
G03*
X26380000Y-9500000I-50000J0D01*
G01*
X26280000Y-9704000D02*
X26380000Y-9804000D01*
X26380000Y-9704000D02*
X26280000Y-9804000D01*
X26380000Y-9754000D02*
G75*
G03*
X26380000Y-9754000I-50000J0D01*
G01*
X26280000Y-9958000D02*
X26380000Y-10058000D01*
X26380000Y-9958000D02*
X26280000Y-10058000D01*
X26380000Y-10008000D02*
G75*
G03*
X26380000Y-10008000I-50000J0D01*
G01*
X26280000Y-10212000D02*
X26380000Y-10312000D01*
X26380000Y-10212000D02*
X26280000Y-10312000D01*
X26380000Y-10262000D02*
G75*
G03*
X26380000Y-10262000I-50000J0D01*
G01*
X26280000Y-10466000D02*
X26380000Y-10566000D01*
X26380000Y-10466000D02*
X26280000Y-10566000D01*
X26380000Y-10516000D02*
G75*
G03*
X26380000Y-10516000I-50000J0D01*
G01*
X26280000Y-10720000D02*
X26380000Y-10820000D01*
X26380000Y-10720000D02*
X26280000Y-10820000D01*
X26380000Y-10770000D02*
G75*
G03*
X26380000Y-10770000I-50000J0D01*
G01*
X26690000Y-9447000D02*
X26790000Y-9547000D01*
X26790000Y-9447000D02*
X26690000Y-9547000D01*
X26790000Y-9497000D02*
G75*
G03*
X26790000Y-9497000I-50000J0D01*
G01*
X26690000Y-9701000D02*
X26790000Y-9801000D01*
X26790000Y-9701000D02*
X26690000Y-9801000D01*
X26790000Y-9751000D02*
G75*
G03*
X26790000Y-9751000I-50000J0D01*
G01*
X26690000Y-9955000D02*
X26790000Y-10055000D01*
X26790000Y-9955000D02*
X26690000Y-10055000D01*
X26790000Y-10005000D02*
G75*
G03*
X26790000Y-10005000I-50000J0D01*
G01*
X26690000Y-10209000D02*
X26790000Y-10309000D01*
X26790000Y-10209000D02*
X26690000Y-10309000D01*
X26790000Y-10259000D02*
G75*
G03*
X26790000Y-10259000I-50000J0D01*
G01*
X26690000Y-10463000D02*
X26790000Y-10563000D01*
X26790000Y-10463000D02*
X26690000Y-10563000D01*
X26790000Y-10513000D02*
G75*
G03*
X26790000Y-10513000I-50000J0D01*
G01*
X26690000Y-10717000D02*
X26790000Y-10817000D01*
X26790000Y-10717000D02*
X26690000Y-10817000D01*
X26790000Y-10767000D02*
G75*
G03*
X26790000Y-10767000I-50000J0D01*
G01*
X26944000Y-9447000D02*
X27044000Y-9547000D01*
X27044000Y-9447000D02*
X26944000Y-9547000D01*
X27044000Y-9497000D02*
G75*
G03*
X27044000Y-9497000I-50000J0D01*
G01*
X26944000Y-9701000D02*
X27044000Y-9801000D01*
X27044000Y-9701000D02*
X26944000Y-9801000D01*
X27044000Y-9751000D02*
G75*
G03*
X27044000Y-9751000I-50000J0D01*
G01*
X26944000Y-9955000D02*
X27044000Y-10055000D01*
X27044000Y-9955000D02*
X26944000Y-10055000D01*
X27044000Y-10005000D02*
G75*
G03*
X27044000Y-10005000I-50000J0D01*
G01*
X26944000Y-10209000D02*
X27044000Y-10309000D01*
X27044000Y-10209000D02*
X26944000Y-10309000D01*
X27044000Y-10259000D02*
G75*
G03*
X27044000Y-10259000I-50000J0D01*
G01*
X26944000Y-10463000D02*
X27044000Y-10563000D01*
X27044000Y-10463000D02*
X26944000Y-10563000D01*
X27044000Y-10513000D02*
G75*
G03*
X27044000Y-10513000I-50000J0D01*
G01*
X26944000Y-10717000D02*
X27044000Y-10817000D01*
X27044000Y-10717000D02*
X26944000Y-10817000D01*
X27044000Y-10767000D02*
G75*
G03*
X27044000Y-10767000I-50000J0D01*
G01*
D11*
X17555777Y-17676484D02*
X17555777Y-17476484D01*
X17555777Y-17476484D02*
X17603396Y-17476484D01*
X17603396Y-17476484D02*
X17631967Y-17486008D01*
X17631967Y-17486008D02*
X17651015Y-17505055D01*
X17651015Y-17505055D02*
X17660539Y-17524103D01*
X17660539Y-17524103D02*
X17670063Y-17562198D01*
X17670063Y-17562198D02*
X17670063Y-17590770D01*
X17670063Y-17590770D02*
X17660539Y-17628865D01*
X17660539Y-17628865D02*
X17651015Y-17647912D01*
X17651015Y-17647912D02*
X17631967Y-17666960D01*
X17631967Y-17666960D02*
X17603396Y-17676484D01*
X17603396Y-17676484D02*
X17555777Y-17676484D01*
X17755777Y-17676484D02*
X17755777Y-17543150D01*
X17755777Y-17581246D02*
X17765301Y-17562198D01*
X17765301Y-17562198D02*
X17774824Y-17552674D01*
X17774824Y-17552674D02*
X17793872Y-17543150D01*
X17793872Y-17543150D02*
X17812920Y-17543150D01*
X17879586Y-17676484D02*
X17879586Y-17543150D01*
X17879586Y-17476484D02*
X17870063Y-17486008D01*
X17870063Y-17486008D02*
X17879586Y-17495531D01*
X17879586Y-17495531D02*
X17889110Y-17486008D01*
X17889110Y-17486008D02*
X17879586Y-17476484D01*
X17879586Y-17476484D02*
X17879586Y-17495531D01*
X18003396Y-17676484D02*
X17984348Y-17666960D01*
X17984348Y-17666960D02*
X17974824Y-17647912D01*
X17974824Y-17647912D02*
X17974824Y-17476484D01*
X18108158Y-17676484D02*
X18089110Y-17666960D01*
X18089110Y-17666960D02*
X18079586Y-17647912D01*
X18079586Y-17647912D02*
X18079586Y-17476484D01*
X18336729Y-17676484D02*
X18336729Y-17476484D01*
X18336729Y-17476484D02*
X18403396Y-17619341D01*
X18403396Y-17619341D02*
X18470063Y-17476484D01*
X18470063Y-17476484D02*
X18470063Y-17676484D01*
X18651015Y-17676484D02*
X18651015Y-17571722D01*
X18651015Y-17571722D02*
X18641491Y-17552674D01*
X18641491Y-17552674D02*
X18622444Y-17543150D01*
X18622444Y-17543150D02*
X18584348Y-17543150D01*
X18584348Y-17543150D02*
X18565301Y-17552674D01*
X18651015Y-17666960D02*
X18631967Y-17676484D01*
X18631967Y-17676484D02*
X18584348Y-17676484D01*
X18584348Y-17676484D02*
X18565301Y-17666960D01*
X18565301Y-17666960D02*
X18555777Y-17647912D01*
X18555777Y-17647912D02*
X18555777Y-17628865D01*
X18555777Y-17628865D02*
X18565301Y-17609817D01*
X18565301Y-17609817D02*
X18584348Y-17600293D01*
X18584348Y-17600293D02*
X18631967Y-17600293D01*
X18631967Y-17600293D02*
X18651015Y-17590770D01*
X18746253Y-17543150D02*
X18746253Y-17743150D01*
X18746253Y-17552674D02*
X18765301Y-17543150D01*
X18765301Y-17543150D02*
X18803396Y-17543150D01*
X18803396Y-17543150D02*
X18822444Y-17552674D01*
X18822444Y-17552674D02*
X18831967Y-17562198D01*
X18831967Y-17562198D02*
X18841491Y-17581246D01*
X18841491Y-17581246D02*
X18841491Y-17638389D01*
X18841491Y-17638389D02*
X18831967Y-17657436D01*
X18831967Y-17657436D02*
X18822444Y-17666960D01*
X18822444Y-17666960D02*
X18803396Y-17676484D01*
X18803396Y-17676484D02*
X18765301Y-17676484D01*
X18765301Y-17676484D02*
X18746253Y-17666960D01*
X18927205Y-17657436D02*
X18936729Y-17666960D01*
X18936729Y-17666960D02*
X18927205Y-17676484D01*
X18927205Y-17676484D02*
X18917682Y-17666960D01*
X18917682Y-17666960D02*
X18927205Y-17657436D01*
X18927205Y-17657436D02*
X18927205Y-17676484D01*
X18927205Y-17552674D02*
X18936729Y-17562198D01*
X18936729Y-17562198D02*
X18927205Y-17571722D01*
X18927205Y-17571722D02*
X18917682Y-17562198D01*
X18917682Y-17562198D02*
X18927205Y-17552674D01*
X18927205Y-17552674D02*
X18927205Y-17571722D01*
D12*
X17255000Y-17985000D02*
X17295000Y-18025000D01*
X17295000Y-17985000D02*
X17255000Y-18025000D01*
D11*
X17593872Y-17896484D02*
X17612920Y-17896484D01*
X17612920Y-17896484D02*
X17631967Y-17906008D01*
X17631967Y-17906008D02*
X17641491Y-17915531D01*
X17641491Y-17915531D02*
X17651015Y-17934579D01*
X17651015Y-17934579D02*
X17660539Y-17972674D01*
X17660539Y-17972674D02*
X17660539Y-18020293D01*
X17660539Y-18020293D02*
X17651015Y-18058389D01*
X17651015Y-18058389D02*
X17641491Y-18077436D01*
X17641491Y-18077436D02*
X17631967Y-18086960D01*
X17631967Y-18086960D02*
X17612920Y-18096484D01*
X17612920Y-18096484D02*
X17593872Y-18096484D01*
X17593872Y-18096484D02*
X17574824Y-18086960D01*
X17574824Y-18086960D02*
X17565301Y-18077436D01*
X17565301Y-18077436D02*
X17555777Y-18058389D01*
X17555777Y-18058389D02*
X17546253Y-18020293D01*
X17546253Y-18020293D02*
X17546253Y-17972674D01*
X17546253Y-17972674D02*
X17555777Y-17934579D01*
X17555777Y-17934579D02*
X17565301Y-17915531D01*
X17565301Y-17915531D02*
X17574824Y-17906008D01*
X17574824Y-17906008D02*
X17593872Y-17896484D01*
X17746253Y-18077436D02*
X17755777Y-18086960D01*
X17755777Y-18086960D02*
X17746253Y-18096484D01*
X17746253Y-18096484D02*
X17736729Y-18086960D01*
X17736729Y-18086960D02*
X17746253Y-18077436D01*
X17746253Y-18077436D02*
X17746253Y-18096484D01*
X17927205Y-17963150D02*
X17927205Y-18096484D01*
X17879586Y-17886960D02*
X17831967Y-18029817D01*
X17831967Y-18029817D02*
X17955777Y-18029817D01*
X18070063Y-17896484D02*
X18089110Y-17896484D01*
X18089110Y-17896484D02*
X18108158Y-17906008D01*
X18108158Y-17906008D02*
X18117682Y-17915531D01*
X18117682Y-17915531D02*
X18127205Y-17934579D01*
X18127205Y-17934579D02*
X18136729Y-17972674D01*
X18136729Y-17972674D02*
X18136729Y-18020293D01*
X18136729Y-18020293D02*
X18127205Y-18058389D01*
X18127205Y-18058389D02*
X18117682Y-18077436D01*
X18117682Y-18077436D02*
X18108158Y-18086960D01*
X18108158Y-18086960D02*
X18089110Y-18096484D01*
X18089110Y-18096484D02*
X18070063Y-18096484D01*
X18070063Y-18096484D02*
X18051015Y-18086960D01*
X18051015Y-18086960D02*
X18041491Y-18077436D01*
X18041491Y-18077436D02*
X18031967Y-18058389D01*
X18031967Y-18058389D02*
X18022444Y-18020293D01*
X18022444Y-18020293D02*
X18022444Y-17972674D01*
X18022444Y-17972674D02*
X18031967Y-17934579D01*
X18031967Y-17934579D02*
X18041491Y-17915531D01*
X18041491Y-17915531D02*
X18051015Y-17906008D01*
X18051015Y-17906008D02*
X18070063Y-17896484D01*
X18260539Y-17896484D02*
X18279586Y-17896484D01*
X18279586Y-17896484D02*
X18298634Y-17906008D01*
X18298634Y-17906008D02*
X18308158Y-17915531D01*
X18308158Y-17915531D02*
X18317682Y-17934579D01*
X18317682Y-17934579D02*
X18327205Y-17972674D01*
X18327205Y-17972674D02*
X18327205Y-18020293D01*
X18327205Y-18020293D02*
X18317682Y-18058389D01*
X18317682Y-18058389D02*
X18308158Y-18077436D01*
X18308158Y-18077436D02*
X18298634Y-18086960D01*
X18298634Y-18086960D02*
X18279586Y-18096484D01*
X18279586Y-18096484D02*
X18260539Y-18096484D01*
X18260539Y-18096484D02*
X18241491Y-18086960D01*
X18241491Y-18086960D02*
X18231967Y-18077436D01*
X18231967Y-18077436D02*
X18222444Y-18058389D01*
X18222444Y-18058389D02*
X18212920Y-18020293D01*
X18212920Y-18020293D02*
X18212920Y-17972674D01*
X18212920Y-17972674D02*
X18222444Y-17934579D01*
X18222444Y-17934579D02*
X18231967Y-17915531D01*
X18231967Y-17915531D02*
X18241491Y-17906008D01*
X18241491Y-17906008D02*
X18260539Y-17896484D01*
X18412920Y-18096484D02*
X18412920Y-17963150D01*
X18412920Y-17982198D02*
X18422444Y-17972674D01*
X18422444Y-17972674D02*
X18441491Y-17963150D01*
X18441491Y-17963150D02*
X18470063Y-17963150D01*
X18470063Y-17963150D02*
X18489110Y-17972674D01*
X18489110Y-17972674D02*
X18498634Y-17991722D01*
X18498634Y-17991722D02*
X18498634Y-18096484D01*
X18498634Y-17991722D02*
X18508158Y-17972674D01*
X18508158Y-17972674D02*
X18527205Y-17963150D01*
X18527205Y-17963150D02*
X18555777Y-17963150D01*
X18555777Y-17963150D02*
X18574825Y-17972674D01*
X18574825Y-17972674D02*
X18584348Y-17991722D01*
X18584348Y-17991722D02*
X18584348Y-18096484D01*
X18679586Y-18096484D02*
X18679586Y-17963150D01*
X18679586Y-17982198D02*
X18689110Y-17972674D01*
X18689110Y-17972674D02*
X18708158Y-17963150D01*
X18708158Y-17963150D02*
X18736729Y-17963150D01*
X18736729Y-17963150D02*
X18755777Y-17972674D01*
X18755777Y-17972674D02*
X18765301Y-17991722D01*
X18765301Y-17991722D02*
X18765301Y-18096484D01*
X18765301Y-17991722D02*
X18774825Y-17972674D01*
X18774825Y-17972674D02*
X18793872Y-17963150D01*
X18793872Y-17963150D02*
X18822444Y-17963150D01*
X18822444Y-17963150D02*
X18841491Y-17972674D01*
X18841491Y-17972674D02*
X18851015Y-17991722D01*
X18851015Y-17991722D02*
X18851015Y-18096484D01*
X19241491Y-17886960D02*
X19070063Y-18144103D01*
X19498634Y-17896484D02*
X19517682Y-17896484D01*
X19517682Y-17896484D02*
X19536729Y-17906008D01*
X19536729Y-17906008D02*
X19546253Y-17915531D01*
X19546253Y-17915531D02*
X19555777Y-17934579D01*
X19555777Y-17934579D02*
X19565301Y-17972674D01*
X19565301Y-17972674D02*
X19565301Y-18020293D01*
X19565301Y-18020293D02*
X19555777Y-18058389D01*
X19555777Y-18058389D02*
X19546253Y-18077436D01*
X19546253Y-18077436D02*
X19536729Y-18086960D01*
X19536729Y-18086960D02*
X19517682Y-18096484D01*
X19517682Y-18096484D02*
X19498634Y-18096484D01*
X19498634Y-18096484D02*
X19479587Y-18086960D01*
X19479587Y-18086960D02*
X19470063Y-18077436D01*
X19470063Y-18077436D02*
X19460539Y-18058389D01*
X19460539Y-18058389D02*
X19451015Y-18020293D01*
X19451015Y-18020293D02*
X19451015Y-17972674D01*
X19451015Y-17972674D02*
X19460539Y-17934579D01*
X19460539Y-17934579D02*
X19470063Y-17915531D01*
X19470063Y-17915531D02*
X19479587Y-17906008D01*
X19479587Y-17906008D02*
X19498634Y-17896484D01*
X19651015Y-18077436D02*
X19660539Y-18086960D01*
X19660539Y-18086960D02*
X19651015Y-18096484D01*
X19651015Y-18096484D02*
X19641491Y-18086960D01*
X19641491Y-18086960D02*
X19651015Y-18077436D01*
X19651015Y-18077436D02*
X19651015Y-18096484D01*
X19784348Y-17896484D02*
X19803396Y-17896484D01*
X19803396Y-17896484D02*
X19822444Y-17906008D01*
X19822444Y-17906008D02*
X19831968Y-17915531D01*
X19831968Y-17915531D02*
X19841491Y-17934579D01*
X19841491Y-17934579D02*
X19851015Y-17972674D01*
X19851015Y-17972674D02*
X19851015Y-18020293D01*
X19851015Y-18020293D02*
X19841491Y-18058389D01*
X19841491Y-18058389D02*
X19831968Y-18077436D01*
X19831968Y-18077436D02*
X19822444Y-18086960D01*
X19822444Y-18086960D02*
X19803396Y-18096484D01*
X19803396Y-18096484D02*
X19784348Y-18096484D01*
X19784348Y-18096484D02*
X19765301Y-18086960D01*
X19765301Y-18086960D02*
X19755777Y-18077436D01*
X19755777Y-18077436D02*
X19746253Y-18058389D01*
X19746253Y-18058389D02*
X19736729Y-18020293D01*
X19736729Y-18020293D02*
X19736729Y-17972674D01*
X19736729Y-17972674D02*
X19746253Y-17934579D01*
X19746253Y-17934579D02*
X19755777Y-17915531D01*
X19755777Y-17915531D02*
X19765301Y-17906008D01*
X19765301Y-17906008D02*
X19784348Y-17896484D01*
X20041491Y-18096484D02*
X19927206Y-18096484D01*
X19984348Y-18096484D02*
X19984348Y-17896484D01*
X19984348Y-17896484D02*
X19965301Y-17925055D01*
X19965301Y-17925055D02*
X19946253Y-17944103D01*
X19946253Y-17944103D02*
X19927206Y-17953627D01*
X20222444Y-17896484D02*
X20127206Y-17896484D01*
X20127206Y-17896484D02*
X20117682Y-17991722D01*
X20117682Y-17991722D02*
X20127206Y-17982198D01*
X20127206Y-17982198D02*
X20146253Y-17972674D01*
X20146253Y-17972674D02*
X20193872Y-17972674D01*
X20193872Y-17972674D02*
X20212920Y-17982198D01*
X20212920Y-17982198D02*
X20222444Y-17991722D01*
X20222444Y-17991722D02*
X20231968Y-18010770D01*
X20231968Y-18010770D02*
X20231968Y-18058389D01*
X20231968Y-18058389D02*
X20222444Y-18077436D01*
X20222444Y-18077436D02*
X20212920Y-18086960D01*
X20212920Y-18086960D02*
X20193872Y-18096484D01*
X20193872Y-18096484D02*
X20146253Y-18096484D01*
X20146253Y-18096484D02*
X20127206Y-18086960D01*
X20127206Y-18086960D02*
X20117682Y-18077436D01*
X20298634Y-17896484D02*
X20431968Y-17896484D01*
X20431968Y-17896484D02*
X20346253Y-18096484D01*
X20498634Y-17896484D02*
X20498634Y-17934579D01*
X20574825Y-17896484D02*
X20574825Y-17934579D01*
X20870063Y-18172674D02*
X20860539Y-18163150D01*
X20860539Y-18163150D02*
X20841491Y-18134579D01*
X20841491Y-18134579D02*
X20831968Y-18115531D01*
X20831968Y-18115531D02*
X20822444Y-18086960D01*
X20822444Y-18086960D02*
X20812920Y-18039341D01*
X20812920Y-18039341D02*
X20812920Y-18001246D01*
X20812920Y-18001246D02*
X20822444Y-17953627D01*
X20822444Y-17953627D02*
X20831968Y-17925055D01*
X20831968Y-17925055D02*
X20841491Y-17906008D01*
X20841491Y-17906008D02*
X20860539Y-17877436D01*
X20860539Y-17877436D02*
X20870063Y-17867912D01*
X21051015Y-18096484D02*
X20936730Y-18096484D01*
X20993872Y-18096484D02*
X20993872Y-17896484D01*
X20993872Y-17896484D02*
X20974825Y-17925055D01*
X20974825Y-17925055D02*
X20955777Y-17944103D01*
X20955777Y-17944103D02*
X20936730Y-17953627D01*
X21231968Y-17896484D02*
X21136730Y-17896484D01*
X21136730Y-17896484D02*
X21127206Y-17991722D01*
X21127206Y-17991722D02*
X21136730Y-17982198D01*
X21136730Y-17982198D02*
X21155777Y-17972674D01*
X21155777Y-17972674D02*
X21203396Y-17972674D01*
X21203396Y-17972674D02*
X21222444Y-17982198D01*
X21222444Y-17982198D02*
X21231968Y-17991722D01*
X21231968Y-17991722D02*
X21241491Y-18010770D01*
X21241491Y-18010770D02*
X21241491Y-18058389D01*
X21241491Y-18058389D02*
X21231968Y-18077436D01*
X21231968Y-18077436D02*
X21222444Y-18086960D01*
X21222444Y-18086960D02*
X21203396Y-18096484D01*
X21203396Y-18096484D02*
X21155777Y-18096484D01*
X21155777Y-18096484D02*
X21136730Y-18086960D01*
X21136730Y-18086960D02*
X21127206Y-18077436D01*
X21412920Y-17963150D02*
X21412920Y-18096484D01*
X21365301Y-17886960D02*
X21317682Y-18029817D01*
X21317682Y-18029817D02*
X21441491Y-18029817D01*
X21670063Y-18096484D02*
X21670063Y-17896484D01*
X21755777Y-18096484D02*
X21755777Y-17991722D01*
X21755777Y-17991722D02*
X21746253Y-17972674D01*
X21746253Y-17972674D02*
X21727206Y-17963150D01*
X21727206Y-17963150D02*
X21698634Y-17963150D01*
X21698634Y-17963150D02*
X21679587Y-17972674D01*
X21679587Y-17972674D02*
X21670063Y-17982198D01*
X21879587Y-18096484D02*
X21860539Y-18086960D01*
X21860539Y-18086960D02*
X21851015Y-18077436D01*
X21851015Y-18077436D02*
X21841492Y-18058389D01*
X21841492Y-18058389D02*
X21841492Y-18001246D01*
X21841492Y-18001246D02*
X21851015Y-17982198D01*
X21851015Y-17982198D02*
X21860539Y-17972674D01*
X21860539Y-17972674D02*
X21879587Y-17963150D01*
X21879587Y-17963150D02*
X21908158Y-17963150D01*
X21908158Y-17963150D02*
X21927206Y-17972674D01*
X21927206Y-17972674D02*
X21936730Y-17982198D01*
X21936730Y-17982198D02*
X21946253Y-18001246D01*
X21946253Y-18001246D02*
X21946253Y-18058389D01*
X21946253Y-18058389D02*
X21936730Y-18077436D01*
X21936730Y-18077436D02*
X21927206Y-18086960D01*
X21927206Y-18086960D02*
X21908158Y-18096484D01*
X21908158Y-18096484D02*
X21879587Y-18096484D01*
X22060539Y-18096484D02*
X22041492Y-18086960D01*
X22041492Y-18086960D02*
X22031968Y-18067912D01*
X22031968Y-18067912D02*
X22031968Y-17896484D01*
X22212920Y-18086960D02*
X22193873Y-18096484D01*
X22193873Y-18096484D02*
X22155777Y-18096484D01*
X22155777Y-18096484D02*
X22136730Y-18086960D01*
X22136730Y-18086960D02*
X22127206Y-18067912D01*
X22127206Y-18067912D02*
X22127206Y-17991722D01*
X22127206Y-17991722D02*
X22136730Y-17972674D01*
X22136730Y-17972674D02*
X22155777Y-17963150D01*
X22155777Y-17963150D02*
X22193873Y-17963150D01*
X22193873Y-17963150D02*
X22212920Y-17972674D01*
X22212920Y-17972674D02*
X22222444Y-17991722D01*
X22222444Y-17991722D02*
X22222444Y-18010770D01*
X22222444Y-18010770D02*
X22127206Y-18029817D01*
X22298634Y-18086960D02*
X22317682Y-18096484D01*
X22317682Y-18096484D02*
X22355777Y-18096484D01*
X22355777Y-18096484D02*
X22374825Y-18086960D01*
X22374825Y-18086960D02*
X22384349Y-18067912D01*
X22384349Y-18067912D02*
X22384349Y-18058389D01*
X22384349Y-18058389D02*
X22374825Y-18039341D01*
X22374825Y-18039341D02*
X22355777Y-18029817D01*
X22355777Y-18029817D02*
X22327206Y-18029817D01*
X22327206Y-18029817D02*
X22308158Y-18020293D01*
X22308158Y-18020293D02*
X22298634Y-18001246D01*
X22298634Y-18001246D02*
X22298634Y-17991722D01*
X22298634Y-17991722D02*
X22308158Y-17972674D01*
X22308158Y-17972674D02*
X22327206Y-17963150D01*
X22327206Y-17963150D02*
X22355777Y-17963150D01*
X22355777Y-17963150D02*
X22374825Y-17972674D01*
X22451015Y-18172674D02*
X22460539Y-18163150D01*
X22460539Y-18163150D02*
X22479587Y-18134579D01*
X22479587Y-18134579D02*
X22489111Y-18115531D01*
X22489111Y-18115531D02*
X22498634Y-18086960D01*
X22498634Y-18086960D02*
X22508158Y-18039341D01*
X22508158Y-18039341D02*
X22508158Y-18001246D01*
X22508158Y-18001246D02*
X22498634Y-17953627D01*
X22498634Y-17953627D02*
X22489111Y-17925055D01*
X22489111Y-17925055D02*
X22479587Y-17906008D01*
X22479587Y-17906008D02*
X22460539Y-17877436D01*
X22460539Y-17877436D02*
X22451015Y-17867912D01*
D13*
X17295000Y-18269000D02*
G75*
G03*
X17295000Y-18269000I-25000J0D01*
G01*
D11*
X17593872Y-18160484D02*
X17612920Y-18160484D01*
X17612920Y-18160484D02*
X17631967Y-18170008D01*
X17631967Y-18170008D02*
X17641491Y-18179531D01*
X17641491Y-18179531D02*
X17651015Y-18198579D01*
X17651015Y-18198579D02*
X17660539Y-18236674D01*
X17660539Y-18236674D02*
X17660539Y-18284293D01*
X17660539Y-18284293D02*
X17651015Y-18322389D01*
X17651015Y-18322389D02*
X17641491Y-18341436D01*
X17641491Y-18341436D02*
X17631967Y-18350960D01*
X17631967Y-18350960D02*
X17612920Y-18360484D01*
X17612920Y-18360484D02*
X17593872Y-18360484D01*
X17593872Y-18360484D02*
X17574824Y-18350960D01*
X17574824Y-18350960D02*
X17565301Y-18341436D01*
X17565301Y-18341436D02*
X17555777Y-18322389D01*
X17555777Y-18322389D02*
X17546253Y-18284293D01*
X17546253Y-18284293D02*
X17546253Y-18236674D01*
X17546253Y-18236674D02*
X17555777Y-18198579D01*
X17555777Y-18198579D02*
X17565301Y-18179531D01*
X17565301Y-18179531D02*
X17574824Y-18170008D01*
X17574824Y-18170008D02*
X17593872Y-18160484D01*
X17746253Y-18341436D02*
X17755777Y-18350960D01*
X17755777Y-18350960D02*
X17746253Y-18360484D01*
X17746253Y-18360484D02*
X17736729Y-18350960D01*
X17736729Y-18350960D02*
X17746253Y-18341436D01*
X17746253Y-18341436D02*
X17746253Y-18360484D01*
X17936729Y-18160484D02*
X17841491Y-18160484D01*
X17841491Y-18160484D02*
X17831967Y-18255722D01*
X17831967Y-18255722D02*
X17841491Y-18246198D01*
X17841491Y-18246198D02*
X17860539Y-18236674D01*
X17860539Y-18236674D02*
X17908158Y-18236674D01*
X17908158Y-18236674D02*
X17927205Y-18246198D01*
X17927205Y-18246198D02*
X17936729Y-18255722D01*
X17936729Y-18255722D02*
X17946253Y-18274770D01*
X17946253Y-18274770D02*
X17946253Y-18322389D01*
X17946253Y-18322389D02*
X17936729Y-18341436D01*
X17936729Y-18341436D02*
X17927205Y-18350960D01*
X17927205Y-18350960D02*
X17908158Y-18360484D01*
X17908158Y-18360484D02*
X17860539Y-18360484D01*
X17860539Y-18360484D02*
X17841491Y-18350960D01*
X17841491Y-18350960D02*
X17831967Y-18341436D01*
X18070063Y-18160484D02*
X18089110Y-18160484D01*
X18089110Y-18160484D02*
X18108158Y-18170008D01*
X18108158Y-18170008D02*
X18117682Y-18179531D01*
X18117682Y-18179531D02*
X18127205Y-18198579D01*
X18127205Y-18198579D02*
X18136729Y-18236674D01*
X18136729Y-18236674D02*
X18136729Y-18284293D01*
X18136729Y-18284293D02*
X18127205Y-18322389D01*
X18127205Y-18322389D02*
X18117682Y-18341436D01*
X18117682Y-18341436D02*
X18108158Y-18350960D01*
X18108158Y-18350960D02*
X18089110Y-18360484D01*
X18089110Y-18360484D02*
X18070063Y-18360484D01*
X18070063Y-18360484D02*
X18051015Y-18350960D01*
X18051015Y-18350960D02*
X18041491Y-18341436D01*
X18041491Y-18341436D02*
X18031967Y-18322389D01*
X18031967Y-18322389D02*
X18022444Y-18284293D01*
X18022444Y-18284293D02*
X18022444Y-18236674D01*
X18022444Y-18236674D02*
X18031967Y-18198579D01*
X18031967Y-18198579D02*
X18041491Y-18179531D01*
X18041491Y-18179531D02*
X18051015Y-18170008D01*
X18051015Y-18170008D02*
X18070063Y-18160484D01*
X18260539Y-18160484D02*
X18279586Y-18160484D01*
X18279586Y-18160484D02*
X18298634Y-18170008D01*
X18298634Y-18170008D02*
X18308158Y-18179531D01*
X18308158Y-18179531D02*
X18317682Y-18198579D01*
X18317682Y-18198579D02*
X18327205Y-18236674D01*
X18327205Y-18236674D02*
X18327205Y-18284293D01*
X18327205Y-18284293D02*
X18317682Y-18322389D01*
X18317682Y-18322389D02*
X18308158Y-18341436D01*
X18308158Y-18341436D02*
X18298634Y-18350960D01*
X18298634Y-18350960D02*
X18279586Y-18360484D01*
X18279586Y-18360484D02*
X18260539Y-18360484D01*
X18260539Y-18360484D02*
X18241491Y-18350960D01*
X18241491Y-18350960D02*
X18231967Y-18341436D01*
X18231967Y-18341436D02*
X18222444Y-18322389D01*
X18222444Y-18322389D02*
X18212920Y-18284293D01*
X18212920Y-18284293D02*
X18212920Y-18236674D01*
X18212920Y-18236674D02*
X18222444Y-18198579D01*
X18222444Y-18198579D02*
X18231967Y-18179531D01*
X18231967Y-18179531D02*
X18241491Y-18170008D01*
X18241491Y-18170008D02*
X18260539Y-18160484D01*
X18412920Y-18360484D02*
X18412920Y-18227150D01*
X18412920Y-18246198D02*
X18422444Y-18236674D01*
X18422444Y-18236674D02*
X18441491Y-18227150D01*
X18441491Y-18227150D02*
X18470063Y-18227150D01*
X18470063Y-18227150D02*
X18489110Y-18236674D01*
X18489110Y-18236674D02*
X18498634Y-18255722D01*
X18498634Y-18255722D02*
X18498634Y-18360484D01*
X18498634Y-18255722D02*
X18508158Y-18236674D01*
X18508158Y-18236674D02*
X18527205Y-18227150D01*
X18527205Y-18227150D02*
X18555777Y-18227150D01*
X18555777Y-18227150D02*
X18574825Y-18236674D01*
X18574825Y-18236674D02*
X18584348Y-18255722D01*
X18584348Y-18255722D02*
X18584348Y-18360484D01*
X18679586Y-18360484D02*
X18679586Y-18227150D01*
X18679586Y-18246198D02*
X18689110Y-18236674D01*
X18689110Y-18236674D02*
X18708158Y-18227150D01*
X18708158Y-18227150D02*
X18736729Y-18227150D01*
X18736729Y-18227150D02*
X18755777Y-18236674D01*
X18755777Y-18236674D02*
X18765301Y-18255722D01*
X18765301Y-18255722D02*
X18765301Y-18360484D01*
X18765301Y-18255722D02*
X18774825Y-18236674D01*
X18774825Y-18236674D02*
X18793872Y-18227150D01*
X18793872Y-18227150D02*
X18822444Y-18227150D01*
X18822444Y-18227150D02*
X18841491Y-18236674D01*
X18841491Y-18236674D02*
X18851015Y-18255722D01*
X18851015Y-18255722D02*
X18851015Y-18360484D01*
X19241491Y-18150960D02*
X19070063Y-18408103D01*
X19498634Y-18160484D02*
X19517682Y-18160484D01*
X19517682Y-18160484D02*
X19536729Y-18170008D01*
X19536729Y-18170008D02*
X19546253Y-18179531D01*
X19546253Y-18179531D02*
X19555777Y-18198579D01*
X19555777Y-18198579D02*
X19565301Y-18236674D01*
X19565301Y-18236674D02*
X19565301Y-18284293D01*
X19565301Y-18284293D02*
X19555777Y-18322389D01*
X19555777Y-18322389D02*
X19546253Y-18341436D01*
X19546253Y-18341436D02*
X19536729Y-18350960D01*
X19536729Y-18350960D02*
X19517682Y-18360484D01*
X19517682Y-18360484D02*
X19498634Y-18360484D01*
X19498634Y-18360484D02*
X19479587Y-18350960D01*
X19479587Y-18350960D02*
X19470063Y-18341436D01*
X19470063Y-18341436D02*
X19460539Y-18322389D01*
X19460539Y-18322389D02*
X19451015Y-18284293D01*
X19451015Y-18284293D02*
X19451015Y-18236674D01*
X19451015Y-18236674D02*
X19460539Y-18198579D01*
X19460539Y-18198579D02*
X19470063Y-18179531D01*
X19470063Y-18179531D02*
X19479587Y-18170008D01*
X19479587Y-18170008D02*
X19498634Y-18160484D01*
X19651015Y-18341436D02*
X19660539Y-18350960D01*
X19660539Y-18350960D02*
X19651015Y-18360484D01*
X19651015Y-18360484D02*
X19641491Y-18350960D01*
X19641491Y-18350960D02*
X19651015Y-18341436D01*
X19651015Y-18341436D02*
X19651015Y-18360484D01*
X19784348Y-18160484D02*
X19803396Y-18160484D01*
X19803396Y-18160484D02*
X19822444Y-18170008D01*
X19822444Y-18170008D02*
X19831968Y-18179531D01*
X19831968Y-18179531D02*
X19841491Y-18198579D01*
X19841491Y-18198579D02*
X19851015Y-18236674D01*
X19851015Y-18236674D02*
X19851015Y-18284293D01*
X19851015Y-18284293D02*
X19841491Y-18322389D01*
X19841491Y-18322389D02*
X19831968Y-18341436D01*
X19831968Y-18341436D02*
X19822444Y-18350960D01*
X19822444Y-18350960D02*
X19803396Y-18360484D01*
X19803396Y-18360484D02*
X19784348Y-18360484D01*
X19784348Y-18360484D02*
X19765301Y-18350960D01*
X19765301Y-18350960D02*
X19755777Y-18341436D01*
X19755777Y-18341436D02*
X19746253Y-18322389D01*
X19746253Y-18322389D02*
X19736729Y-18284293D01*
X19736729Y-18284293D02*
X19736729Y-18236674D01*
X19736729Y-18236674D02*
X19746253Y-18198579D01*
X19746253Y-18198579D02*
X19755777Y-18179531D01*
X19755777Y-18179531D02*
X19765301Y-18170008D01*
X19765301Y-18170008D02*
X19784348Y-18160484D01*
X20041491Y-18360484D02*
X19927206Y-18360484D01*
X19984348Y-18360484D02*
X19984348Y-18160484D01*
X19984348Y-18160484D02*
X19965301Y-18189055D01*
X19965301Y-18189055D02*
X19946253Y-18208103D01*
X19946253Y-18208103D02*
X19927206Y-18217627D01*
X20136729Y-18360484D02*
X20174825Y-18360484D01*
X20174825Y-18360484D02*
X20193872Y-18350960D01*
X20193872Y-18350960D02*
X20203396Y-18341436D01*
X20203396Y-18341436D02*
X20222444Y-18312865D01*
X20222444Y-18312865D02*
X20231968Y-18274770D01*
X20231968Y-18274770D02*
X20231968Y-18198579D01*
X20231968Y-18198579D02*
X20222444Y-18179531D01*
X20222444Y-18179531D02*
X20212920Y-18170008D01*
X20212920Y-18170008D02*
X20193872Y-18160484D01*
X20193872Y-18160484D02*
X20155777Y-18160484D01*
X20155777Y-18160484D02*
X20136729Y-18170008D01*
X20136729Y-18170008D02*
X20127206Y-18179531D01*
X20127206Y-18179531D02*
X20117682Y-18198579D01*
X20117682Y-18198579D02*
X20117682Y-18246198D01*
X20117682Y-18246198D02*
X20127206Y-18265246D01*
X20127206Y-18265246D02*
X20136729Y-18274770D01*
X20136729Y-18274770D02*
X20155777Y-18284293D01*
X20155777Y-18284293D02*
X20193872Y-18284293D01*
X20193872Y-18284293D02*
X20212920Y-18274770D01*
X20212920Y-18274770D02*
X20222444Y-18265246D01*
X20222444Y-18265246D02*
X20231968Y-18246198D01*
X20298634Y-18160484D02*
X20431968Y-18160484D01*
X20431968Y-18160484D02*
X20346253Y-18360484D01*
X20498634Y-18160484D02*
X20498634Y-18198579D01*
X20574825Y-18160484D02*
X20574825Y-18198579D01*
X20870063Y-18436674D02*
X20860539Y-18427150D01*
X20860539Y-18427150D02*
X20841491Y-18398579D01*
X20841491Y-18398579D02*
X20831968Y-18379531D01*
X20831968Y-18379531D02*
X20822444Y-18350960D01*
X20822444Y-18350960D02*
X20812920Y-18303341D01*
X20812920Y-18303341D02*
X20812920Y-18265246D01*
X20812920Y-18265246D02*
X20822444Y-18217627D01*
X20822444Y-18217627D02*
X20831968Y-18189055D01*
X20831968Y-18189055D02*
X20841491Y-18170008D01*
X20841491Y-18170008D02*
X20860539Y-18141436D01*
X20860539Y-18141436D02*
X20870063Y-18131912D01*
X20936730Y-18179531D02*
X20946253Y-18170008D01*
X20946253Y-18170008D02*
X20965301Y-18160484D01*
X20965301Y-18160484D02*
X21012920Y-18160484D01*
X21012920Y-18160484D02*
X21031968Y-18170008D01*
X21031968Y-18170008D02*
X21041491Y-18179531D01*
X21041491Y-18179531D02*
X21051015Y-18198579D01*
X21051015Y-18198579D02*
X21051015Y-18217627D01*
X21051015Y-18217627D02*
X21041491Y-18246198D01*
X21041491Y-18246198D02*
X20927206Y-18360484D01*
X20927206Y-18360484D02*
X21051015Y-18360484D01*
X21289111Y-18360484D02*
X21289111Y-18160484D01*
X21374825Y-18360484D02*
X21374825Y-18255722D01*
X21374825Y-18255722D02*
X21365301Y-18236674D01*
X21365301Y-18236674D02*
X21346253Y-18227150D01*
X21346253Y-18227150D02*
X21317682Y-18227150D01*
X21317682Y-18227150D02*
X21298634Y-18236674D01*
X21298634Y-18236674D02*
X21289111Y-18246198D01*
X21498634Y-18360484D02*
X21479587Y-18350960D01*
X21479587Y-18350960D02*
X21470063Y-18341436D01*
X21470063Y-18341436D02*
X21460539Y-18322389D01*
X21460539Y-18322389D02*
X21460539Y-18265246D01*
X21460539Y-18265246D02*
X21470063Y-18246198D01*
X21470063Y-18246198D02*
X21479587Y-18236674D01*
X21479587Y-18236674D02*
X21498634Y-18227150D01*
X21498634Y-18227150D02*
X21527206Y-18227150D01*
X21527206Y-18227150D02*
X21546253Y-18236674D01*
X21546253Y-18236674D02*
X21555777Y-18246198D01*
X21555777Y-18246198D02*
X21565301Y-18265246D01*
X21565301Y-18265246D02*
X21565301Y-18322389D01*
X21565301Y-18322389D02*
X21555777Y-18341436D01*
X21555777Y-18341436D02*
X21546253Y-18350960D01*
X21546253Y-18350960D02*
X21527206Y-18360484D01*
X21527206Y-18360484D02*
X21498634Y-18360484D01*
X21679587Y-18360484D02*
X21660539Y-18350960D01*
X21660539Y-18350960D02*
X21651015Y-18331912D01*
X21651015Y-18331912D02*
X21651015Y-18160484D01*
X21831968Y-18350960D02*
X21812920Y-18360484D01*
X21812920Y-18360484D02*
X21774825Y-18360484D01*
X21774825Y-18360484D02*
X21755777Y-18350960D01*
X21755777Y-18350960D02*
X21746253Y-18331912D01*
X21746253Y-18331912D02*
X21746253Y-18255722D01*
X21746253Y-18255722D02*
X21755777Y-18236674D01*
X21755777Y-18236674D02*
X21774825Y-18227150D01*
X21774825Y-18227150D02*
X21812920Y-18227150D01*
X21812920Y-18227150D02*
X21831968Y-18236674D01*
X21831968Y-18236674D02*
X21841492Y-18255722D01*
X21841492Y-18255722D02*
X21841492Y-18274770D01*
X21841492Y-18274770D02*
X21746253Y-18293817D01*
X21917682Y-18350960D02*
X21936730Y-18360484D01*
X21936730Y-18360484D02*
X21974825Y-18360484D01*
X21974825Y-18360484D02*
X21993873Y-18350960D01*
X21993873Y-18350960D02*
X22003396Y-18331912D01*
X22003396Y-18331912D02*
X22003396Y-18322389D01*
X22003396Y-18322389D02*
X21993873Y-18303341D01*
X21993873Y-18303341D02*
X21974825Y-18293817D01*
X21974825Y-18293817D02*
X21946253Y-18293817D01*
X21946253Y-18293817D02*
X21927206Y-18284293D01*
X21927206Y-18284293D02*
X21917682Y-18265246D01*
X21917682Y-18265246D02*
X21917682Y-18255722D01*
X21917682Y-18255722D02*
X21927206Y-18236674D01*
X21927206Y-18236674D02*
X21946253Y-18227150D01*
X21946253Y-18227150D02*
X21974825Y-18227150D01*
X21974825Y-18227150D02*
X21993873Y-18236674D01*
X22241492Y-18284293D02*
X22393873Y-18284293D01*
X22317682Y-18360484D02*
X22317682Y-18208103D01*
X22727206Y-18227150D02*
X22727206Y-18360484D01*
X22679587Y-18150960D02*
X22631968Y-18293817D01*
X22631968Y-18293817D02*
X22755777Y-18293817D01*
X22974825Y-18350960D02*
X22993873Y-18360484D01*
X22993873Y-18360484D02*
X23031968Y-18360484D01*
X23031968Y-18360484D02*
X23051015Y-18350960D01*
X23051015Y-18350960D02*
X23060539Y-18331912D01*
X23060539Y-18331912D02*
X23060539Y-18322389D01*
X23060539Y-18322389D02*
X23051015Y-18303341D01*
X23051015Y-18303341D02*
X23031968Y-18293817D01*
X23031968Y-18293817D02*
X23003396Y-18293817D01*
X23003396Y-18293817D02*
X22984349Y-18284293D01*
X22984349Y-18284293D02*
X22974825Y-18265246D01*
X22974825Y-18265246D02*
X22974825Y-18255722D01*
X22974825Y-18255722D02*
X22984349Y-18236674D01*
X22984349Y-18236674D02*
X23003396Y-18227150D01*
X23003396Y-18227150D02*
X23031968Y-18227150D01*
X23031968Y-18227150D02*
X23051015Y-18236674D01*
X23174825Y-18360484D02*
X23155777Y-18350960D01*
X23155777Y-18350960D02*
X23146254Y-18331912D01*
X23146254Y-18331912D02*
X23146254Y-18160484D01*
X23279587Y-18360484D02*
X23260539Y-18350960D01*
X23260539Y-18350960D02*
X23251015Y-18341436D01*
X23251015Y-18341436D02*
X23241492Y-18322389D01*
X23241492Y-18322389D02*
X23241492Y-18265246D01*
X23241492Y-18265246D02*
X23251015Y-18246198D01*
X23251015Y-18246198D02*
X23260539Y-18236674D01*
X23260539Y-18236674D02*
X23279587Y-18227150D01*
X23279587Y-18227150D02*
X23308158Y-18227150D01*
X23308158Y-18227150D02*
X23327206Y-18236674D01*
X23327206Y-18236674D02*
X23336730Y-18246198D01*
X23336730Y-18246198D02*
X23346254Y-18265246D01*
X23346254Y-18265246D02*
X23346254Y-18322389D01*
X23346254Y-18322389D02*
X23336730Y-18341436D01*
X23336730Y-18341436D02*
X23327206Y-18350960D01*
X23327206Y-18350960D02*
X23308158Y-18360484D01*
X23308158Y-18360484D02*
X23279587Y-18360484D01*
X23403396Y-18227150D02*
X23479587Y-18227150D01*
X23431968Y-18160484D02*
X23431968Y-18331912D01*
X23431968Y-18331912D02*
X23441492Y-18350960D01*
X23441492Y-18350960D02*
X23460539Y-18360484D01*
X23460539Y-18360484D02*
X23479587Y-18360484D01*
X23536730Y-18350960D02*
X23555777Y-18360484D01*
X23555777Y-18360484D02*
X23593873Y-18360484D01*
X23593873Y-18360484D02*
X23612920Y-18350960D01*
X23612920Y-18350960D02*
X23622444Y-18331912D01*
X23622444Y-18331912D02*
X23622444Y-18322389D01*
X23622444Y-18322389D02*
X23612920Y-18303341D01*
X23612920Y-18303341D02*
X23593873Y-18293817D01*
X23593873Y-18293817D02*
X23565301Y-18293817D01*
X23565301Y-18293817D02*
X23546254Y-18284293D01*
X23546254Y-18284293D02*
X23536730Y-18265246D01*
X23536730Y-18265246D02*
X23536730Y-18255722D01*
X23536730Y-18255722D02*
X23546254Y-18236674D01*
X23546254Y-18236674D02*
X23565301Y-18227150D01*
X23565301Y-18227150D02*
X23593873Y-18227150D01*
X23593873Y-18227150D02*
X23612920Y-18236674D01*
X23689111Y-18436674D02*
X23698635Y-18427150D01*
X23698635Y-18427150D02*
X23717682Y-18398579D01*
X23717682Y-18398579D02*
X23727206Y-18379531D01*
X23727206Y-18379531D02*
X23736730Y-18350960D01*
X23736730Y-18350960D02*
X23746254Y-18303341D01*
X23746254Y-18303341D02*
X23746254Y-18265246D01*
X23746254Y-18265246D02*
X23736730Y-18217627D01*
X23736730Y-18217627D02*
X23727206Y-18189055D01*
X23727206Y-18189055D02*
X23717682Y-18170008D01*
X23717682Y-18170008D02*
X23698635Y-18141436D01*
X23698635Y-18141436D02*
X23689111Y-18131912D01*
D14*
X17260000Y-18498000D02*
X17260000Y-18568000D01*
X17225000Y-18533000D02*
X17295000Y-18533000D01*
D11*
X17593872Y-18424484D02*
X17612920Y-18424484D01*
X17612920Y-18424484D02*
X17631967Y-18434008D01*
X17631967Y-18434008D02*
X17641491Y-18443531D01*
X17641491Y-18443531D02*
X17651015Y-18462579D01*
X17651015Y-18462579D02*
X17660539Y-18500674D01*
X17660539Y-18500674D02*
X17660539Y-18548293D01*
X17660539Y-18548293D02*
X17651015Y-18586389D01*
X17651015Y-18586389D02*
X17641491Y-18605436D01*
X17641491Y-18605436D02*
X17631967Y-18614960D01*
X17631967Y-18614960D02*
X17612920Y-18624484D01*
X17612920Y-18624484D02*
X17593872Y-18624484D01*
X17593872Y-18624484D02*
X17574824Y-18614960D01*
X17574824Y-18614960D02*
X17565301Y-18605436D01*
X17565301Y-18605436D02*
X17555777Y-18586389D01*
X17555777Y-18586389D02*
X17546253Y-18548293D01*
X17546253Y-18548293D02*
X17546253Y-18500674D01*
X17546253Y-18500674D02*
X17555777Y-18462579D01*
X17555777Y-18462579D02*
X17565301Y-18443531D01*
X17565301Y-18443531D02*
X17574824Y-18434008D01*
X17574824Y-18434008D02*
X17593872Y-18424484D01*
X17746253Y-18605436D02*
X17755777Y-18614960D01*
X17755777Y-18614960D02*
X17746253Y-18624484D01*
X17746253Y-18624484D02*
X17736729Y-18614960D01*
X17736729Y-18614960D02*
X17746253Y-18605436D01*
X17746253Y-18605436D02*
X17746253Y-18624484D01*
X17822444Y-18424484D02*
X17955777Y-18424484D01*
X17955777Y-18424484D02*
X17870063Y-18624484D01*
X18070063Y-18424484D02*
X18089110Y-18424484D01*
X18089110Y-18424484D02*
X18108158Y-18434008D01*
X18108158Y-18434008D02*
X18117682Y-18443531D01*
X18117682Y-18443531D02*
X18127205Y-18462579D01*
X18127205Y-18462579D02*
X18136729Y-18500674D01*
X18136729Y-18500674D02*
X18136729Y-18548293D01*
X18136729Y-18548293D02*
X18127205Y-18586389D01*
X18127205Y-18586389D02*
X18117682Y-18605436D01*
X18117682Y-18605436D02*
X18108158Y-18614960D01*
X18108158Y-18614960D02*
X18089110Y-18624484D01*
X18089110Y-18624484D02*
X18070063Y-18624484D01*
X18070063Y-18624484D02*
X18051015Y-18614960D01*
X18051015Y-18614960D02*
X18041491Y-18605436D01*
X18041491Y-18605436D02*
X18031967Y-18586389D01*
X18031967Y-18586389D02*
X18022444Y-18548293D01*
X18022444Y-18548293D02*
X18022444Y-18500674D01*
X18022444Y-18500674D02*
X18031967Y-18462579D01*
X18031967Y-18462579D02*
X18041491Y-18443531D01*
X18041491Y-18443531D02*
X18051015Y-18434008D01*
X18051015Y-18434008D02*
X18070063Y-18424484D01*
X18260539Y-18424484D02*
X18279586Y-18424484D01*
X18279586Y-18424484D02*
X18298634Y-18434008D01*
X18298634Y-18434008D02*
X18308158Y-18443531D01*
X18308158Y-18443531D02*
X18317682Y-18462579D01*
X18317682Y-18462579D02*
X18327205Y-18500674D01*
X18327205Y-18500674D02*
X18327205Y-18548293D01*
X18327205Y-18548293D02*
X18317682Y-18586389D01*
X18317682Y-18586389D02*
X18308158Y-18605436D01*
X18308158Y-18605436D02*
X18298634Y-18614960D01*
X18298634Y-18614960D02*
X18279586Y-18624484D01*
X18279586Y-18624484D02*
X18260539Y-18624484D01*
X18260539Y-18624484D02*
X18241491Y-18614960D01*
X18241491Y-18614960D02*
X18231967Y-18605436D01*
X18231967Y-18605436D02*
X18222444Y-18586389D01*
X18222444Y-18586389D02*
X18212920Y-18548293D01*
X18212920Y-18548293D02*
X18212920Y-18500674D01*
X18212920Y-18500674D02*
X18222444Y-18462579D01*
X18222444Y-18462579D02*
X18231967Y-18443531D01*
X18231967Y-18443531D02*
X18241491Y-18434008D01*
X18241491Y-18434008D02*
X18260539Y-18424484D01*
X18412920Y-18624484D02*
X18412920Y-18491150D01*
X18412920Y-18510198D02*
X18422444Y-18500674D01*
X18422444Y-18500674D02*
X18441491Y-18491150D01*
X18441491Y-18491150D02*
X18470063Y-18491150D01*
X18470063Y-18491150D02*
X18489110Y-18500674D01*
X18489110Y-18500674D02*
X18498634Y-18519722D01*
X18498634Y-18519722D02*
X18498634Y-18624484D01*
X18498634Y-18519722D02*
X18508158Y-18500674D01*
X18508158Y-18500674D02*
X18527205Y-18491150D01*
X18527205Y-18491150D02*
X18555777Y-18491150D01*
X18555777Y-18491150D02*
X18574825Y-18500674D01*
X18574825Y-18500674D02*
X18584348Y-18519722D01*
X18584348Y-18519722D02*
X18584348Y-18624484D01*
X18679586Y-18624484D02*
X18679586Y-18491150D01*
X18679586Y-18510198D02*
X18689110Y-18500674D01*
X18689110Y-18500674D02*
X18708158Y-18491150D01*
X18708158Y-18491150D02*
X18736729Y-18491150D01*
X18736729Y-18491150D02*
X18755777Y-18500674D01*
X18755777Y-18500674D02*
X18765301Y-18519722D01*
X18765301Y-18519722D02*
X18765301Y-18624484D01*
X18765301Y-18519722D02*
X18774825Y-18500674D01*
X18774825Y-18500674D02*
X18793872Y-18491150D01*
X18793872Y-18491150D02*
X18822444Y-18491150D01*
X18822444Y-18491150D02*
X18841491Y-18500674D01*
X18841491Y-18500674D02*
X18851015Y-18519722D01*
X18851015Y-18519722D02*
X18851015Y-18624484D01*
X19241491Y-18414960D02*
X19070063Y-18672103D01*
X19498634Y-18424484D02*
X19517682Y-18424484D01*
X19517682Y-18424484D02*
X19536729Y-18434008D01*
X19536729Y-18434008D02*
X19546253Y-18443531D01*
X19546253Y-18443531D02*
X19555777Y-18462579D01*
X19555777Y-18462579D02*
X19565301Y-18500674D01*
X19565301Y-18500674D02*
X19565301Y-18548293D01*
X19565301Y-18548293D02*
X19555777Y-18586389D01*
X19555777Y-18586389D02*
X19546253Y-18605436D01*
X19546253Y-18605436D02*
X19536729Y-18614960D01*
X19536729Y-18614960D02*
X19517682Y-18624484D01*
X19517682Y-18624484D02*
X19498634Y-18624484D01*
X19498634Y-18624484D02*
X19479587Y-18614960D01*
X19479587Y-18614960D02*
X19470063Y-18605436D01*
X19470063Y-18605436D02*
X19460539Y-18586389D01*
X19460539Y-18586389D02*
X19451015Y-18548293D01*
X19451015Y-18548293D02*
X19451015Y-18500674D01*
X19451015Y-18500674D02*
X19460539Y-18462579D01*
X19460539Y-18462579D02*
X19470063Y-18443531D01*
X19470063Y-18443531D02*
X19479587Y-18434008D01*
X19479587Y-18434008D02*
X19498634Y-18424484D01*
X19651015Y-18605436D02*
X19660539Y-18614960D01*
X19660539Y-18614960D02*
X19651015Y-18624484D01*
X19651015Y-18624484D02*
X19641491Y-18614960D01*
X19641491Y-18614960D02*
X19651015Y-18605436D01*
X19651015Y-18605436D02*
X19651015Y-18624484D01*
X19784348Y-18424484D02*
X19803396Y-18424484D01*
X19803396Y-18424484D02*
X19822444Y-18434008D01*
X19822444Y-18434008D02*
X19831968Y-18443531D01*
X19831968Y-18443531D02*
X19841491Y-18462579D01*
X19841491Y-18462579D02*
X19851015Y-18500674D01*
X19851015Y-18500674D02*
X19851015Y-18548293D01*
X19851015Y-18548293D02*
X19841491Y-18586389D01*
X19841491Y-18586389D02*
X19831968Y-18605436D01*
X19831968Y-18605436D02*
X19822444Y-18614960D01*
X19822444Y-18614960D02*
X19803396Y-18624484D01*
X19803396Y-18624484D02*
X19784348Y-18624484D01*
X19784348Y-18624484D02*
X19765301Y-18614960D01*
X19765301Y-18614960D02*
X19755777Y-18605436D01*
X19755777Y-18605436D02*
X19746253Y-18586389D01*
X19746253Y-18586389D02*
X19736729Y-18548293D01*
X19736729Y-18548293D02*
X19736729Y-18500674D01*
X19736729Y-18500674D02*
X19746253Y-18462579D01*
X19746253Y-18462579D02*
X19755777Y-18443531D01*
X19755777Y-18443531D02*
X19765301Y-18434008D01*
X19765301Y-18434008D02*
X19784348Y-18424484D01*
X19927206Y-18443531D02*
X19936729Y-18434008D01*
X19936729Y-18434008D02*
X19955777Y-18424484D01*
X19955777Y-18424484D02*
X20003396Y-18424484D01*
X20003396Y-18424484D02*
X20022444Y-18434008D01*
X20022444Y-18434008D02*
X20031968Y-18443531D01*
X20031968Y-18443531D02*
X20041491Y-18462579D01*
X20041491Y-18462579D02*
X20041491Y-18481627D01*
X20041491Y-18481627D02*
X20031968Y-18510198D01*
X20031968Y-18510198D02*
X19917682Y-18624484D01*
X19917682Y-18624484D02*
X20041491Y-18624484D01*
X20108158Y-18424484D02*
X20241491Y-18424484D01*
X20241491Y-18424484D02*
X20155777Y-18624484D01*
X20403396Y-18424484D02*
X20365301Y-18424484D01*
X20365301Y-18424484D02*
X20346253Y-18434008D01*
X20346253Y-18434008D02*
X20336729Y-18443531D01*
X20336729Y-18443531D02*
X20317682Y-18472103D01*
X20317682Y-18472103D02*
X20308158Y-18510198D01*
X20308158Y-18510198D02*
X20308158Y-18586389D01*
X20308158Y-18586389D02*
X20317682Y-18605436D01*
X20317682Y-18605436D02*
X20327206Y-18614960D01*
X20327206Y-18614960D02*
X20346253Y-18624484D01*
X20346253Y-18624484D02*
X20384349Y-18624484D01*
X20384349Y-18624484D02*
X20403396Y-18614960D01*
X20403396Y-18614960D02*
X20412920Y-18605436D01*
X20412920Y-18605436D02*
X20422444Y-18586389D01*
X20422444Y-18586389D02*
X20422444Y-18538770D01*
X20422444Y-18538770D02*
X20412920Y-18519722D01*
X20412920Y-18519722D02*
X20403396Y-18510198D01*
X20403396Y-18510198D02*
X20384349Y-18500674D01*
X20384349Y-18500674D02*
X20346253Y-18500674D01*
X20346253Y-18500674D02*
X20327206Y-18510198D01*
X20327206Y-18510198D02*
X20317682Y-18519722D01*
X20317682Y-18519722D02*
X20308158Y-18538770D01*
X20498634Y-18424484D02*
X20498634Y-18462579D01*
X20574825Y-18424484D02*
X20574825Y-18462579D01*
X20870063Y-18700674D02*
X20860539Y-18691150D01*
X20860539Y-18691150D02*
X20841491Y-18662579D01*
X20841491Y-18662579D02*
X20831968Y-18643531D01*
X20831968Y-18643531D02*
X20822444Y-18614960D01*
X20822444Y-18614960D02*
X20812920Y-18567341D01*
X20812920Y-18567341D02*
X20812920Y-18529246D01*
X20812920Y-18529246D02*
X20822444Y-18481627D01*
X20822444Y-18481627D02*
X20831968Y-18453055D01*
X20831968Y-18453055D02*
X20841491Y-18434008D01*
X20841491Y-18434008D02*
X20860539Y-18405436D01*
X20860539Y-18405436D02*
X20870063Y-18395912D01*
X21051015Y-18624484D02*
X20936730Y-18624484D01*
X20993872Y-18624484D02*
X20993872Y-18424484D01*
X20993872Y-18424484D02*
X20974825Y-18453055D01*
X20974825Y-18453055D02*
X20955777Y-18472103D01*
X20955777Y-18472103D02*
X20936730Y-18481627D01*
X21165301Y-18510198D02*
X21146253Y-18500674D01*
X21146253Y-18500674D02*
X21136730Y-18491150D01*
X21136730Y-18491150D02*
X21127206Y-18472103D01*
X21127206Y-18472103D02*
X21127206Y-18462579D01*
X21127206Y-18462579D02*
X21136730Y-18443531D01*
X21136730Y-18443531D02*
X21146253Y-18434008D01*
X21146253Y-18434008D02*
X21165301Y-18424484D01*
X21165301Y-18424484D02*
X21203396Y-18424484D01*
X21203396Y-18424484D02*
X21222444Y-18434008D01*
X21222444Y-18434008D02*
X21231968Y-18443531D01*
X21231968Y-18443531D02*
X21241491Y-18462579D01*
X21241491Y-18462579D02*
X21241491Y-18472103D01*
X21241491Y-18472103D02*
X21231968Y-18491150D01*
X21231968Y-18491150D02*
X21222444Y-18500674D01*
X21222444Y-18500674D02*
X21203396Y-18510198D01*
X21203396Y-18510198D02*
X21165301Y-18510198D01*
X21165301Y-18510198D02*
X21146253Y-18519722D01*
X21146253Y-18519722D02*
X21136730Y-18529246D01*
X21136730Y-18529246D02*
X21127206Y-18548293D01*
X21127206Y-18548293D02*
X21127206Y-18586389D01*
X21127206Y-18586389D02*
X21136730Y-18605436D01*
X21136730Y-18605436D02*
X21146253Y-18614960D01*
X21146253Y-18614960D02*
X21165301Y-18624484D01*
X21165301Y-18624484D02*
X21203396Y-18624484D01*
X21203396Y-18624484D02*
X21222444Y-18614960D01*
X21222444Y-18614960D02*
X21231968Y-18605436D01*
X21231968Y-18605436D02*
X21241491Y-18586389D01*
X21241491Y-18586389D02*
X21241491Y-18548293D01*
X21241491Y-18548293D02*
X21231968Y-18529246D01*
X21231968Y-18529246D02*
X21222444Y-18519722D01*
X21222444Y-18519722D02*
X21203396Y-18510198D01*
X21479587Y-18624484D02*
X21479587Y-18424484D01*
X21565301Y-18624484D02*
X21565301Y-18519722D01*
X21565301Y-18519722D02*
X21555777Y-18500674D01*
X21555777Y-18500674D02*
X21536730Y-18491150D01*
X21536730Y-18491150D02*
X21508158Y-18491150D01*
X21508158Y-18491150D02*
X21489111Y-18500674D01*
X21489111Y-18500674D02*
X21479587Y-18510198D01*
X21689111Y-18624484D02*
X21670063Y-18614960D01*
X21670063Y-18614960D02*
X21660539Y-18605436D01*
X21660539Y-18605436D02*
X21651015Y-18586389D01*
X21651015Y-18586389D02*
X21651015Y-18529246D01*
X21651015Y-18529246D02*
X21660539Y-18510198D01*
X21660539Y-18510198D02*
X21670063Y-18500674D01*
X21670063Y-18500674D02*
X21689111Y-18491150D01*
X21689111Y-18491150D02*
X21717682Y-18491150D01*
X21717682Y-18491150D02*
X21736730Y-18500674D01*
X21736730Y-18500674D02*
X21746253Y-18510198D01*
X21746253Y-18510198D02*
X21755777Y-18529246D01*
X21755777Y-18529246D02*
X21755777Y-18586389D01*
X21755777Y-18586389D02*
X21746253Y-18605436D01*
X21746253Y-18605436D02*
X21736730Y-18614960D01*
X21736730Y-18614960D02*
X21717682Y-18624484D01*
X21717682Y-18624484D02*
X21689111Y-18624484D01*
X21870063Y-18624484D02*
X21851015Y-18614960D01*
X21851015Y-18614960D02*
X21841492Y-18595912D01*
X21841492Y-18595912D02*
X21841492Y-18424484D01*
X22022444Y-18614960D02*
X22003396Y-18624484D01*
X22003396Y-18624484D02*
X21965301Y-18624484D01*
X21965301Y-18624484D02*
X21946253Y-18614960D01*
X21946253Y-18614960D02*
X21936730Y-18595912D01*
X21936730Y-18595912D02*
X21936730Y-18519722D01*
X21936730Y-18519722D02*
X21946253Y-18500674D01*
X21946253Y-18500674D02*
X21965301Y-18491150D01*
X21965301Y-18491150D02*
X22003396Y-18491150D01*
X22003396Y-18491150D02*
X22022444Y-18500674D01*
X22022444Y-18500674D02*
X22031968Y-18519722D01*
X22031968Y-18519722D02*
X22031968Y-18538770D01*
X22031968Y-18538770D02*
X21936730Y-18557817D01*
X22108158Y-18614960D02*
X22127206Y-18624484D01*
X22127206Y-18624484D02*
X22165301Y-18624484D01*
X22165301Y-18624484D02*
X22184349Y-18614960D01*
X22184349Y-18614960D02*
X22193873Y-18595912D01*
X22193873Y-18595912D02*
X22193873Y-18586389D01*
X22193873Y-18586389D02*
X22184349Y-18567341D01*
X22184349Y-18567341D02*
X22165301Y-18557817D01*
X22165301Y-18557817D02*
X22136730Y-18557817D01*
X22136730Y-18557817D02*
X22117682Y-18548293D01*
X22117682Y-18548293D02*
X22108158Y-18529246D01*
X22108158Y-18529246D02*
X22108158Y-18519722D01*
X22108158Y-18519722D02*
X22117682Y-18500674D01*
X22117682Y-18500674D02*
X22136730Y-18491150D01*
X22136730Y-18491150D02*
X22165301Y-18491150D01*
X22165301Y-18491150D02*
X22184349Y-18500674D01*
X22260539Y-18700674D02*
X22270063Y-18691150D01*
X22270063Y-18691150D02*
X22289111Y-18662579D01*
X22289111Y-18662579D02*
X22298634Y-18643531D01*
X22298634Y-18643531D02*
X22308158Y-18614960D01*
X22308158Y-18614960D02*
X22317682Y-18567341D01*
X22317682Y-18567341D02*
X22317682Y-18529246D01*
X22317682Y-18529246D02*
X22308158Y-18481627D01*
X22308158Y-18481627D02*
X22298634Y-18453055D01*
X22298634Y-18453055D02*
X22289111Y-18434008D01*
X22289111Y-18434008D02*
X22270063Y-18405436D01*
X22270063Y-18405436D02*
X22260539Y-18395912D01*
D15*
X17281820Y-18828820D02*
X17281820Y-18765180D01*
X17218180Y-18765180D01*
X17218180Y-18828820D01*
X17281820Y-18828820D01*
D11*
X17593872Y-18688484D02*
X17612920Y-18688484D01*
X17612920Y-18688484D02*
X17631967Y-18698008D01*
X17631967Y-18698008D02*
X17641491Y-18707531D01*
X17641491Y-18707531D02*
X17651015Y-18726579D01*
X17651015Y-18726579D02*
X17660539Y-18764674D01*
X17660539Y-18764674D02*
X17660539Y-18812293D01*
X17660539Y-18812293D02*
X17651015Y-18850389D01*
X17651015Y-18850389D02*
X17641491Y-18869436D01*
X17641491Y-18869436D02*
X17631967Y-18878960D01*
X17631967Y-18878960D02*
X17612920Y-18888484D01*
X17612920Y-18888484D02*
X17593872Y-18888484D01*
X17593872Y-18888484D02*
X17574824Y-18878960D01*
X17574824Y-18878960D02*
X17565301Y-18869436D01*
X17565301Y-18869436D02*
X17555777Y-18850389D01*
X17555777Y-18850389D02*
X17546253Y-18812293D01*
X17546253Y-18812293D02*
X17546253Y-18764674D01*
X17546253Y-18764674D02*
X17555777Y-18726579D01*
X17555777Y-18726579D02*
X17565301Y-18707531D01*
X17565301Y-18707531D02*
X17574824Y-18698008D01*
X17574824Y-18698008D02*
X17593872Y-18688484D01*
X17746253Y-18869436D02*
X17755777Y-18878960D01*
X17755777Y-18878960D02*
X17746253Y-18888484D01*
X17746253Y-18888484D02*
X17736729Y-18878960D01*
X17736729Y-18878960D02*
X17746253Y-18869436D01*
X17746253Y-18869436D02*
X17746253Y-18888484D01*
X17851015Y-18888484D02*
X17889110Y-18888484D01*
X17889110Y-18888484D02*
X17908158Y-18878960D01*
X17908158Y-18878960D02*
X17917682Y-18869436D01*
X17917682Y-18869436D02*
X17936729Y-18840865D01*
X17936729Y-18840865D02*
X17946253Y-18802770D01*
X17946253Y-18802770D02*
X17946253Y-18726579D01*
X17946253Y-18726579D02*
X17936729Y-18707531D01*
X17936729Y-18707531D02*
X17927205Y-18698008D01*
X17927205Y-18698008D02*
X17908158Y-18688484D01*
X17908158Y-18688484D02*
X17870063Y-18688484D01*
X17870063Y-18688484D02*
X17851015Y-18698008D01*
X17851015Y-18698008D02*
X17841491Y-18707531D01*
X17841491Y-18707531D02*
X17831967Y-18726579D01*
X17831967Y-18726579D02*
X17831967Y-18774198D01*
X17831967Y-18774198D02*
X17841491Y-18793246D01*
X17841491Y-18793246D02*
X17851015Y-18802770D01*
X17851015Y-18802770D02*
X17870063Y-18812293D01*
X17870063Y-18812293D02*
X17908158Y-18812293D01*
X17908158Y-18812293D02*
X17927205Y-18802770D01*
X17927205Y-18802770D02*
X17936729Y-18793246D01*
X17936729Y-18793246D02*
X17946253Y-18774198D01*
X18070063Y-18688484D02*
X18089110Y-18688484D01*
X18089110Y-18688484D02*
X18108158Y-18698008D01*
X18108158Y-18698008D02*
X18117682Y-18707531D01*
X18117682Y-18707531D02*
X18127205Y-18726579D01*
X18127205Y-18726579D02*
X18136729Y-18764674D01*
X18136729Y-18764674D02*
X18136729Y-18812293D01*
X18136729Y-18812293D02*
X18127205Y-18850389D01*
X18127205Y-18850389D02*
X18117682Y-18869436D01*
X18117682Y-18869436D02*
X18108158Y-18878960D01*
X18108158Y-18878960D02*
X18089110Y-18888484D01*
X18089110Y-18888484D02*
X18070063Y-18888484D01*
X18070063Y-18888484D02*
X18051015Y-18878960D01*
X18051015Y-18878960D02*
X18041491Y-18869436D01*
X18041491Y-18869436D02*
X18031967Y-18850389D01*
X18031967Y-18850389D02*
X18022444Y-18812293D01*
X18022444Y-18812293D02*
X18022444Y-18764674D01*
X18022444Y-18764674D02*
X18031967Y-18726579D01*
X18031967Y-18726579D02*
X18041491Y-18707531D01*
X18041491Y-18707531D02*
X18051015Y-18698008D01*
X18051015Y-18698008D02*
X18070063Y-18688484D01*
X18260539Y-18688484D02*
X18279586Y-18688484D01*
X18279586Y-18688484D02*
X18298634Y-18698008D01*
X18298634Y-18698008D02*
X18308158Y-18707531D01*
X18308158Y-18707531D02*
X18317682Y-18726579D01*
X18317682Y-18726579D02*
X18327205Y-18764674D01*
X18327205Y-18764674D02*
X18327205Y-18812293D01*
X18327205Y-18812293D02*
X18317682Y-18850389D01*
X18317682Y-18850389D02*
X18308158Y-18869436D01*
X18308158Y-18869436D02*
X18298634Y-18878960D01*
X18298634Y-18878960D02*
X18279586Y-18888484D01*
X18279586Y-18888484D02*
X18260539Y-18888484D01*
X18260539Y-18888484D02*
X18241491Y-18878960D01*
X18241491Y-18878960D02*
X18231967Y-18869436D01*
X18231967Y-18869436D02*
X18222444Y-18850389D01*
X18222444Y-18850389D02*
X18212920Y-18812293D01*
X18212920Y-18812293D02*
X18212920Y-18764674D01*
X18212920Y-18764674D02*
X18222444Y-18726579D01*
X18222444Y-18726579D02*
X18231967Y-18707531D01*
X18231967Y-18707531D02*
X18241491Y-18698008D01*
X18241491Y-18698008D02*
X18260539Y-18688484D01*
X18412920Y-18888484D02*
X18412920Y-18755150D01*
X18412920Y-18774198D02*
X18422444Y-18764674D01*
X18422444Y-18764674D02*
X18441491Y-18755150D01*
X18441491Y-18755150D02*
X18470063Y-18755150D01*
X18470063Y-18755150D02*
X18489110Y-18764674D01*
X18489110Y-18764674D02*
X18498634Y-18783722D01*
X18498634Y-18783722D02*
X18498634Y-18888484D01*
X18498634Y-18783722D02*
X18508158Y-18764674D01*
X18508158Y-18764674D02*
X18527205Y-18755150D01*
X18527205Y-18755150D02*
X18555777Y-18755150D01*
X18555777Y-18755150D02*
X18574825Y-18764674D01*
X18574825Y-18764674D02*
X18584348Y-18783722D01*
X18584348Y-18783722D02*
X18584348Y-18888484D01*
X18679586Y-18888484D02*
X18679586Y-18755150D01*
X18679586Y-18774198D02*
X18689110Y-18764674D01*
X18689110Y-18764674D02*
X18708158Y-18755150D01*
X18708158Y-18755150D02*
X18736729Y-18755150D01*
X18736729Y-18755150D02*
X18755777Y-18764674D01*
X18755777Y-18764674D02*
X18765301Y-18783722D01*
X18765301Y-18783722D02*
X18765301Y-18888484D01*
X18765301Y-18783722D02*
X18774825Y-18764674D01*
X18774825Y-18764674D02*
X18793872Y-18755150D01*
X18793872Y-18755150D02*
X18822444Y-18755150D01*
X18822444Y-18755150D02*
X18841491Y-18764674D01*
X18841491Y-18764674D02*
X18851015Y-18783722D01*
X18851015Y-18783722D02*
X18851015Y-18888484D01*
X19241491Y-18678960D02*
X19070063Y-18936103D01*
X19498634Y-18688484D02*
X19517682Y-18688484D01*
X19517682Y-18688484D02*
X19536729Y-18698008D01*
X19536729Y-18698008D02*
X19546253Y-18707531D01*
X19546253Y-18707531D02*
X19555777Y-18726579D01*
X19555777Y-18726579D02*
X19565301Y-18764674D01*
X19565301Y-18764674D02*
X19565301Y-18812293D01*
X19565301Y-18812293D02*
X19555777Y-18850389D01*
X19555777Y-18850389D02*
X19546253Y-18869436D01*
X19546253Y-18869436D02*
X19536729Y-18878960D01*
X19536729Y-18878960D02*
X19517682Y-18888484D01*
X19517682Y-18888484D02*
X19498634Y-18888484D01*
X19498634Y-18888484D02*
X19479587Y-18878960D01*
X19479587Y-18878960D02*
X19470063Y-18869436D01*
X19470063Y-18869436D02*
X19460539Y-18850389D01*
X19460539Y-18850389D02*
X19451015Y-18812293D01*
X19451015Y-18812293D02*
X19451015Y-18764674D01*
X19451015Y-18764674D02*
X19460539Y-18726579D01*
X19460539Y-18726579D02*
X19470063Y-18707531D01*
X19470063Y-18707531D02*
X19479587Y-18698008D01*
X19479587Y-18698008D02*
X19498634Y-18688484D01*
X19651015Y-18869436D02*
X19660539Y-18878960D01*
X19660539Y-18878960D02*
X19651015Y-18888484D01*
X19651015Y-18888484D02*
X19641491Y-18878960D01*
X19641491Y-18878960D02*
X19651015Y-18869436D01*
X19651015Y-18869436D02*
X19651015Y-18888484D01*
X19784348Y-18688484D02*
X19803396Y-18688484D01*
X19803396Y-18688484D02*
X19822444Y-18698008D01*
X19822444Y-18698008D02*
X19831968Y-18707531D01*
X19831968Y-18707531D02*
X19841491Y-18726579D01*
X19841491Y-18726579D02*
X19851015Y-18764674D01*
X19851015Y-18764674D02*
X19851015Y-18812293D01*
X19851015Y-18812293D02*
X19841491Y-18850389D01*
X19841491Y-18850389D02*
X19831968Y-18869436D01*
X19831968Y-18869436D02*
X19822444Y-18878960D01*
X19822444Y-18878960D02*
X19803396Y-18888484D01*
X19803396Y-18888484D02*
X19784348Y-18888484D01*
X19784348Y-18888484D02*
X19765301Y-18878960D01*
X19765301Y-18878960D02*
X19755777Y-18869436D01*
X19755777Y-18869436D02*
X19746253Y-18850389D01*
X19746253Y-18850389D02*
X19736729Y-18812293D01*
X19736729Y-18812293D02*
X19736729Y-18764674D01*
X19736729Y-18764674D02*
X19746253Y-18726579D01*
X19746253Y-18726579D02*
X19755777Y-18707531D01*
X19755777Y-18707531D02*
X19765301Y-18698008D01*
X19765301Y-18698008D02*
X19784348Y-18688484D01*
X19917682Y-18688484D02*
X20041491Y-18688484D01*
X20041491Y-18688484D02*
X19974825Y-18764674D01*
X19974825Y-18764674D02*
X20003396Y-18764674D01*
X20003396Y-18764674D02*
X20022444Y-18774198D01*
X20022444Y-18774198D02*
X20031968Y-18783722D01*
X20031968Y-18783722D02*
X20041491Y-18802770D01*
X20041491Y-18802770D02*
X20041491Y-18850389D01*
X20041491Y-18850389D02*
X20031968Y-18869436D01*
X20031968Y-18869436D02*
X20022444Y-18878960D01*
X20022444Y-18878960D02*
X20003396Y-18888484D01*
X20003396Y-18888484D02*
X19946253Y-18888484D01*
X19946253Y-18888484D02*
X19927206Y-18878960D01*
X19927206Y-18878960D02*
X19917682Y-18869436D01*
X20222444Y-18688484D02*
X20127206Y-18688484D01*
X20127206Y-18688484D02*
X20117682Y-18783722D01*
X20117682Y-18783722D02*
X20127206Y-18774198D01*
X20127206Y-18774198D02*
X20146253Y-18764674D01*
X20146253Y-18764674D02*
X20193872Y-18764674D01*
X20193872Y-18764674D02*
X20212920Y-18774198D01*
X20212920Y-18774198D02*
X20222444Y-18783722D01*
X20222444Y-18783722D02*
X20231968Y-18802770D01*
X20231968Y-18802770D02*
X20231968Y-18850389D01*
X20231968Y-18850389D02*
X20222444Y-18869436D01*
X20222444Y-18869436D02*
X20212920Y-18878960D01*
X20212920Y-18878960D02*
X20193872Y-18888484D01*
X20193872Y-18888484D02*
X20146253Y-18888484D01*
X20146253Y-18888484D02*
X20127206Y-18878960D01*
X20127206Y-18878960D02*
X20117682Y-18869436D01*
X20403396Y-18755150D02*
X20403396Y-18888484D01*
X20355777Y-18678960D02*
X20308158Y-18821817D01*
X20308158Y-18821817D02*
X20431968Y-18821817D01*
X20498634Y-18688484D02*
X20498634Y-18726579D01*
X20574825Y-18688484D02*
X20574825Y-18726579D01*
X20870063Y-18964674D02*
X20860539Y-18955150D01*
X20860539Y-18955150D02*
X20841491Y-18926579D01*
X20841491Y-18926579D02*
X20831968Y-18907531D01*
X20831968Y-18907531D02*
X20822444Y-18878960D01*
X20822444Y-18878960D02*
X20812920Y-18831341D01*
X20812920Y-18831341D02*
X20812920Y-18793246D01*
X20812920Y-18793246D02*
X20822444Y-18745627D01*
X20822444Y-18745627D02*
X20831968Y-18717055D01*
X20831968Y-18717055D02*
X20841491Y-18698008D01*
X20841491Y-18698008D02*
X20860539Y-18669436D01*
X20860539Y-18669436D02*
X20870063Y-18659912D01*
X20936730Y-18707531D02*
X20946253Y-18698008D01*
X20946253Y-18698008D02*
X20965301Y-18688484D01*
X20965301Y-18688484D02*
X21012920Y-18688484D01*
X21012920Y-18688484D02*
X21031968Y-18698008D01*
X21031968Y-18698008D02*
X21041491Y-18707531D01*
X21041491Y-18707531D02*
X21051015Y-18726579D01*
X21051015Y-18726579D02*
X21051015Y-18745627D01*
X21051015Y-18745627D02*
X21041491Y-18774198D01*
X21041491Y-18774198D02*
X20927206Y-18888484D01*
X20927206Y-18888484D02*
X21051015Y-18888484D01*
X21289111Y-18888484D02*
X21289111Y-18688484D01*
X21374825Y-18888484D02*
X21374825Y-18783722D01*
X21374825Y-18783722D02*
X21365301Y-18764674D01*
X21365301Y-18764674D02*
X21346253Y-18755150D01*
X21346253Y-18755150D02*
X21317682Y-18755150D01*
X21317682Y-18755150D02*
X21298634Y-18764674D01*
X21298634Y-18764674D02*
X21289111Y-18774198D01*
X21498634Y-18888484D02*
X21479587Y-18878960D01*
X21479587Y-18878960D02*
X21470063Y-18869436D01*
X21470063Y-18869436D02*
X21460539Y-18850389D01*
X21460539Y-18850389D02*
X21460539Y-18793246D01*
X21460539Y-18793246D02*
X21470063Y-18774198D01*
X21470063Y-18774198D02*
X21479587Y-18764674D01*
X21479587Y-18764674D02*
X21498634Y-18755150D01*
X21498634Y-18755150D02*
X21527206Y-18755150D01*
X21527206Y-18755150D02*
X21546253Y-18764674D01*
X21546253Y-18764674D02*
X21555777Y-18774198D01*
X21555777Y-18774198D02*
X21565301Y-18793246D01*
X21565301Y-18793246D02*
X21565301Y-18850389D01*
X21565301Y-18850389D02*
X21555777Y-18869436D01*
X21555777Y-18869436D02*
X21546253Y-18878960D01*
X21546253Y-18878960D02*
X21527206Y-18888484D01*
X21527206Y-18888484D02*
X21498634Y-18888484D01*
X21679587Y-18888484D02*
X21660539Y-18878960D01*
X21660539Y-18878960D02*
X21651015Y-18859912D01*
X21651015Y-18859912D02*
X21651015Y-18688484D01*
X21831968Y-18878960D02*
X21812920Y-18888484D01*
X21812920Y-18888484D02*
X21774825Y-18888484D01*
X21774825Y-18888484D02*
X21755777Y-18878960D01*
X21755777Y-18878960D02*
X21746253Y-18859912D01*
X21746253Y-18859912D02*
X21746253Y-18783722D01*
X21746253Y-18783722D02*
X21755777Y-18764674D01*
X21755777Y-18764674D02*
X21774825Y-18755150D01*
X21774825Y-18755150D02*
X21812920Y-18755150D01*
X21812920Y-18755150D02*
X21831968Y-18764674D01*
X21831968Y-18764674D02*
X21841492Y-18783722D01*
X21841492Y-18783722D02*
X21841492Y-18802770D01*
X21841492Y-18802770D02*
X21746253Y-18821817D01*
X21917682Y-18878960D02*
X21936730Y-18888484D01*
X21936730Y-18888484D02*
X21974825Y-18888484D01*
X21974825Y-18888484D02*
X21993873Y-18878960D01*
X21993873Y-18878960D02*
X22003396Y-18859912D01*
X22003396Y-18859912D02*
X22003396Y-18850389D01*
X22003396Y-18850389D02*
X21993873Y-18831341D01*
X21993873Y-18831341D02*
X21974825Y-18821817D01*
X21974825Y-18821817D02*
X21946253Y-18821817D01*
X21946253Y-18821817D02*
X21927206Y-18812293D01*
X21927206Y-18812293D02*
X21917682Y-18793246D01*
X21917682Y-18793246D02*
X21917682Y-18783722D01*
X21917682Y-18783722D02*
X21927206Y-18764674D01*
X21927206Y-18764674D02*
X21946253Y-18755150D01*
X21946253Y-18755150D02*
X21974825Y-18755150D01*
X21974825Y-18755150D02*
X21993873Y-18764674D01*
X22070063Y-18964674D02*
X22079587Y-18955150D01*
X22079587Y-18955150D02*
X22098634Y-18926579D01*
X22098634Y-18926579D02*
X22108158Y-18907531D01*
X22108158Y-18907531D02*
X22117682Y-18878960D01*
X22117682Y-18878960D02*
X22127206Y-18831341D01*
X22127206Y-18831341D02*
X22127206Y-18793246D01*
X22127206Y-18793246D02*
X22117682Y-18745627D01*
X22117682Y-18745627D02*
X22108158Y-18717055D01*
X22108158Y-18717055D02*
X22098634Y-18698008D01*
X22098634Y-18698008D02*
X22079587Y-18669436D01*
X22079587Y-18669436D02*
X22070063Y-18659912D01*
D16*
X17245000Y-19111000D02*
X17295000Y-19061000D01*
X17245000Y-19011000D01*
X17195000Y-19061000D01*
X17245000Y-19111000D01*
D11*
X17660539Y-19152484D02*
X17546253Y-19152484D01*
X17603396Y-19152484D02*
X17603396Y-18952484D01*
X17603396Y-18952484D02*
X17584348Y-18981055D01*
X17584348Y-18981055D02*
X17565301Y-19000103D01*
X17565301Y-19000103D02*
X17546253Y-19009627D01*
X17746253Y-19133436D02*
X17755777Y-19142960D01*
X17755777Y-19142960D02*
X17746253Y-19152484D01*
X17746253Y-19152484D02*
X17736729Y-19142960D01*
X17736729Y-19142960D02*
X17746253Y-19133436D01*
X17746253Y-19133436D02*
X17746253Y-19152484D01*
X17879586Y-18952484D02*
X17898634Y-18952484D01*
X17898634Y-18952484D02*
X17917682Y-18962008D01*
X17917682Y-18962008D02*
X17927205Y-18971531D01*
X17927205Y-18971531D02*
X17936729Y-18990579D01*
X17936729Y-18990579D02*
X17946253Y-19028674D01*
X17946253Y-19028674D02*
X17946253Y-19076293D01*
X17946253Y-19076293D02*
X17936729Y-19114389D01*
X17936729Y-19114389D02*
X17927205Y-19133436D01*
X17927205Y-19133436D02*
X17917682Y-19142960D01*
X17917682Y-19142960D02*
X17898634Y-19152484D01*
X17898634Y-19152484D02*
X17879586Y-19152484D01*
X17879586Y-19152484D02*
X17860539Y-19142960D01*
X17860539Y-19142960D02*
X17851015Y-19133436D01*
X17851015Y-19133436D02*
X17841491Y-19114389D01*
X17841491Y-19114389D02*
X17831967Y-19076293D01*
X17831967Y-19076293D02*
X17831967Y-19028674D01*
X17831967Y-19028674D02*
X17841491Y-18990579D01*
X17841491Y-18990579D02*
X17851015Y-18971531D01*
X17851015Y-18971531D02*
X17860539Y-18962008D01*
X17860539Y-18962008D02*
X17879586Y-18952484D01*
X18070063Y-18952484D02*
X18089110Y-18952484D01*
X18089110Y-18952484D02*
X18108158Y-18962008D01*
X18108158Y-18962008D02*
X18117682Y-18971531D01*
X18117682Y-18971531D02*
X18127205Y-18990579D01*
X18127205Y-18990579D02*
X18136729Y-19028674D01*
X18136729Y-19028674D02*
X18136729Y-19076293D01*
X18136729Y-19076293D02*
X18127205Y-19114389D01*
X18127205Y-19114389D02*
X18117682Y-19133436D01*
X18117682Y-19133436D02*
X18108158Y-19142960D01*
X18108158Y-19142960D02*
X18089110Y-19152484D01*
X18089110Y-19152484D02*
X18070063Y-19152484D01*
X18070063Y-19152484D02*
X18051015Y-19142960D01*
X18051015Y-19142960D02*
X18041491Y-19133436D01*
X18041491Y-19133436D02*
X18031967Y-19114389D01*
X18031967Y-19114389D02*
X18022444Y-19076293D01*
X18022444Y-19076293D02*
X18022444Y-19028674D01*
X18022444Y-19028674D02*
X18031967Y-18990579D01*
X18031967Y-18990579D02*
X18041491Y-18971531D01*
X18041491Y-18971531D02*
X18051015Y-18962008D01*
X18051015Y-18962008D02*
X18070063Y-18952484D01*
X18260539Y-18952484D02*
X18279586Y-18952484D01*
X18279586Y-18952484D02*
X18298634Y-18962008D01*
X18298634Y-18962008D02*
X18308158Y-18971531D01*
X18308158Y-18971531D02*
X18317682Y-18990579D01*
X18317682Y-18990579D02*
X18327205Y-19028674D01*
X18327205Y-19028674D02*
X18327205Y-19076293D01*
X18327205Y-19076293D02*
X18317682Y-19114389D01*
X18317682Y-19114389D02*
X18308158Y-19133436D01*
X18308158Y-19133436D02*
X18298634Y-19142960D01*
X18298634Y-19142960D02*
X18279586Y-19152484D01*
X18279586Y-19152484D02*
X18260539Y-19152484D01*
X18260539Y-19152484D02*
X18241491Y-19142960D01*
X18241491Y-19142960D02*
X18231967Y-19133436D01*
X18231967Y-19133436D02*
X18222444Y-19114389D01*
X18222444Y-19114389D02*
X18212920Y-19076293D01*
X18212920Y-19076293D02*
X18212920Y-19028674D01*
X18212920Y-19028674D02*
X18222444Y-18990579D01*
X18222444Y-18990579D02*
X18231967Y-18971531D01*
X18231967Y-18971531D02*
X18241491Y-18962008D01*
X18241491Y-18962008D02*
X18260539Y-18952484D01*
X18412920Y-19152484D02*
X18412920Y-19019150D01*
X18412920Y-19038198D02*
X18422444Y-19028674D01*
X18422444Y-19028674D02*
X18441491Y-19019150D01*
X18441491Y-19019150D02*
X18470063Y-19019150D01*
X18470063Y-19019150D02*
X18489110Y-19028674D01*
X18489110Y-19028674D02*
X18498634Y-19047722D01*
X18498634Y-19047722D02*
X18498634Y-19152484D01*
X18498634Y-19047722D02*
X18508158Y-19028674D01*
X18508158Y-19028674D02*
X18527205Y-19019150D01*
X18527205Y-19019150D02*
X18555777Y-19019150D01*
X18555777Y-19019150D02*
X18574825Y-19028674D01*
X18574825Y-19028674D02*
X18584348Y-19047722D01*
X18584348Y-19047722D02*
X18584348Y-19152484D01*
X18679586Y-19152484D02*
X18679586Y-19019150D01*
X18679586Y-19038198D02*
X18689110Y-19028674D01*
X18689110Y-19028674D02*
X18708158Y-19019150D01*
X18708158Y-19019150D02*
X18736729Y-19019150D01*
X18736729Y-19019150D02*
X18755777Y-19028674D01*
X18755777Y-19028674D02*
X18765301Y-19047722D01*
X18765301Y-19047722D02*
X18765301Y-19152484D01*
X18765301Y-19047722D02*
X18774825Y-19028674D01*
X18774825Y-19028674D02*
X18793872Y-19019150D01*
X18793872Y-19019150D02*
X18822444Y-19019150D01*
X18822444Y-19019150D02*
X18841491Y-19028674D01*
X18841491Y-19028674D02*
X18851015Y-19047722D01*
X18851015Y-19047722D02*
X18851015Y-19152484D01*
X19241491Y-18942960D02*
X19070063Y-19200103D01*
X19498634Y-18952484D02*
X19517682Y-18952484D01*
X19517682Y-18952484D02*
X19536729Y-18962008D01*
X19536729Y-18962008D02*
X19546253Y-18971531D01*
X19546253Y-18971531D02*
X19555777Y-18990579D01*
X19555777Y-18990579D02*
X19565301Y-19028674D01*
X19565301Y-19028674D02*
X19565301Y-19076293D01*
X19565301Y-19076293D02*
X19555777Y-19114389D01*
X19555777Y-19114389D02*
X19546253Y-19133436D01*
X19546253Y-19133436D02*
X19536729Y-19142960D01*
X19536729Y-19142960D02*
X19517682Y-19152484D01*
X19517682Y-19152484D02*
X19498634Y-19152484D01*
X19498634Y-19152484D02*
X19479587Y-19142960D01*
X19479587Y-19142960D02*
X19470063Y-19133436D01*
X19470063Y-19133436D02*
X19460539Y-19114389D01*
X19460539Y-19114389D02*
X19451015Y-19076293D01*
X19451015Y-19076293D02*
X19451015Y-19028674D01*
X19451015Y-19028674D02*
X19460539Y-18990579D01*
X19460539Y-18990579D02*
X19470063Y-18971531D01*
X19470063Y-18971531D02*
X19479587Y-18962008D01*
X19479587Y-18962008D02*
X19498634Y-18952484D01*
X19651015Y-19133436D02*
X19660539Y-19142960D01*
X19660539Y-19142960D02*
X19651015Y-19152484D01*
X19651015Y-19152484D02*
X19641491Y-19142960D01*
X19641491Y-19142960D02*
X19651015Y-19133436D01*
X19651015Y-19133436D02*
X19651015Y-19152484D01*
X19784348Y-18952484D02*
X19803396Y-18952484D01*
X19803396Y-18952484D02*
X19822444Y-18962008D01*
X19822444Y-18962008D02*
X19831968Y-18971531D01*
X19831968Y-18971531D02*
X19841491Y-18990579D01*
X19841491Y-18990579D02*
X19851015Y-19028674D01*
X19851015Y-19028674D02*
X19851015Y-19076293D01*
X19851015Y-19076293D02*
X19841491Y-19114389D01*
X19841491Y-19114389D02*
X19831968Y-19133436D01*
X19831968Y-19133436D02*
X19822444Y-19142960D01*
X19822444Y-19142960D02*
X19803396Y-19152484D01*
X19803396Y-19152484D02*
X19784348Y-19152484D01*
X19784348Y-19152484D02*
X19765301Y-19142960D01*
X19765301Y-19142960D02*
X19755777Y-19133436D01*
X19755777Y-19133436D02*
X19746253Y-19114389D01*
X19746253Y-19114389D02*
X19736729Y-19076293D01*
X19736729Y-19076293D02*
X19736729Y-19028674D01*
X19736729Y-19028674D02*
X19746253Y-18990579D01*
X19746253Y-18990579D02*
X19755777Y-18971531D01*
X19755777Y-18971531D02*
X19765301Y-18962008D01*
X19765301Y-18962008D02*
X19784348Y-18952484D01*
X19917682Y-18952484D02*
X20041491Y-18952484D01*
X20041491Y-18952484D02*
X19974825Y-19028674D01*
X19974825Y-19028674D02*
X20003396Y-19028674D01*
X20003396Y-19028674D02*
X20022444Y-19038198D01*
X20022444Y-19038198D02*
X20031968Y-19047722D01*
X20031968Y-19047722D02*
X20041491Y-19066770D01*
X20041491Y-19066770D02*
X20041491Y-19114389D01*
X20041491Y-19114389D02*
X20031968Y-19133436D01*
X20031968Y-19133436D02*
X20022444Y-19142960D01*
X20022444Y-19142960D02*
X20003396Y-19152484D01*
X20003396Y-19152484D02*
X19946253Y-19152484D01*
X19946253Y-19152484D02*
X19927206Y-19142960D01*
X19927206Y-19142960D02*
X19917682Y-19133436D01*
X20136729Y-19152484D02*
X20174825Y-19152484D01*
X20174825Y-19152484D02*
X20193872Y-19142960D01*
X20193872Y-19142960D02*
X20203396Y-19133436D01*
X20203396Y-19133436D02*
X20222444Y-19104865D01*
X20222444Y-19104865D02*
X20231968Y-19066770D01*
X20231968Y-19066770D02*
X20231968Y-18990579D01*
X20231968Y-18990579D02*
X20222444Y-18971531D01*
X20222444Y-18971531D02*
X20212920Y-18962008D01*
X20212920Y-18962008D02*
X20193872Y-18952484D01*
X20193872Y-18952484D02*
X20155777Y-18952484D01*
X20155777Y-18952484D02*
X20136729Y-18962008D01*
X20136729Y-18962008D02*
X20127206Y-18971531D01*
X20127206Y-18971531D02*
X20117682Y-18990579D01*
X20117682Y-18990579D02*
X20117682Y-19038198D01*
X20117682Y-19038198D02*
X20127206Y-19057246D01*
X20127206Y-19057246D02*
X20136729Y-19066770D01*
X20136729Y-19066770D02*
X20155777Y-19076293D01*
X20155777Y-19076293D02*
X20193872Y-19076293D01*
X20193872Y-19076293D02*
X20212920Y-19066770D01*
X20212920Y-19066770D02*
X20222444Y-19057246D01*
X20222444Y-19057246D02*
X20231968Y-19038198D01*
X20403396Y-19019150D02*
X20403396Y-19152484D01*
X20355777Y-18942960D02*
X20308158Y-19085817D01*
X20308158Y-19085817D02*
X20431968Y-19085817D01*
X20498634Y-18952484D02*
X20498634Y-18990579D01*
X20574825Y-18952484D02*
X20574825Y-18990579D01*
X20870063Y-19228674D02*
X20860539Y-19219150D01*
X20860539Y-19219150D02*
X20841491Y-19190579D01*
X20841491Y-19190579D02*
X20831968Y-19171531D01*
X20831968Y-19171531D02*
X20822444Y-19142960D01*
X20822444Y-19142960D02*
X20812920Y-19095341D01*
X20812920Y-19095341D02*
X20812920Y-19057246D01*
X20812920Y-19057246D02*
X20822444Y-19009627D01*
X20822444Y-19009627D02*
X20831968Y-18981055D01*
X20831968Y-18981055D02*
X20841491Y-18962008D01*
X20841491Y-18962008D02*
X20860539Y-18933436D01*
X20860539Y-18933436D02*
X20870063Y-18923912D01*
X21051015Y-19152484D02*
X20936730Y-19152484D01*
X20993872Y-19152484D02*
X20993872Y-18952484D01*
X20993872Y-18952484D02*
X20974825Y-18981055D01*
X20974825Y-18981055D02*
X20955777Y-19000103D01*
X20955777Y-19000103D02*
X20936730Y-19009627D01*
X21222444Y-18952484D02*
X21184349Y-18952484D01*
X21184349Y-18952484D02*
X21165301Y-18962008D01*
X21165301Y-18962008D02*
X21155777Y-18971531D01*
X21155777Y-18971531D02*
X21136730Y-19000103D01*
X21136730Y-19000103D02*
X21127206Y-19038198D01*
X21127206Y-19038198D02*
X21127206Y-19114389D01*
X21127206Y-19114389D02*
X21136730Y-19133436D01*
X21136730Y-19133436D02*
X21146253Y-19142960D01*
X21146253Y-19142960D02*
X21165301Y-19152484D01*
X21165301Y-19152484D02*
X21203396Y-19152484D01*
X21203396Y-19152484D02*
X21222444Y-19142960D01*
X21222444Y-19142960D02*
X21231968Y-19133436D01*
X21231968Y-19133436D02*
X21241491Y-19114389D01*
X21241491Y-19114389D02*
X21241491Y-19066770D01*
X21241491Y-19066770D02*
X21231968Y-19047722D01*
X21231968Y-19047722D02*
X21222444Y-19038198D01*
X21222444Y-19038198D02*
X21203396Y-19028674D01*
X21203396Y-19028674D02*
X21165301Y-19028674D01*
X21165301Y-19028674D02*
X21146253Y-19038198D01*
X21146253Y-19038198D02*
X21136730Y-19047722D01*
X21136730Y-19047722D02*
X21127206Y-19066770D01*
X21479587Y-19152484D02*
X21479587Y-18952484D01*
X21565301Y-19152484D02*
X21565301Y-19047722D01*
X21565301Y-19047722D02*
X21555777Y-19028674D01*
X21555777Y-19028674D02*
X21536730Y-19019150D01*
X21536730Y-19019150D02*
X21508158Y-19019150D01*
X21508158Y-19019150D02*
X21489111Y-19028674D01*
X21489111Y-19028674D02*
X21479587Y-19038198D01*
X21689111Y-19152484D02*
X21670063Y-19142960D01*
X21670063Y-19142960D02*
X21660539Y-19133436D01*
X21660539Y-19133436D02*
X21651015Y-19114389D01*
X21651015Y-19114389D02*
X21651015Y-19057246D01*
X21651015Y-19057246D02*
X21660539Y-19038198D01*
X21660539Y-19038198D02*
X21670063Y-19028674D01*
X21670063Y-19028674D02*
X21689111Y-19019150D01*
X21689111Y-19019150D02*
X21717682Y-19019150D01*
X21717682Y-19019150D02*
X21736730Y-19028674D01*
X21736730Y-19028674D02*
X21746253Y-19038198D01*
X21746253Y-19038198D02*
X21755777Y-19057246D01*
X21755777Y-19057246D02*
X21755777Y-19114389D01*
X21755777Y-19114389D02*
X21746253Y-19133436D01*
X21746253Y-19133436D02*
X21736730Y-19142960D01*
X21736730Y-19142960D02*
X21717682Y-19152484D01*
X21717682Y-19152484D02*
X21689111Y-19152484D01*
X21870063Y-19152484D02*
X21851015Y-19142960D01*
X21851015Y-19142960D02*
X21841492Y-19123912D01*
X21841492Y-19123912D02*
X21841492Y-18952484D01*
X22022444Y-19142960D02*
X22003396Y-19152484D01*
X22003396Y-19152484D02*
X21965301Y-19152484D01*
X21965301Y-19152484D02*
X21946253Y-19142960D01*
X21946253Y-19142960D02*
X21936730Y-19123912D01*
X21936730Y-19123912D02*
X21936730Y-19047722D01*
X21936730Y-19047722D02*
X21946253Y-19028674D01*
X21946253Y-19028674D02*
X21965301Y-19019150D01*
X21965301Y-19019150D02*
X22003396Y-19019150D01*
X22003396Y-19019150D02*
X22022444Y-19028674D01*
X22022444Y-19028674D02*
X22031968Y-19047722D01*
X22031968Y-19047722D02*
X22031968Y-19066770D01*
X22031968Y-19066770D02*
X21936730Y-19085817D01*
X22108158Y-19142960D02*
X22127206Y-19152484D01*
X22127206Y-19152484D02*
X22165301Y-19152484D01*
X22165301Y-19152484D02*
X22184349Y-19142960D01*
X22184349Y-19142960D02*
X22193873Y-19123912D01*
X22193873Y-19123912D02*
X22193873Y-19114389D01*
X22193873Y-19114389D02*
X22184349Y-19095341D01*
X22184349Y-19095341D02*
X22165301Y-19085817D01*
X22165301Y-19085817D02*
X22136730Y-19085817D01*
X22136730Y-19085817D02*
X22117682Y-19076293D01*
X22117682Y-19076293D02*
X22108158Y-19057246D01*
X22108158Y-19057246D02*
X22108158Y-19047722D01*
X22108158Y-19047722D02*
X22117682Y-19028674D01*
X22117682Y-19028674D02*
X22136730Y-19019150D01*
X22136730Y-19019150D02*
X22165301Y-19019150D01*
X22165301Y-19019150D02*
X22184349Y-19028674D01*
X22260539Y-19228674D02*
X22270063Y-19219150D01*
X22270063Y-19219150D02*
X22289111Y-19190579D01*
X22289111Y-19190579D02*
X22298634Y-19171531D01*
X22298634Y-19171531D02*
X22308158Y-19142960D01*
X22308158Y-19142960D02*
X22317682Y-19095341D01*
X22317682Y-19095341D02*
X22317682Y-19057246D01*
X22317682Y-19057246D02*
X22308158Y-19009627D01*
X22308158Y-19009627D02*
X22298634Y-18981055D01*
X22298634Y-18981055D02*
X22289111Y-18962008D01*
X22289111Y-18962008D02*
X22270063Y-18933436D01*
X22270063Y-18933436D02*
X22260539Y-18923912D01*
D10*
X17195000Y-19275000D02*
X17295000Y-19375000D01*
X17295000Y-19275000D02*
X17195000Y-19375000D01*
X17295000Y-19325000D02*
G75*
G03*
X17295000Y-19325000I-50000J0D01*
G01*
D11*
X17660539Y-19416484D02*
X17546253Y-19416484D01*
X17603396Y-19416484D02*
X17603396Y-19216484D01*
X17603396Y-19216484D02*
X17584348Y-19245055D01*
X17584348Y-19245055D02*
X17565301Y-19264103D01*
X17565301Y-19264103D02*
X17546253Y-19273627D01*
X17746253Y-19397436D02*
X17755777Y-19406960D01*
X17755777Y-19406960D02*
X17746253Y-19416484D01*
X17746253Y-19416484D02*
X17736729Y-19406960D01*
X17736729Y-19406960D02*
X17746253Y-19397436D01*
X17746253Y-19397436D02*
X17746253Y-19416484D01*
X17879586Y-19216484D02*
X17898634Y-19216484D01*
X17898634Y-19216484D02*
X17917682Y-19226008D01*
X17917682Y-19226008D02*
X17927205Y-19235531D01*
X17927205Y-19235531D02*
X17936729Y-19254579D01*
X17936729Y-19254579D02*
X17946253Y-19292674D01*
X17946253Y-19292674D02*
X17946253Y-19340293D01*
X17946253Y-19340293D02*
X17936729Y-19378389D01*
X17936729Y-19378389D02*
X17927205Y-19397436D01*
X17927205Y-19397436D02*
X17917682Y-19406960D01*
X17917682Y-19406960D02*
X17898634Y-19416484D01*
X17898634Y-19416484D02*
X17879586Y-19416484D01*
X17879586Y-19416484D02*
X17860539Y-19406960D01*
X17860539Y-19406960D02*
X17851015Y-19397436D01*
X17851015Y-19397436D02*
X17841491Y-19378389D01*
X17841491Y-19378389D02*
X17831967Y-19340293D01*
X17831967Y-19340293D02*
X17831967Y-19292674D01*
X17831967Y-19292674D02*
X17841491Y-19254579D01*
X17841491Y-19254579D02*
X17851015Y-19235531D01*
X17851015Y-19235531D02*
X17860539Y-19226008D01*
X17860539Y-19226008D02*
X17879586Y-19216484D01*
X18070063Y-19216484D02*
X18089110Y-19216484D01*
X18089110Y-19216484D02*
X18108158Y-19226008D01*
X18108158Y-19226008D02*
X18117682Y-19235531D01*
X18117682Y-19235531D02*
X18127205Y-19254579D01*
X18127205Y-19254579D02*
X18136729Y-19292674D01*
X18136729Y-19292674D02*
X18136729Y-19340293D01*
X18136729Y-19340293D02*
X18127205Y-19378389D01*
X18127205Y-19378389D02*
X18117682Y-19397436D01*
X18117682Y-19397436D02*
X18108158Y-19406960D01*
X18108158Y-19406960D02*
X18089110Y-19416484D01*
X18089110Y-19416484D02*
X18070063Y-19416484D01*
X18070063Y-19416484D02*
X18051015Y-19406960D01*
X18051015Y-19406960D02*
X18041491Y-19397436D01*
X18041491Y-19397436D02*
X18031967Y-19378389D01*
X18031967Y-19378389D02*
X18022444Y-19340293D01*
X18022444Y-19340293D02*
X18022444Y-19292674D01*
X18022444Y-19292674D02*
X18031967Y-19254579D01*
X18031967Y-19254579D02*
X18041491Y-19235531D01*
X18041491Y-19235531D02*
X18051015Y-19226008D01*
X18051015Y-19226008D02*
X18070063Y-19216484D01*
X18260539Y-19216484D02*
X18279586Y-19216484D01*
X18279586Y-19216484D02*
X18298634Y-19226008D01*
X18298634Y-19226008D02*
X18308158Y-19235531D01*
X18308158Y-19235531D02*
X18317682Y-19254579D01*
X18317682Y-19254579D02*
X18327205Y-19292674D01*
X18327205Y-19292674D02*
X18327205Y-19340293D01*
X18327205Y-19340293D02*
X18317682Y-19378389D01*
X18317682Y-19378389D02*
X18308158Y-19397436D01*
X18308158Y-19397436D02*
X18298634Y-19406960D01*
X18298634Y-19406960D02*
X18279586Y-19416484D01*
X18279586Y-19416484D02*
X18260539Y-19416484D01*
X18260539Y-19416484D02*
X18241491Y-19406960D01*
X18241491Y-19406960D02*
X18231967Y-19397436D01*
X18231967Y-19397436D02*
X18222444Y-19378389D01*
X18222444Y-19378389D02*
X18212920Y-19340293D01*
X18212920Y-19340293D02*
X18212920Y-19292674D01*
X18212920Y-19292674D02*
X18222444Y-19254579D01*
X18222444Y-19254579D02*
X18231967Y-19235531D01*
X18231967Y-19235531D02*
X18241491Y-19226008D01*
X18241491Y-19226008D02*
X18260539Y-19216484D01*
X18412920Y-19416484D02*
X18412920Y-19283150D01*
X18412920Y-19302198D02*
X18422444Y-19292674D01*
X18422444Y-19292674D02*
X18441491Y-19283150D01*
X18441491Y-19283150D02*
X18470063Y-19283150D01*
X18470063Y-19283150D02*
X18489110Y-19292674D01*
X18489110Y-19292674D02*
X18498634Y-19311722D01*
X18498634Y-19311722D02*
X18498634Y-19416484D01*
X18498634Y-19311722D02*
X18508158Y-19292674D01*
X18508158Y-19292674D02*
X18527205Y-19283150D01*
X18527205Y-19283150D02*
X18555777Y-19283150D01*
X18555777Y-19283150D02*
X18574825Y-19292674D01*
X18574825Y-19292674D02*
X18584348Y-19311722D01*
X18584348Y-19311722D02*
X18584348Y-19416484D01*
X18679586Y-19416484D02*
X18679586Y-19283150D01*
X18679586Y-19302198D02*
X18689110Y-19292674D01*
X18689110Y-19292674D02*
X18708158Y-19283150D01*
X18708158Y-19283150D02*
X18736729Y-19283150D01*
X18736729Y-19283150D02*
X18755777Y-19292674D01*
X18755777Y-19292674D02*
X18765301Y-19311722D01*
X18765301Y-19311722D02*
X18765301Y-19416484D01*
X18765301Y-19311722D02*
X18774825Y-19292674D01*
X18774825Y-19292674D02*
X18793872Y-19283150D01*
X18793872Y-19283150D02*
X18822444Y-19283150D01*
X18822444Y-19283150D02*
X18841491Y-19292674D01*
X18841491Y-19292674D02*
X18851015Y-19311722D01*
X18851015Y-19311722D02*
X18851015Y-19416484D01*
X19241491Y-19206960D02*
X19070063Y-19464103D01*
X19498634Y-19216484D02*
X19517682Y-19216484D01*
X19517682Y-19216484D02*
X19536729Y-19226008D01*
X19536729Y-19226008D02*
X19546253Y-19235531D01*
X19546253Y-19235531D02*
X19555777Y-19254579D01*
X19555777Y-19254579D02*
X19565301Y-19292674D01*
X19565301Y-19292674D02*
X19565301Y-19340293D01*
X19565301Y-19340293D02*
X19555777Y-19378389D01*
X19555777Y-19378389D02*
X19546253Y-19397436D01*
X19546253Y-19397436D02*
X19536729Y-19406960D01*
X19536729Y-19406960D02*
X19517682Y-19416484D01*
X19517682Y-19416484D02*
X19498634Y-19416484D01*
X19498634Y-19416484D02*
X19479587Y-19406960D01*
X19479587Y-19406960D02*
X19470063Y-19397436D01*
X19470063Y-19397436D02*
X19460539Y-19378389D01*
X19460539Y-19378389D02*
X19451015Y-19340293D01*
X19451015Y-19340293D02*
X19451015Y-19292674D01*
X19451015Y-19292674D02*
X19460539Y-19254579D01*
X19460539Y-19254579D02*
X19470063Y-19235531D01*
X19470063Y-19235531D02*
X19479587Y-19226008D01*
X19479587Y-19226008D02*
X19498634Y-19216484D01*
X19651015Y-19397436D02*
X19660539Y-19406960D01*
X19660539Y-19406960D02*
X19651015Y-19416484D01*
X19651015Y-19416484D02*
X19641491Y-19406960D01*
X19641491Y-19406960D02*
X19651015Y-19397436D01*
X19651015Y-19397436D02*
X19651015Y-19416484D01*
X19784348Y-19216484D02*
X19803396Y-19216484D01*
X19803396Y-19216484D02*
X19822444Y-19226008D01*
X19822444Y-19226008D02*
X19831968Y-19235531D01*
X19831968Y-19235531D02*
X19841491Y-19254579D01*
X19841491Y-19254579D02*
X19851015Y-19292674D01*
X19851015Y-19292674D02*
X19851015Y-19340293D01*
X19851015Y-19340293D02*
X19841491Y-19378389D01*
X19841491Y-19378389D02*
X19831968Y-19397436D01*
X19831968Y-19397436D02*
X19822444Y-19406960D01*
X19822444Y-19406960D02*
X19803396Y-19416484D01*
X19803396Y-19416484D02*
X19784348Y-19416484D01*
X19784348Y-19416484D02*
X19765301Y-19406960D01*
X19765301Y-19406960D02*
X19755777Y-19397436D01*
X19755777Y-19397436D02*
X19746253Y-19378389D01*
X19746253Y-19378389D02*
X19736729Y-19340293D01*
X19736729Y-19340293D02*
X19736729Y-19292674D01*
X19736729Y-19292674D02*
X19746253Y-19254579D01*
X19746253Y-19254579D02*
X19755777Y-19235531D01*
X19755777Y-19235531D02*
X19765301Y-19226008D01*
X19765301Y-19226008D02*
X19784348Y-19216484D01*
X19917682Y-19216484D02*
X20041491Y-19216484D01*
X20041491Y-19216484D02*
X19974825Y-19292674D01*
X19974825Y-19292674D02*
X20003396Y-19292674D01*
X20003396Y-19292674D02*
X20022444Y-19302198D01*
X20022444Y-19302198D02*
X20031968Y-19311722D01*
X20031968Y-19311722D02*
X20041491Y-19330770D01*
X20041491Y-19330770D02*
X20041491Y-19378389D01*
X20041491Y-19378389D02*
X20031968Y-19397436D01*
X20031968Y-19397436D02*
X20022444Y-19406960D01*
X20022444Y-19406960D02*
X20003396Y-19416484D01*
X20003396Y-19416484D02*
X19946253Y-19416484D01*
X19946253Y-19416484D02*
X19927206Y-19406960D01*
X19927206Y-19406960D02*
X19917682Y-19397436D01*
X20136729Y-19416484D02*
X20174825Y-19416484D01*
X20174825Y-19416484D02*
X20193872Y-19406960D01*
X20193872Y-19406960D02*
X20203396Y-19397436D01*
X20203396Y-19397436D02*
X20222444Y-19368865D01*
X20222444Y-19368865D02*
X20231968Y-19330770D01*
X20231968Y-19330770D02*
X20231968Y-19254579D01*
X20231968Y-19254579D02*
X20222444Y-19235531D01*
X20222444Y-19235531D02*
X20212920Y-19226008D01*
X20212920Y-19226008D02*
X20193872Y-19216484D01*
X20193872Y-19216484D02*
X20155777Y-19216484D01*
X20155777Y-19216484D02*
X20136729Y-19226008D01*
X20136729Y-19226008D02*
X20127206Y-19235531D01*
X20127206Y-19235531D02*
X20117682Y-19254579D01*
X20117682Y-19254579D02*
X20117682Y-19302198D01*
X20117682Y-19302198D02*
X20127206Y-19321246D01*
X20127206Y-19321246D02*
X20136729Y-19330770D01*
X20136729Y-19330770D02*
X20155777Y-19340293D01*
X20155777Y-19340293D02*
X20193872Y-19340293D01*
X20193872Y-19340293D02*
X20212920Y-19330770D01*
X20212920Y-19330770D02*
X20222444Y-19321246D01*
X20222444Y-19321246D02*
X20231968Y-19302198D01*
X20403396Y-19283150D02*
X20403396Y-19416484D01*
X20355777Y-19206960D02*
X20308158Y-19349817D01*
X20308158Y-19349817D02*
X20431968Y-19349817D01*
X20498634Y-19216484D02*
X20498634Y-19254579D01*
X20574825Y-19216484D02*
X20574825Y-19254579D01*
X20870063Y-19492674D02*
X20860539Y-19483150D01*
X20860539Y-19483150D02*
X20841491Y-19454579D01*
X20841491Y-19454579D02*
X20831968Y-19435531D01*
X20831968Y-19435531D02*
X20822444Y-19406960D01*
X20822444Y-19406960D02*
X20812920Y-19359341D01*
X20812920Y-19359341D02*
X20812920Y-19321246D01*
X20812920Y-19321246D02*
X20822444Y-19273627D01*
X20822444Y-19273627D02*
X20831968Y-19245055D01*
X20831968Y-19245055D02*
X20841491Y-19226008D01*
X20841491Y-19226008D02*
X20860539Y-19197436D01*
X20860539Y-19197436D02*
X20870063Y-19187912D01*
X21041491Y-19216484D02*
X20946253Y-19216484D01*
X20946253Y-19216484D02*
X20936730Y-19311722D01*
X20936730Y-19311722D02*
X20946253Y-19302198D01*
X20946253Y-19302198D02*
X20965301Y-19292674D01*
X20965301Y-19292674D02*
X21012920Y-19292674D01*
X21012920Y-19292674D02*
X21031968Y-19302198D01*
X21031968Y-19302198D02*
X21041491Y-19311722D01*
X21041491Y-19311722D02*
X21051015Y-19330770D01*
X21051015Y-19330770D02*
X21051015Y-19378389D01*
X21051015Y-19378389D02*
X21041491Y-19397436D01*
X21041491Y-19397436D02*
X21031968Y-19406960D01*
X21031968Y-19406960D02*
X21012920Y-19416484D01*
X21012920Y-19416484D02*
X20965301Y-19416484D01*
X20965301Y-19416484D02*
X20946253Y-19406960D01*
X20946253Y-19406960D02*
X20936730Y-19397436D01*
X21222444Y-19216484D02*
X21184349Y-19216484D01*
X21184349Y-19216484D02*
X21165301Y-19226008D01*
X21165301Y-19226008D02*
X21155777Y-19235531D01*
X21155777Y-19235531D02*
X21136730Y-19264103D01*
X21136730Y-19264103D02*
X21127206Y-19302198D01*
X21127206Y-19302198D02*
X21127206Y-19378389D01*
X21127206Y-19378389D02*
X21136730Y-19397436D01*
X21136730Y-19397436D02*
X21146253Y-19406960D01*
X21146253Y-19406960D02*
X21165301Y-19416484D01*
X21165301Y-19416484D02*
X21203396Y-19416484D01*
X21203396Y-19416484D02*
X21222444Y-19406960D01*
X21222444Y-19406960D02*
X21231968Y-19397436D01*
X21231968Y-19397436D02*
X21241491Y-19378389D01*
X21241491Y-19378389D02*
X21241491Y-19330770D01*
X21241491Y-19330770D02*
X21231968Y-19311722D01*
X21231968Y-19311722D02*
X21222444Y-19302198D01*
X21222444Y-19302198D02*
X21203396Y-19292674D01*
X21203396Y-19292674D02*
X21165301Y-19292674D01*
X21165301Y-19292674D02*
X21146253Y-19302198D01*
X21146253Y-19302198D02*
X21136730Y-19311722D01*
X21136730Y-19311722D02*
X21127206Y-19330770D01*
X21479587Y-19416484D02*
X21479587Y-19216484D01*
X21565301Y-19416484D02*
X21565301Y-19311722D01*
X21565301Y-19311722D02*
X21555777Y-19292674D01*
X21555777Y-19292674D02*
X21536730Y-19283150D01*
X21536730Y-19283150D02*
X21508158Y-19283150D01*
X21508158Y-19283150D02*
X21489111Y-19292674D01*
X21489111Y-19292674D02*
X21479587Y-19302198D01*
X21689111Y-19416484D02*
X21670063Y-19406960D01*
X21670063Y-19406960D02*
X21660539Y-19397436D01*
X21660539Y-19397436D02*
X21651015Y-19378389D01*
X21651015Y-19378389D02*
X21651015Y-19321246D01*
X21651015Y-19321246D02*
X21660539Y-19302198D01*
X21660539Y-19302198D02*
X21670063Y-19292674D01*
X21670063Y-19292674D02*
X21689111Y-19283150D01*
X21689111Y-19283150D02*
X21717682Y-19283150D01*
X21717682Y-19283150D02*
X21736730Y-19292674D01*
X21736730Y-19292674D02*
X21746253Y-19302198D01*
X21746253Y-19302198D02*
X21755777Y-19321246D01*
X21755777Y-19321246D02*
X21755777Y-19378389D01*
X21755777Y-19378389D02*
X21746253Y-19397436D01*
X21746253Y-19397436D02*
X21736730Y-19406960D01*
X21736730Y-19406960D02*
X21717682Y-19416484D01*
X21717682Y-19416484D02*
X21689111Y-19416484D01*
X21870063Y-19416484D02*
X21851015Y-19406960D01*
X21851015Y-19406960D02*
X21841492Y-19387912D01*
X21841492Y-19387912D02*
X21841492Y-19216484D01*
X22022444Y-19406960D02*
X22003396Y-19416484D01*
X22003396Y-19416484D02*
X21965301Y-19416484D01*
X21965301Y-19416484D02*
X21946253Y-19406960D01*
X21946253Y-19406960D02*
X21936730Y-19387912D01*
X21936730Y-19387912D02*
X21936730Y-19311722D01*
X21936730Y-19311722D02*
X21946253Y-19292674D01*
X21946253Y-19292674D02*
X21965301Y-19283150D01*
X21965301Y-19283150D02*
X22003396Y-19283150D01*
X22003396Y-19283150D02*
X22022444Y-19292674D01*
X22022444Y-19292674D02*
X22031968Y-19311722D01*
X22031968Y-19311722D02*
X22031968Y-19330770D01*
X22031968Y-19330770D02*
X21936730Y-19349817D01*
X22108158Y-19406960D02*
X22127206Y-19416484D01*
X22127206Y-19416484D02*
X22165301Y-19416484D01*
X22165301Y-19416484D02*
X22184349Y-19406960D01*
X22184349Y-19406960D02*
X22193873Y-19387912D01*
X22193873Y-19387912D02*
X22193873Y-19378389D01*
X22193873Y-19378389D02*
X22184349Y-19359341D01*
X22184349Y-19359341D02*
X22165301Y-19349817D01*
X22165301Y-19349817D02*
X22136730Y-19349817D01*
X22136730Y-19349817D02*
X22117682Y-19340293D01*
X22117682Y-19340293D02*
X22108158Y-19321246D01*
X22108158Y-19321246D02*
X22108158Y-19311722D01*
X22108158Y-19311722D02*
X22117682Y-19292674D01*
X22117682Y-19292674D02*
X22136730Y-19283150D01*
X22136730Y-19283150D02*
X22165301Y-19283150D01*
X22165301Y-19283150D02*
X22184349Y-19292674D01*
X22431968Y-19340293D02*
X22584349Y-19340293D01*
X22508158Y-19416484D02*
X22508158Y-19264103D01*
X22812920Y-19216484D02*
X22936730Y-19216484D01*
X22936730Y-19216484D02*
X22870063Y-19292674D01*
X22870063Y-19292674D02*
X22898634Y-19292674D01*
X22898634Y-19292674D02*
X22917682Y-19302198D01*
X22917682Y-19302198D02*
X22927206Y-19311722D01*
X22927206Y-19311722D02*
X22936730Y-19330770D01*
X22936730Y-19330770D02*
X22936730Y-19378389D01*
X22936730Y-19378389D02*
X22927206Y-19397436D01*
X22927206Y-19397436D02*
X22917682Y-19406960D01*
X22917682Y-19406960D02*
X22898634Y-19416484D01*
X22898634Y-19416484D02*
X22841492Y-19416484D01*
X22841492Y-19416484D02*
X22822444Y-19406960D01*
X22822444Y-19406960D02*
X22812920Y-19397436D01*
X23165301Y-19406960D02*
X23184349Y-19416484D01*
X23184349Y-19416484D02*
X23222444Y-19416484D01*
X23222444Y-19416484D02*
X23241492Y-19406960D01*
X23241492Y-19406960D02*
X23251015Y-19387912D01*
X23251015Y-19387912D02*
X23251015Y-19378389D01*
X23251015Y-19378389D02*
X23241492Y-19359341D01*
X23241492Y-19359341D02*
X23222444Y-19349817D01*
X23222444Y-19349817D02*
X23193873Y-19349817D01*
X23193873Y-19349817D02*
X23174825Y-19340293D01*
X23174825Y-19340293D02*
X23165301Y-19321246D01*
X23165301Y-19321246D02*
X23165301Y-19311722D01*
X23165301Y-19311722D02*
X23174825Y-19292674D01*
X23174825Y-19292674D02*
X23193873Y-19283150D01*
X23193873Y-19283150D02*
X23222444Y-19283150D01*
X23222444Y-19283150D02*
X23241492Y-19292674D01*
X23365301Y-19416484D02*
X23346254Y-19406960D01*
X23346254Y-19406960D02*
X23336730Y-19387912D01*
X23336730Y-19387912D02*
X23336730Y-19216484D01*
X23470063Y-19416484D02*
X23451015Y-19406960D01*
X23451015Y-19406960D02*
X23441492Y-19397436D01*
X23441492Y-19397436D02*
X23431968Y-19378389D01*
X23431968Y-19378389D02*
X23431968Y-19321246D01*
X23431968Y-19321246D02*
X23441492Y-19302198D01*
X23441492Y-19302198D02*
X23451015Y-19292674D01*
X23451015Y-19292674D02*
X23470063Y-19283150D01*
X23470063Y-19283150D02*
X23498635Y-19283150D01*
X23498635Y-19283150D02*
X23517682Y-19292674D01*
X23517682Y-19292674D02*
X23527206Y-19302198D01*
X23527206Y-19302198D02*
X23536730Y-19321246D01*
X23536730Y-19321246D02*
X23536730Y-19378389D01*
X23536730Y-19378389D02*
X23527206Y-19397436D01*
X23527206Y-19397436D02*
X23517682Y-19406960D01*
X23517682Y-19406960D02*
X23498635Y-19416484D01*
X23498635Y-19416484D02*
X23470063Y-19416484D01*
X23593873Y-19283150D02*
X23670063Y-19283150D01*
X23622444Y-19216484D02*
X23622444Y-19387912D01*
X23622444Y-19387912D02*
X23631968Y-19406960D01*
X23631968Y-19406960D02*
X23651015Y-19416484D01*
X23651015Y-19416484D02*
X23670063Y-19416484D01*
X23727206Y-19406960D02*
X23746254Y-19416484D01*
X23746254Y-19416484D02*
X23784349Y-19416484D01*
X23784349Y-19416484D02*
X23803396Y-19406960D01*
X23803396Y-19406960D02*
X23812920Y-19387912D01*
X23812920Y-19387912D02*
X23812920Y-19378389D01*
X23812920Y-19378389D02*
X23803396Y-19359341D01*
X23803396Y-19359341D02*
X23784349Y-19349817D01*
X23784349Y-19349817D02*
X23755777Y-19349817D01*
X23755777Y-19349817D02*
X23736730Y-19340293D01*
X23736730Y-19340293D02*
X23727206Y-19321246D01*
X23727206Y-19321246D02*
X23727206Y-19311722D01*
X23727206Y-19311722D02*
X23736730Y-19292674D01*
X23736730Y-19292674D02*
X23755777Y-19283150D01*
X23755777Y-19283150D02*
X23784349Y-19283150D01*
X23784349Y-19283150D02*
X23803396Y-19292674D01*
X23879587Y-19492674D02*
X23889111Y-19483150D01*
X23889111Y-19483150D02*
X23908158Y-19454579D01*
X23908158Y-19454579D02*
X23917682Y-19435531D01*
X23917682Y-19435531D02*
X23927206Y-19406960D01*
X23927206Y-19406960D02*
X23936730Y-19359341D01*
X23936730Y-19359341D02*
X23936730Y-19321246D01*
X23936730Y-19321246D02*
X23927206Y-19273627D01*
X23927206Y-19273627D02*
X23917682Y-19245055D01*
X23917682Y-19245055D02*
X23908158Y-19226008D01*
X23908158Y-19226008D02*
X23889111Y-19197436D01*
X23889111Y-19197436D02*
X23879587Y-19187912D01*
M02*
